<?xml version="1.0" encoding="utf-8" standalone="no"?>
<!DOCTYPE svg PUBLIC "-//W3C//DTD SVG 1.1//EN"
  "http://www.w3.org/Graphics/SVG/1.1/DTD/svg11.dtd">
<svg xmlns:xlink="http://www.w3.org/1999/xlink" width="996.48pt" height="708.357656pt" viewBox="0 0 996.48 708.357656" xmlns="http://www.w3.org/2000/svg" version="1.1">
 <metadata>
  <rdf:RDF xmlns:dc="http://purl.org/dc/elements/1.1/" xmlns:cc="http://creativecommons.org/ns#" xmlns:rdf="http://www.w3.org/1999/02/22-rdf-syntax-ns#">
   <cc:Work>
    <dc:type rdf:resource="http://purl.org/dc/dcmitype/StillImage"/>
    <dc:date>2026-03-20T22:00:50.990263</dc:date>
    <dc:format>image/svg+xml</dc:format>
    <dc:creator>
     <cc:Agent>
      <dc:title>Matplotlib v3.10.8, https://matplotlib.org/</dc:title>
     </cc:Agent>
    </dc:creator>
   </cc:Work>
  </rdf:RDF>
 </metadata>
 <defs>
  <style type="text/css">*{stroke-linejoin: round; stroke-linecap: butt}</style>
 </defs>
 <g id="figure_1">
  <g id="patch_1">
   <path d="M 0 708.357656 
L 996.48 708.357656 
L 996.48 0 
L 0 0 
z
" style="fill: #ffffff"/>
  </g>
  <g id="axes_1">
   <g id="patch_2">
    <path d="M 754.83044 247.312716 
Q 595.594694 413.343902 506.5503 623.640519 
" clip-path="url(#p70975b71a4)" style="fill: none; stroke: #555555; stroke-width: 1.5; stroke-linecap: round"/>
    <path d="M 513.352993 617.833337 
L 506.5503 623.640519 
L 505.98617 614.714055 
z
" clip-path="url(#p70975b71a4)" style="fill: #555555; stroke: #555555; stroke-width: 1.5; stroke-linecap: round"/>
   </g>
   <g id="patch_3">
    <path d="M 494.498325 252.63353 
Q 460.913609 438.325586 494.200443 622.367366 
" clip-path="url(#p70975b71a4)" style="fill: none; stroke: #555555; stroke-width: 1.5; stroke-linecap: round"/>
    <path d="M 496.712756 613.783178 
L 494.200443 622.367366 
L 488.840481 615.207002 
z
" clip-path="url(#p70975b71a4)" style="fill: #555555; stroke: #555555; stroke-width: 1.5; stroke-linecap: round"/>
   </g>
   <g id="patch_4">
    <path d="M 479.848498 240.844305 
Q 270.06155 332.421578 107.793662 491.484865 
" clip-path="url(#p70975b71a4)" style="fill: none; stroke: #555555; stroke-width: 1.5; stroke-linecap: round"/>
    <path d="M 116.306728 488.741197 
L 107.793662 491.484865 
L 110.706567 483.028211 
z
" clip-path="url(#p70975b71a4)" style="fill: #555555; stroke: #555555; stroke-width: 1.5; stroke-linecap: round"/>
   </g>
   <g id="patch_5">
    <path d="M 238.852866 386.475087 
Q 338.24127 531.20352 480.405355 631.341835 
" clip-path="url(#p70975b71a4)" style="fill: none; stroke: #555555; stroke-width: 1.5; stroke-linecap: round"/>
    <path d="M 476.168468 623.46473 
L 480.405355 631.341835 
L 471.561539 630.005082 
z
" clip-path="url(#p70975b71a4)" style="fill: #555555; stroke: #555555; stroke-width: 1.5; stroke-linecap: round"/>
   </g>
   <g id="patch_6">
    <path d="M 494.589647 389.541758 
Q 474.511764 506.770667 494.306691 622.346595 
" clip-path="url(#p70975b71a4)" style="fill: none; stroke: #555555; stroke-width: 1.5; stroke-linecap: round"/>
    <path d="M 496.898771 613.786156 
L 494.306691 622.346595 
L 489.013588 615.136667 
z
" clip-path="url(#p70975b71a4)" style="fill: #555555; stroke: #555555; stroke-width: 1.5; stroke-linecap: round"/>
   </g>
   <g id="patch_7">
    <path d="M 478.424484 372.605066 
Q 282.838293 401.294987 111.305166 496.127874 
" clip-path="url(#p70975b71a4)" style="fill: none; stroke: #555555; stroke-width: 1.5; stroke-linecap: round"/>
    <path d="M 120.241779 495.757824 
L 111.305166 496.127874 
L 116.371094 488.756553 
z
" clip-path="url(#p70975b71a4)" style="fill: #555555; stroke: #555555; stroke-width: 1.5; stroke-linecap: round"/>
   </g>
   <g id="patch_8">
    <path d="M 481.890496 381.394873 
Q 419.428568 427.280529 375.266268 488.920838 
" clip-path="url(#p70975b71a4)" style="fill: none; stroke: #555555; stroke-width: 1.5; stroke-linecap: round"/>
    <path d="M 383.177095 484.747253 
L 375.266268 488.920838 
L 376.673896 480.088026 
z
" clip-path="url(#p70975b71a4)" style="fill: #555555; stroke: #555555; stroke-width: 1.5; stroke-linecap: round"/>
   </g>
   <g id="patch_9">
    <path d="M 109.840566 516.602852 
Q 282.84158 612.246558 476.768677 640.692491 
" clip-path="url(#p70975b71a4)" style="fill: none; stroke: #555555; stroke-width: 1.5; stroke-linecap: round"/>
    <path d="M 469.4339 635.573796 
L 476.768677 640.692491 
L 468.272855 643.489096 
z
" clip-path="url(#p70975b71a4)" style="fill: #555555; stroke: #555555; stroke-width: 1.5; stroke-linecap: round"/>
   </g>
   <g id="patch_10">
    <path d="M 617.163223 518.287435 
Q 554.701295 564.173091 510.538995 625.8134 
" clip-path="url(#p70975b71a4)" style="fill: none; stroke: #555555; stroke-width: 1.5; stroke-linecap: round"/>
    <path d="M 518.449822 621.639815 
L 510.538995 625.8134 
L 511.946623 616.980588 
z
" clip-path="url(#p70975b71a4)" style="fill: #555555; stroke: #555555; stroke-width: 1.5; stroke-linecap: round"/>
   </g>
   <g id="patch_11">
    <path d="M 884.242665 509.497628 
Q 688.656475 538.187549 517.123348 633.020436 
" clip-path="url(#p70975b71a4)" style="fill: none; stroke: #555555; stroke-width: 1.5; stroke-linecap: round"/>
    <path d="M 526.059961 632.650386 
L 517.123348 633.020436 
L 522.189276 625.649115 
z
" clip-path="url(#p70975b71a4)" style="fill: #555555; stroke: #555555; stroke-width: 1.5; stroke-linecap: round"/>
   </g>
   <g id="patch_12">
    <path d="M 374.289067 523.255652 
Q 419.427995 586.259328 480.538278 631.152197 
" clip-path="url(#p70975b71a4)" style="fill: none; stroke: #555555; stroke-width: 1.5; stroke-linecap: round"/>
    <path d="M 476.45915 623.192252 
L 480.538278 631.152197 
L 471.722846 629.639533 
z
" clip-path="url(#p70975b71a4)" style="fill: #555555; stroke: #555555; stroke-width: 1.5; stroke-linecap: round"/>
   </g>
   <g id="patch_13">
    <path d="M 748.783463 370.033266 
Q 417.670648 374.427089 112.462581 498.504456 
" clip-path="url(#p70975b71a4)" style="fill: none; stroke: #555555; stroke-width: 1.5; stroke-linecap: round"/>
    <path d="M 121.37999 499.197134 
L 112.462581 498.504456 
L 118.367169 491.786135 
z
" clip-path="url(#p70975b71a4)" style="fill: #555555; stroke: #555555; stroke-width: 1.5; stroke-linecap: round"/>
   </g>
   <g id="patch_14">
    <path d="M 748.969938 372.605066 
Q 553.383747 401.294987 381.85062 496.127874 
" clip-path="url(#p70975b71a4)" style="fill: none; stroke: #555555; stroke-width: 1.5; stroke-linecap: round"/>
    <path d="M 390.787234 495.757824 
L 381.85062 496.127874 
L 386.916549 488.756553 
z
" clip-path="url(#p70975b71a4)" style="fill: #555555; stroke: #555555; stroke-width: 1.5; stroke-linecap: round"/>
   </g>
   <g id="patch_15">
    <path d="M 479.039307 101.687214 
Q 350.936784 140.765332 244.917601 219.827994 
" clip-path="url(#p70975b71a4)" style="fill: none; stroke: #555555; stroke-width: 1.5; stroke-linecap: round"/>
    <path d="M 253.72194 218.252045 
L 244.917601 219.827994 
L 248.939446 211.838953 
z
" clip-path="url(#p70975b71a4)" style="fill: #555555; stroke: #555555; stroke-width: 1.5; stroke-linecap: round"/>
   </g>
   <g id="patch_16">
    <path d="M 224.319518 252.699328 
Q 217.380335 301.431251 224.083065 348.502872 
" clip-path="url(#p70975b71a4)" style="fill: none; stroke: #555555; stroke-width: 1.5; stroke-linecap: round"/>
    <path d="M 226.915341 340.018874 
L 224.083065 348.502872 
L 218.995232 341.146652 
z
" clip-path="url(#p70975b71a4)" style="fill: #555555; stroke: #555555; stroke-width: 1.5; stroke-linecap: round"/>
   </g>
   <g id="PathCollection_1">
    <path d="M 768.785455 255.345774 
C 774.715576 255.345774 780.403614 252.989712 784.596843 248.796483 
C 788.790072 244.603253 791.146134 238.915216 791.146134 232.985094 
C 791.146134 227.054973 788.790072 221.366935 784.596843 217.173706 
C 780.403614 212.980477 774.715576 210.624414 768.785455 210.624414 
C 762.855333 210.624414 757.167295 212.980477 752.974066 217.173706 
C 748.780837 221.366935 746.424775 227.054973 746.424775 232.985094 
C 746.424775 238.915216 748.780837 244.603253 752.974066 248.796483 
C 757.167295 252.989712 762.855333 255.345774 768.785455 255.345774 
z
" clip-path="url(#p70975b71a4)" style="fill: #6baed6; fill-opacity: 0.9; stroke: #000000; stroke-opacity: 0.9; stroke-width: 1.2"/>
    <path d="M 498.24 671.048908 
C 505.502886 671.048908 512.469281 668.163333 517.604917 663.027697 
C 522.740553 657.892061 525.626128 650.925666 525.626128 643.66278 
C 525.626128 636.399894 522.740553 629.433499 517.604917 624.297863 
C 512.469281 619.162228 505.502886 616.276652 498.24 616.276652 
C 490.977114 616.276652 484.010719 619.162228 478.875083 624.297863 
C 473.739447 629.433499 470.853872 636.399894 470.853872 643.66278 
C 470.853872 650.925666 473.739447 657.892061 478.875083 663.027697 
C 484.010719 668.163333 490.977114 671.048908 498.24 671.048908 
z
" clip-path="url(#p70975b71a4)" style="fill: #d62728; fill-opacity: 0.9; stroke: #000000; stroke-opacity: 0.9; stroke-width: 1.2"/>
    <path d="M 498.24 255.345774 
C 504.170122 255.345774 509.858159 252.989712 514.051388 248.796483 
C 518.244617 244.603253 520.60068 238.915216 520.60068 232.985094 
C 520.60068 227.054973 518.244617 221.366935 514.051388 217.173706 
C 509.858159 212.980477 504.170122 210.624414 498.24 210.624414 
C 492.309878 210.624414 486.621841 212.980477 482.428612 217.173706 
C 478.235383 221.366935 475.87932 227.054973 475.87932 232.985094 
C 475.87932 238.915216 478.235383 244.603253 482.428612 248.796483 
C 486.621841 252.989712 492.309878 255.345774 498.24 255.345774 
z
" clip-path="url(#p70975b71a4)" style="fill: #6baed6; fill-opacity: 0.9; stroke: #000000; stroke-opacity: 0.9; stroke-width: 1.2"/>
    <path d="M 227.694545 392.238336 
C 233.624667 392.238336 239.312705 389.882274 243.505934 385.689045 
C 247.699163 381.495815 250.055225 375.807778 250.055225 369.877656 
C 250.055225 363.947535 247.699163 358.259497 243.505934 354.066268 
C 239.312705 349.873039 233.624667 347.516976 227.694545 347.516976 
C 221.764424 347.516976 216.076386 349.873039 211.883157 354.066268 
C 207.689928 358.259497 205.333866 363.947535 205.333866 369.877656 
C 205.333866 375.807778 207.689928 381.495815 211.883157 385.689045 
C 216.076386 389.882274 221.764424 392.238336 227.694545 392.238336 
z
" clip-path="url(#p70975b71a4)" style="fill: #6baed6; fill-opacity: 0.9; stroke: #000000; stroke-opacity: 0.9; stroke-width: 1.2"/>
    <path d="M 498.24 392.238336 
C 504.170122 392.238336 509.858159 389.882274 514.051388 385.689045 
C 518.244617 381.495815 520.60068 375.807778 520.60068 369.877656 
C 520.60068 363.947535 518.244617 358.259497 514.051388 354.066268 
C 509.858159 349.873039 504.170122 347.516976 498.24 347.516976 
C 492.309878 347.516976 486.621841 349.873039 482.428612 354.066268 
C 478.235383 358.259497 475.87932 363.947535 475.87932 369.877656 
C 475.87932 375.807778 478.235383 381.495815 482.428612 385.689045 
C 486.621841 389.882274 492.309878 392.238336 498.24 392.238336 
z
" clip-path="url(#p70975b71a4)" style="fill: #6baed6; fill-opacity: 0.9; stroke: #000000; stroke-opacity: 0.9; stroke-width: 1.2"/>
    <path d="M 92.421818 529.130898 
C 98.35194 529.130898 104.039977 526.774836 108.233206 522.581607 
C 112.426436 518.388377 114.782498 512.70034 114.782498 506.770218 
C 114.782498 500.840097 112.426436 495.152059 108.233206 490.95883 
C 104.039977 486.765601 98.35194 484.409538 92.421818 484.409538 
C 86.491697 484.409538 80.803659 486.765601 76.61043 490.95883 
C 72.417201 495.152059 70.061138 500.840097 70.061138 506.770218 
C 70.061138 512.70034 72.417201 518.388377 76.61043 522.581607 
C 80.803659 526.774836 86.491697 529.130898 92.421818 529.130898 
z
" clip-path="url(#p70975b71a4)" style="fill: #6baed6; fill-opacity: 0.9; stroke: #000000; stroke-opacity: 0.9; stroke-width: 1.2"/>
    <path d="M 633.512727 529.130898 
C 639.442849 529.130898 645.130886 526.774836 649.324116 522.581607 
C 653.517345 518.388377 655.873407 512.70034 655.873407 506.770218 
C 655.873407 500.840097 653.517345 495.152059 649.324116 490.95883 
C 645.130886 486.765601 639.442849 484.409538 633.512727 484.409538 
C 627.582606 484.409538 621.894568 486.765601 617.701339 490.95883 
C 613.50811 495.152059 611.152047 500.840097 611.152047 506.770218 
C 611.152047 512.70034 613.50811 518.388377 617.701339 522.581607 
C 621.894568 526.774836 627.582606 529.130898 633.512727 529.130898 
z
" clip-path="url(#p70975b71a4)" style="fill: #6baed6; fill-opacity: 0.9; stroke: #000000; stroke-opacity: 0.9; stroke-width: 1.2"/>
    <path d="M 904.058182 529.130898 
C 909.988303 529.130898 915.676341 526.774836 919.86957 522.581607 
C 924.062799 518.388377 926.418862 512.70034 926.418862 506.770218 
C 926.418862 500.840097 924.062799 495.152059 919.86957 490.95883 
C 915.676341 486.765601 909.988303 484.409538 904.058182 484.409538 
C 898.12806 484.409538 892.440023 486.765601 888.246794 490.95883 
C 884.053564 495.152059 881.697502 500.840097 881.697502 506.770218 
C 881.697502 512.70034 884.053564 518.388377 888.246794 522.581607 
C 892.440023 526.774836 898.12806 529.130898 904.058182 529.130898 
z
" clip-path="url(#p70975b71a4)" style="fill: #6baed6; fill-opacity: 0.9; stroke: #000000; stroke-opacity: 0.9; stroke-width: 1.2"/>
    <path d="M 362.967273 529.130898 
C 368.897394 529.130898 374.585432 526.774836 378.778661 522.581607 
C 382.97189 518.388377 385.327953 512.70034 385.327953 506.770218 
C 385.327953 500.840097 382.97189 495.152059 378.778661 490.95883 
C 374.585432 486.765601 368.897394 484.409538 362.967273 484.409538 
C 357.037151 484.409538 351.349114 486.765601 347.155884 490.95883 
C 342.962655 495.152059 340.606593 500.840097 340.606593 506.770218 
C 340.606593 512.70034 342.962655 518.388377 347.155884 522.581607 
C 351.349114 526.774836 357.037151 529.130898 362.967273 529.130898 
z
" clip-path="url(#p70975b71a4)" style="fill: #6baed6; fill-opacity: 0.9; stroke: #000000; stroke-opacity: 0.9; stroke-width: 1.2"/>
    <path d="M 768.785455 392.238336 
C 774.715576 392.238336 780.403614 389.882274 784.596843 385.689045 
C 788.790072 381.495815 791.146134 375.807778 791.146134 369.877656 
C 791.146134 363.947535 788.790072 358.259497 784.596843 354.066268 
C 780.403614 349.873039 774.715576 347.516976 768.785455 347.516976 
C 762.855333 347.516976 757.167295 349.873039 752.974066 354.066268 
C 748.780837 358.259497 746.424775 363.947535 746.424775 369.877656 
C 746.424775 375.807778 748.780837 381.495815 752.974066 385.689045 
C 757.167295 389.882274 762.855333 392.238336 768.785455 392.238336 
z
" clip-path="url(#p70975b71a4)" style="fill: #6baed6; fill-opacity: 0.9; stroke: #000000; stroke-opacity: 0.9; stroke-width: 1.2"/>
    <path d="M 498.24 118.453212 
C 504.170122 118.453212 509.858159 116.09715 514.051388 111.903921 
C 518.244617 107.710691 520.60068 102.022654 520.60068 96.092532 
C 520.60068 90.162411 518.244617 84.474373 514.051388 80.281144 
C 509.858159 76.087915 504.170122 73.731853 498.24 73.731853 
C 492.309878 73.731853 486.621841 76.087915 482.428612 80.281144 
C 478.235383 84.474373 475.87932 90.162411 475.87932 96.092532 
C 475.87932 102.022654 478.235383 107.710691 482.428612 111.903921 
C 486.621841 116.09715 492.309878 118.453212 498.24 118.453212 
z
" clip-path="url(#p70975b71a4)" style="fill: #6baed6; fill-opacity: 0.9; stroke: #000000; stroke-opacity: 0.9; stroke-width: 1.2"/>
    <path d="M 227.694545 255.345774 
C 233.624667 255.345774 239.312705 252.989712 243.505934 248.796483 
C 247.699163 244.603253 250.055225 238.915216 250.055225 232.985094 
C 250.055225 227.054973 247.699163 221.366935 243.505934 217.173706 
C 239.312705 212.980477 233.624667 210.624414 227.694545 210.624414 
C 221.764424 210.624414 216.076386 212.980477 211.883157 217.173706 
C 207.689928 221.366935 205.333866 227.054973 205.333866 232.985094 
C 205.333866 238.915216 207.689928 244.603253 211.883157 248.796483 
C 216.076386 252.989712 221.764424 255.345774 227.694545 255.345774 
z
" clip-path="url(#p70975b71a4)" style="fill: #6baed6; fill-opacity: 0.9; stroke: #000000; stroke-opacity: 0.9; stroke-width: 1.2"/>
   </g>
   <g id="text_1">
    <g clip-path="url(#p70975b71a4)">
     <!-- policy -->
     <g transform="translate(752.11983 224.429469) scale(0.1 -0.1)">
      <defs>
       <path id="DejaVuSans-Bold-70" d="M 1656 506 
L 1656 -1331 
L 538 -1331 
L 538 3500 
L 1656 3500 
L 1656 2988 
Q 1888 3294 2169 3439 
Q 2450 3584 2816 3584 
Q 3463 3584 3878 3070 
Q 4294 2556 4294 1747 
Q 4294 938 3878 423 
Q 3463 -91 2816 -91 
Q 2450 -91 2169 54 
Q 1888 200 1656 506 
z
M 2400 2772 
Q 2041 2772 1848 2508 
Q 1656 2244 1656 1747 
Q 1656 1250 1848 986 
Q 2041 722 2400 722 
Q 2759 722 2948 984 
Q 3138 1247 3138 1747 
Q 3138 2247 2948 2509 
Q 2759 2772 2400 2772 
z
" transform="scale(0.015625)"/>
       <path id="DejaVuSans-Bold-6f" d="M 2203 2784 
Q 1831 2784 1636 2517 
Q 1441 2250 1441 1747 
Q 1441 1244 1636 976 
Q 1831 709 2203 709 
Q 2569 709 2762 976 
Q 2956 1244 2956 1747 
Q 2956 2250 2762 2517 
Q 2569 2784 2203 2784 
z
M 2203 3584 
Q 3106 3584 3614 3096 
Q 4122 2609 4122 1747 
Q 4122 884 3614 396 
Q 3106 -91 2203 -91 
Q 1297 -91 786 396 
Q 275 884 275 1747 
Q 275 2609 786 3096 
Q 1297 3584 2203 3584 
z
" transform="scale(0.015625)"/>
       <path id="DejaVuSans-Bold-6c" d="M 538 4863 
L 1656 4863 
L 1656 0 
L 538 0 
L 538 4863 
z
" transform="scale(0.015625)"/>
       <path id="DejaVuSans-Bold-69" d="M 538 3500 
L 1656 3500 
L 1656 0 
L 538 0 
L 538 3500 
z
M 538 4863 
L 1656 4863 
L 1656 3950 
L 538 3950 
L 538 4863 
z
" transform="scale(0.015625)"/>
       <path id="DejaVuSans-Bold-63" d="M 3366 3391 
L 3366 2478 
Q 3138 2634 2908 2709 
Q 2678 2784 2431 2784 
Q 1963 2784 1702 2511 
Q 1441 2238 1441 1747 
Q 1441 1256 1702 982 
Q 1963 709 2431 709 
Q 2694 709 2930 787 
Q 3166 866 3366 1019 
L 3366 103 
Q 3103 6 2833 -42 
Q 2563 -91 2291 -91 
Q 1344 -91 809 395 
Q 275 881 275 1747 
Q 275 2613 809 3098 
Q 1344 3584 2291 3584 
Q 2566 3584 2833 3536 
Q 3100 3488 3366 3391 
z
" transform="scale(0.015625)"/>
       <path id="DejaVuSans-Bold-79" d="M 78 3500 
L 1197 3500 
L 2138 1125 
L 2938 3500 
L 4056 3500 
L 2584 -331 
Q 2363 -916 2067 -1148 
Q 1772 -1381 1288 -1381 
L 641 -1381 
L 641 -647 
L 991 -647 
Q 1275 -647 1404 -556 
Q 1534 -466 1606 -231 
L 1638 -134 
L 78 3500 
z
" transform="scale(0.015625)"/>
      </defs>
      <use xlink:href="#DejaVuSans-Bold-70"/>
      <use xlink:href="#DejaVuSans-Bold-6f" transform="translate(71.582031 0)"/>
      <use xlink:href="#DejaVuSans-Bold-6c" transform="translate(140.283203 0)"/>
      <use xlink:href="#DejaVuSans-Bold-69" transform="translate(174.560547 0)"/>
      <use xlink:href="#DejaVuSans-Bold-63" transform="translate(208.837891 0)"/>
      <use xlink:href="#DejaVuSans-Bold-79" transform="translate(268.115234 0)"/>
     </g>
    </g>
    <g clip-path="url(#p70975b71a4)">
     <!-- age -->
     <g transform="translate(758.440923 235.705407) scale(0.1 -0.1)">
      <defs>
       <path id="DejaVuSans-Bold-61" d="M 2106 1575 
Q 1756 1575 1579 1456 
Q 1403 1338 1403 1106 
Q 1403 894 1545 773 
Q 1688 653 1941 653 
Q 2256 653 2472 879 
Q 2688 1106 2688 1447 
L 2688 1575 
L 2106 1575 
z
M 3816 1997 
L 3816 0 
L 2688 0 
L 2688 519 
Q 2463 200 2181 54 
Q 1900 -91 1497 -91 
Q 953 -91 614 226 
Q 275 544 275 1050 
Q 275 1666 698 1953 
Q 1122 2241 2028 2241 
L 2688 2241 
L 2688 2328 
Q 2688 2594 2478 2717 
Q 2269 2841 1825 2841 
Q 1466 2841 1156 2769 
Q 847 2697 581 2553 
L 581 3406 
Q 941 3494 1303 3539 
Q 1666 3584 2028 3584 
Q 2975 3584 3395 3211 
Q 3816 2838 3816 1997 
z
" transform="scale(0.015625)"/>
       <path id="DejaVuSans-Bold-67" d="M 2919 594 
Q 2688 288 2409 144 
Q 2131 0 1766 0 
Q 1125 0 706 504 
Q 288 1009 288 1791 
Q 288 2575 706 3076 
Q 1125 3578 1766 3578 
Q 2131 3578 2409 3434 
Q 2688 3291 2919 2981 
L 2919 3500 
L 4044 3500 
L 4044 353 
Q 4044 -491 3511 -936 
Q 2978 -1381 1966 -1381 
Q 1638 -1381 1331 -1331 
Q 1025 -1281 716 -1178 
L 716 -306 
Q 1009 -475 1290 -558 
Q 1572 -641 1856 -641 
Q 2406 -641 2662 -400 
Q 2919 -159 2919 353 
L 2919 594 
z
M 2181 2772 
Q 1834 2772 1640 2515 
Q 1447 2259 1447 1791 
Q 1447 1309 1634 1061 
Q 1822 813 2181 813 
Q 2531 813 2725 1069 
Q 2919 1325 2919 1791 
Q 2919 2259 2725 2515 
Q 2531 2772 2181 2772 
z
" transform="scale(0.015625)"/>
       <path id="DejaVuSans-Bold-65" d="M 4031 1759 
L 4031 1441 
L 1416 1441 
Q 1456 1047 1700 850 
Q 1944 653 2381 653 
Q 2734 653 3104 758 
Q 3475 863 3866 1075 
L 3866 213 
Q 3469 63 3072 -14 
Q 2675 -91 2278 -91 
Q 1328 -91 801 392 
Q 275 875 275 1747 
Q 275 2603 792 3093 
Q 1309 3584 2216 3584 
Q 3041 3584 3536 3087 
Q 4031 2591 4031 1759 
z
M 2881 2131 
Q 2881 2450 2695 2645 
Q 2509 2841 2209 2841 
Q 1884 2841 1681 2658 
Q 1478 2475 1428 2131 
L 2881 2131 
z
" transform="scale(0.015625)"/>
      </defs>
      <use xlink:href="#DejaVuSans-Bold-61"/>
      <use xlink:href="#DejaVuSans-Bold-67" transform="translate(67.480469 0)"/>
      <use xlink:href="#DejaVuSans-Bold-65" transform="translate(139.0625 0)"/>
     </g>
    </g>
    <g clip-path="url(#p70975b71a4)">
     <!-- days -->
     <g transform="translate(755.753423 246.981344) scale(0.1 -0.1)">
      <defs>
       <path id="DejaVuSans-Bold-64" d="M 2919 2988 
L 2919 4863 
L 4044 4863 
L 4044 0 
L 2919 0 
L 2919 506 
Q 2688 197 2409 53 
Q 2131 -91 1766 -91 
Q 1119 -91 703 423 
Q 288 938 288 1747 
Q 288 2556 703 3070 
Q 1119 3584 1766 3584 
Q 2128 3584 2408 3439 
Q 2688 3294 2919 2988 
z
M 2181 722 
Q 2541 722 2730 984 
Q 2919 1247 2919 1747 
Q 2919 2247 2730 2509 
Q 2541 2772 2181 2772 
Q 1825 2772 1636 2509 
Q 1447 2247 1447 1747 
Q 1447 1247 1636 984 
Q 1825 722 2181 722 
z
" transform="scale(0.015625)"/>
       <path id="DejaVuSans-Bold-73" d="M 3272 3391 
L 3272 2541 
Q 2913 2691 2578 2766 
Q 2244 2841 1947 2841 
Q 1628 2841 1473 2761 
Q 1319 2681 1319 2516 
Q 1319 2381 1436 2309 
Q 1553 2238 1856 2203 
L 2053 2175 
Q 2913 2066 3209 1816 
Q 3506 1566 3506 1031 
Q 3506 472 3093 190 
Q 2681 -91 1863 -91 
Q 1516 -91 1145 -36 
Q 775 19 384 128 
L 384 978 
Q 719 816 1070 734 
Q 1422 653 1784 653 
Q 2113 653 2278 743 
Q 2444 834 2444 1013 
Q 2444 1163 2330 1236 
Q 2216 1309 1875 1350 
L 1678 1375 
Q 931 1469 631 1722 
Q 331 1975 331 2491 
Q 331 3047 712 3315 
Q 1094 3584 1881 3584 
Q 2191 3584 2531 3537 
Q 2872 3491 3272 3391 
z
" transform="scale(0.015625)"/>
      </defs>
      <use xlink:href="#DejaVuSans-Bold-64"/>
      <use xlink:href="#DejaVuSans-Bold-61" transform="translate(71.582031 0)"/>
      <use xlink:href="#DejaVuSans-Bold-79" transform="translate(135.9375 0)"/>
      <use xlink:href="#DejaVuSans-Bold-73" transform="translate(201.123047 0)"/>
     </g>
    </g>
   </g>
   <g id="text_2">
    <g clip-path="url(#p70975b71a4)">
     <!-- fraud -->
     <g transform="translate(483.086875 640.823249) scale(0.1 -0.1)">
      <defs>
       <path id="DejaVuSans-Bold-66" d="M 2841 4863 
L 2841 4128 
L 2222 4128 
Q 1984 4128 1890 4042 
Q 1797 3956 1797 3744 
L 1797 3500 
L 2753 3500 
L 2753 2700 
L 1797 2700 
L 1797 0 
L 678 0 
L 678 2700 
L 122 2700 
L 122 3500 
L 678 3500 
L 678 3744 
Q 678 4316 997 4589 
Q 1316 4863 1984 4863 
L 2841 4863 
z
" transform="scale(0.015625)"/>
       <path id="DejaVuSans-Bold-72" d="M 3138 2547 
Q 2991 2616 2845 2648 
Q 2700 2681 2553 2681 
Q 2122 2681 1889 2404 
Q 1656 2128 1656 1613 
L 1656 0 
L 538 0 
L 538 3500 
L 1656 3500 
L 1656 2925 
Q 1872 3269 2151 3426 
Q 2431 3584 2822 3584 
Q 2878 3584 2943 3579 
Q 3009 3575 3134 3559 
L 3138 2547 
z
" transform="scale(0.015625)"/>
       <path id="DejaVuSans-Bold-75" d="M 500 1363 
L 500 3500 
L 1625 3500 
L 1625 3150 
Q 1625 2866 1622 2436 
Q 1619 2006 1619 1863 
Q 1619 1441 1641 1255 
Q 1663 1069 1716 984 
Q 1784 875 1895 815 
Q 2006 756 2150 756 
Q 2500 756 2700 1025 
Q 2900 1294 2900 1772 
L 2900 3500 
L 4019 3500 
L 4019 0 
L 2900 0 
L 2900 506 
Q 2647 200 2364 54 
Q 2081 -91 1741 -91 
Q 1134 -91 817 281 
Q 500 653 500 1363 
z
" transform="scale(0.015625)"/>
      </defs>
      <use xlink:href="#DejaVuSans-Bold-66"/>
      <use xlink:href="#DejaVuSans-Bold-72" transform="translate(43.505859 0)"/>
      <use xlink:href="#DejaVuSans-Bold-61" transform="translate(92.822266 0)"/>
      <use xlink:href="#DejaVuSans-Bold-75" transform="translate(160.302734 0)"/>
      <use xlink:href="#DejaVuSans-Bold-64" transform="translate(231.494141 0)"/>
     </g>
    </g>
    <g clip-path="url(#p70975b71a4)">
     <!-- reported -->
     <g transform="translate(473.543125 652.021061) scale(0.1 -0.1)">
      <defs>
       <path id="DejaVuSans-Bold-74" d="M 1759 4494 
L 1759 3500 
L 2913 3500 
L 2913 2700 
L 1759 2700 
L 1759 1216 
Q 1759 972 1856 886 
Q 1953 800 2241 800 
L 2816 800 
L 2816 0 
L 1856 0 
Q 1194 0 917 276 
Q 641 553 641 1216 
L 641 2700 
L 84 2700 
L 84 3500 
L 641 3500 
L 641 4494 
L 1759 4494 
z
" transform="scale(0.015625)"/>
      </defs>
      <use xlink:href="#DejaVuSans-Bold-72"/>
      <use xlink:href="#DejaVuSans-Bold-65" transform="translate(49.316406 0)"/>
      <use xlink:href="#DejaVuSans-Bold-70" transform="translate(117.138672 0)"/>
      <use xlink:href="#DejaVuSans-Bold-6f" transform="translate(188.720703 0)"/>
      <use xlink:href="#DejaVuSans-Bold-72" transform="translate(257.421875 0)"/>
      <use xlink:href="#DejaVuSans-Bold-74" transform="translate(306.738281 0)"/>
      <use xlink:href="#DejaVuSans-Bold-65" transform="translate(354.541016 0)"/>
      <use xlink:href="#DejaVuSans-Bold-64" transform="translate(422.363281 0)"/>
     </g>
    </g>
   </g>
   <g id="text_3">
    <g clip-path="url(#p70975b71a4)">
     <!-- policy -->
     <g transform="translate(481.574375 230.106501) scale(0.1 -0.1)">
      <use xlink:href="#DejaVuSans-Bold-70"/>
      <use xlink:href="#DejaVuSans-Bold-6f" transform="translate(71.582031 0)"/>
      <use xlink:href="#DejaVuSans-Bold-6c" transform="translate(140.283203 0)"/>
      <use xlink:href="#DejaVuSans-Bold-69" transform="translate(174.560547 0)"/>
      <use xlink:href="#DejaVuSans-Bold-63" transform="translate(208.837891 0)"/>
      <use xlink:href="#DejaVuSans-Bold-79" transform="translate(268.115234 0)"/>
     </g>
    </g>
    <g clip-path="url(#p70975b71a4)">
     <!-- deductable -->
     <g transform="translate(466.718906 241.382438) scale(0.1 -0.1)">
      <defs>
       <path id="DejaVuSans-Bold-62" d="M 2400 722 
Q 2759 722 2948 984 
Q 3138 1247 3138 1747 
Q 3138 2247 2948 2509 
Q 2759 2772 2400 2772 
Q 2041 2772 1848 2508 
Q 1656 2244 1656 1747 
Q 1656 1250 1848 986 
Q 2041 722 2400 722 
z
M 1656 2988 
Q 1888 3294 2169 3439 
Q 2450 3584 2816 3584 
Q 3463 3584 3878 3070 
Q 4294 2556 4294 1747 
Q 4294 938 3878 423 
Q 3463 -91 2816 -91 
Q 2450 -91 2169 54 
Q 1888 200 1656 506 
L 1656 0 
L 538 0 
L 538 4863 
L 1656 4863 
L 1656 2988 
z
" transform="scale(0.015625)"/>
      </defs>
      <use xlink:href="#DejaVuSans-Bold-64"/>
      <use xlink:href="#DejaVuSans-Bold-65" transform="translate(71.582031 0)"/>
      <use xlink:href="#DejaVuSans-Bold-64" transform="translate(139.404297 0)"/>
      <use xlink:href="#DejaVuSans-Bold-75" transform="translate(210.986328 0)"/>
      <use xlink:href="#DejaVuSans-Bold-63" transform="translate(282.177734 0)"/>
      <use xlink:href="#DejaVuSans-Bold-74" transform="translate(341.455078 0)"/>
      <use xlink:href="#DejaVuSans-Bold-61" transform="translate(389.257812 0)"/>
      <use xlink:href="#DejaVuSans-Bold-62" transform="translate(456.738281 0)"/>
      <use xlink:href="#DejaVuSans-Bold-6c" transform="translate(528.320312 0)"/>
      <use xlink:href="#DejaVuSans-Bold-65" transform="translate(562.597656 0)"/>
     </g>
    </g>
   </g>
   <g id="text_4">
    <g clip-path="url(#p70975b71a4)">
     <!-- umbrella -->
     <g transform="translate(202.686733 367.038125) scale(0.1 -0.1)">
      <defs>
       <path id="DejaVuSans-Bold-6d" d="M 3781 2919 
Q 3994 3244 4286 3414 
Q 4578 3584 4928 3584 
Q 5531 3584 5847 3212 
Q 6163 2841 6163 2131 
L 6163 0 
L 5038 0 
L 5038 1825 
Q 5041 1866 5042 1909 
Q 5044 1953 5044 2034 
Q 5044 2406 4934 2573 
Q 4825 2741 4581 2741 
Q 4263 2741 4089 2478 
Q 3916 2216 3909 1719 
L 3909 0 
L 2784 0 
L 2784 1825 
Q 2784 2406 2684 2573 
Q 2584 2741 2328 2741 
Q 2006 2741 1831 2477 
Q 1656 2213 1656 1722 
L 1656 0 
L 531 0 
L 531 3500 
L 1656 3500 
L 1656 2988 
Q 1863 3284 2130 3434 
Q 2397 3584 2719 3584 
Q 3081 3584 3359 3409 
Q 3638 3234 3781 2919 
z
" transform="scale(0.015625)"/>
      </defs>
      <use xlink:href="#DejaVuSans-Bold-75"/>
      <use xlink:href="#DejaVuSans-Bold-6d" transform="translate(71.191406 0)"/>
      <use xlink:href="#DejaVuSans-Bold-62" transform="translate(175.390625 0)"/>
      <use xlink:href="#DejaVuSans-Bold-72" transform="translate(246.972656 0)"/>
      <use xlink:href="#DejaVuSans-Bold-65" transform="translate(296.289062 0)"/>
      <use xlink:href="#DejaVuSans-Bold-6c" transform="translate(364.111328 0)"/>
      <use xlink:href="#DejaVuSans-Bold-6c" transform="translate(398.388672 0)"/>
      <use xlink:href="#DejaVuSans-Bold-61" transform="translate(432.666016 0)"/>
     </g>
    </g>
    <g clip-path="url(#p70975b71a4)">
     <!-- limit -->
     <g transform="translate(214.952358 378.235937) scale(0.1 -0.1)">
      <use xlink:href="#DejaVuSans-Bold-6c"/>
      <use xlink:href="#DejaVuSans-Bold-69" transform="translate(34.277344 0)"/>
      <use xlink:href="#DejaVuSans-Bold-6d" transform="translate(68.554688 0)"/>
      <use xlink:href="#DejaVuSans-Bold-69" transform="translate(172.753906 0)"/>
      <use xlink:href="#DejaVuSans-Bold-74" transform="translate(207.03125 0)"/>
     </g>
    </g>
   </g>
   <g id="text_5">
    <g clip-path="url(#p70975b71a4)">
     <!-- incident -->
     <g transform="translate(475.368906 366.999062) scale(0.1 -0.1)">
      <defs>
       <path id="DejaVuSans-Bold-6e" d="M 4056 2131 
L 4056 0 
L 2931 0 
L 2931 347 
L 2931 1631 
Q 2931 2084 2911 2256 
Q 2891 2428 2841 2509 
Q 2775 2619 2662 2680 
Q 2550 2741 2406 2741 
Q 2056 2741 1856 2470 
Q 1656 2200 1656 1722 
L 1656 0 
L 538 0 
L 538 3500 
L 1656 3500 
L 1656 2988 
Q 1909 3294 2193 3439 
Q 2478 3584 2822 3584 
Q 3428 3584 3742 3212 
Q 4056 2841 4056 2131 
z
" transform="scale(0.015625)"/>
      </defs>
      <use xlink:href="#DejaVuSans-Bold-69"/>
      <use xlink:href="#DejaVuSans-Bold-6e" transform="translate(34.277344 0)"/>
      <use xlink:href="#DejaVuSans-Bold-63" transform="translate(105.46875 0)"/>
      <use xlink:href="#DejaVuSans-Bold-69" transform="translate(164.746094 0)"/>
      <use xlink:href="#DejaVuSans-Bold-64" transform="translate(199.023438 0)"/>
      <use xlink:href="#DejaVuSans-Bold-65" transform="translate(270.605469 0)"/>
      <use xlink:href="#DejaVuSans-Bold-6e" transform="translate(338.427734 0)"/>
      <use xlink:href="#DejaVuSans-Bold-74" transform="translate(409.619141 0)"/>
     </g>
    </g>
    <g clip-path="url(#p70975b71a4)">
     <!-- severity -->
     <g transform="translate(475.393125 378.196875) scale(0.1 -0.1)">
      <defs>
       <path id="DejaVuSans-Bold-76" d="M 97 3500 
L 1216 3500 
L 2088 1081 
L 2956 3500 
L 4078 3500 
L 2700 0 
L 1472 0 
L 97 3500 
z
" transform="scale(0.015625)"/>
      </defs>
      <use xlink:href="#DejaVuSans-Bold-73"/>
      <use xlink:href="#DejaVuSans-Bold-65" transform="translate(59.521484 0)"/>
      <use xlink:href="#DejaVuSans-Bold-76" transform="translate(127.34375 0)"/>
      <use xlink:href="#DejaVuSans-Bold-65" transform="translate(192.529297 0)"/>
      <use xlink:href="#DejaVuSans-Bold-72" transform="translate(260.351562 0)"/>
      <use xlink:href="#DejaVuSans-Bold-69" transform="translate(309.667969 0)"/>
      <use xlink:href="#DejaVuSans-Bold-74" transform="translate(343.945312 0)"/>
      <use xlink:href="#DejaVuSans-Bold-79" transform="translate(391.748047 0)"/>
     </g>
    </g>
   </g>
   <g id="text_6">
    <g clip-path="url(#p70975b71a4)">
     <!-- total -->
     <g transform="translate(79.118693 498.331781) scale(0.1 -0.1)">
      <use xlink:href="#DejaVuSans-Bold-74"/>
      <use xlink:href="#DejaVuSans-Bold-6f" transform="translate(47.802734 0)"/>
      <use xlink:href="#DejaVuSans-Bold-74" transform="translate(116.503906 0)"/>
      <use xlink:href="#DejaVuSans-Bold-61" transform="translate(164.306641 0)"/>
      <use xlink:href="#DejaVuSans-Bold-6c" transform="translate(231.787109 0)"/>
     </g>
    </g>
    <g clip-path="url(#p70975b71a4)">
     <!-- claim -->
     <g transform="translate(77.445256 509.529593) scale(0.1 -0.1)">
      <use xlink:href="#DejaVuSans-Bold-63"/>
      <use xlink:href="#DejaVuSans-Bold-6c" transform="translate(59.277344 0)"/>
      <use xlink:href="#DejaVuSans-Bold-61" transform="translate(93.554688 0)"/>
      <use xlink:href="#DejaVuSans-Bold-69" transform="translate(161.035156 0)"/>
      <use xlink:href="#DejaVuSans-Bold-6d" transform="translate(195.3125 0)"/>
     </g>
    </g>
    <g clip-path="url(#p70975b71a4)">
     <!-- amount -->
     <g transform="translate(70.893693 520.727406) scale(0.1 -0.1)">
      <use xlink:href="#DejaVuSans-Bold-61"/>
      <use xlink:href="#DejaVuSans-Bold-6d" transform="translate(67.480469 0)"/>
      <use xlink:href="#DejaVuSans-Bold-6f" transform="translate(171.679688 0)"/>
      <use xlink:href="#DejaVuSans-Bold-75" transform="translate(240.380859 0)"/>
      <use xlink:href="#DejaVuSans-Bold-6e" transform="translate(311.572266 0)"/>
      <use xlink:href="#DejaVuSans-Bold-74" transform="translate(382.763672 0)"/>
     </g>
    </g>
   </g>
   <g id="text_7">
    <g clip-path="url(#p70975b71a4)">
     <!-- witnesses -->
     <g transform="translate(605.519759 509.529593) scale(0.1 -0.1)">
      <defs>
       <path id="DejaVuSans-Bold-77" d="M 225 3500 
L 1313 3500 
L 1900 1088 
L 2491 3500 
L 3425 3500 
L 4013 1113 
L 4603 3500 
L 5691 3500 
L 4769 0 
L 3547 0 
L 2956 2406 
L 2369 0 
L 1147 0 
L 225 3500 
z
" transform="scale(0.015625)"/>
      </defs>
      <use xlink:href="#DejaVuSans-Bold-77"/>
      <use xlink:href="#DejaVuSans-Bold-69" transform="translate(92.382812 0)"/>
      <use xlink:href="#DejaVuSans-Bold-74" transform="translate(126.660156 0)"/>
      <use xlink:href="#DejaVuSans-Bold-6e" transform="translate(174.462891 0)"/>
      <use xlink:href="#DejaVuSans-Bold-65" transform="translate(245.654297 0)"/>
      <use xlink:href="#DejaVuSans-Bold-73" transform="translate(313.476562 0)"/>
      <use xlink:href="#DejaVuSans-Bold-73" transform="translate(372.998047 0)"/>
      <use xlink:href="#DejaVuSans-Bold-65" transform="translate(432.519531 0)"/>
      <use xlink:href="#DejaVuSans-Bold-73" transform="translate(500.341797 0)"/>
     </g>
    </g>
   </g>
   <g id="text_8">
    <g clip-path="url(#p70975b71a4)">
     <!-- police -->
     <g transform="translate(887.260526 498.331781) scale(0.1 -0.1)">
      <use xlink:href="#DejaVuSans-Bold-70"/>
      <use xlink:href="#DejaVuSans-Bold-6f" transform="translate(71.582031 0)"/>
      <use xlink:href="#DejaVuSans-Bold-6c" transform="translate(140.283203 0)"/>
      <use xlink:href="#DejaVuSans-Bold-69" transform="translate(174.560547 0)"/>
      <use xlink:href="#DejaVuSans-Bold-63" transform="translate(208.837891 0)"/>
      <use xlink:href="#DejaVuSans-Bold-65" transform="translate(268.115234 0)"/>
     </g>
    </g>
    <g clip-path="url(#p70975b71a4)">
     <!-- report -->
     <g transform="translate(886.331619 509.529593) scale(0.1 -0.1)">
      <use xlink:href="#DejaVuSans-Bold-72"/>
      <use xlink:href="#DejaVuSans-Bold-65" transform="translate(49.316406 0)"/>
      <use xlink:href="#DejaVuSans-Bold-70" transform="translate(117.138672 0)"/>
      <use xlink:href="#DejaVuSans-Bold-6f" transform="translate(188.720703 0)"/>
      <use xlink:href="#DejaVuSans-Bold-72" transform="translate(257.421875 0)"/>
      <use xlink:href="#DejaVuSans-Bold-74" transform="translate(306.738281 0)"/>
     </g>
    </g>
    <g clip-path="url(#p70975b71a4)">
     <!-- available -->
     <g transform="translate(878.563651 520.727406) scale(0.1 -0.1)">
      <use xlink:href="#DejaVuSans-Bold-61"/>
      <use xlink:href="#DejaVuSans-Bold-76" transform="translate(67.480469 0)"/>
      <use xlink:href="#DejaVuSans-Bold-61" transform="translate(132.666016 0)"/>
      <use xlink:href="#DejaVuSans-Bold-69" transform="translate(200.146484 0)"/>
      <use xlink:href="#DejaVuSans-Bold-6c" transform="translate(234.423828 0)"/>
      <use xlink:href="#DejaVuSans-Bold-61" transform="translate(268.701172 0)"/>
      <use xlink:href="#DejaVuSans-Bold-62" transform="translate(336.181641 0)"/>
      <use xlink:href="#DejaVuSans-Bold-6c" transform="translate(407.763672 0)"/>
      <use xlink:href="#DejaVuSans-Bold-65" transform="translate(442.041016 0)"/>
     </g>
    </g>
   </g>
   <g id="text_9">
    <g clip-path="url(#p70975b71a4)">
     <!-- bodily -->
     <g transform="translate(345.686804 503.852562) scale(0.1 -0.1)">
      <use xlink:href="#DejaVuSans-Bold-62"/>
      <use xlink:href="#DejaVuSans-Bold-6f" transform="translate(71.582031 0)"/>
      <use xlink:href="#DejaVuSans-Bold-64" transform="translate(140.283203 0)"/>
      <use xlink:href="#DejaVuSans-Bold-69" transform="translate(211.865234 0)"/>
      <use xlink:href="#DejaVuSans-Bold-6c" transform="translate(246.142578 0)"/>
      <use xlink:href="#DejaVuSans-Bold-79" transform="translate(280.419922 0)"/>
     </g>
    </g>
    <g clip-path="url(#p70975b71a4)">
     <!-- injuries -->
     <g transform="translate(341.873523 515.128499) scale(0.1 -0.1)">
      <defs>
       <path id="DejaVuSans-Bold-6a" d="M 538 3500 
L 1656 3500 
L 1656 63 
Q 1656 -641 1318 -1011 
Q 981 -1381 341 -1381 
L -213 -1381 
L -213 -647 
L -19 -647 
Q 300 -647 419 -503 
Q 538 -359 538 63 
L 538 3500 
z
M 538 4863 
L 1656 4863 
L 1656 3950 
L 538 3950 
L 538 4863 
z
" transform="scale(0.015625)"/>
      </defs>
      <use xlink:href="#DejaVuSans-Bold-69"/>
      <use xlink:href="#DejaVuSans-Bold-6e" transform="translate(34.277344 0)"/>
      <use xlink:href="#DejaVuSans-Bold-6a" transform="translate(105.46875 0)"/>
      <use xlink:href="#DejaVuSans-Bold-75" transform="translate(139.746094 0)"/>
      <use xlink:href="#DejaVuSans-Bold-72" transform="translate(210.9375 0)"/>
      <use xlink:href="#DejaVuSans-Bold-69" transform="translate(260.253906 0)"/>
      <use xlink:href="#DejaVuSans-Bold-65" transform="translate(294.53125 0)"/>
      <use xlink:href="#DejaVuSans-Bold-73" transform="translate(362.353516 0)"/>
     </g>
    </g>
   </g>
   <g id="text_10">
    <g clip-path="url(#p70975b71a4)">
     <!-- number -->
     <g transform="translate(747.020611 361.439219) scale(0.1 -0.1)">
      <use xlink:href="#DejaVuSans-Bold-6e"/>
      <use xlink:href="#DejaVuSans-Bold-75" transform="translate(71.191406 0)"/>
      <use xlink:href="#DejaVuSans-Bold-6d" transform="translate(142.382812 0)"/>
      <use xlink:href="#DejaVuSans-Bold-62" transform="translate(246.582031 0)"/>
      <use xlink:href="#DejaVuSans-Bold-65" transform="translate(318.164062 0)"/>
      <use xlink:href="#DejaVuSans-Bold-72" transform="translate(385.986328 0)"/>
     </g>
    </g>
    <g clip-path="url(#p70975b71a4)">
     <!-- of -->
     <g transform="translate(763.175298 372.637031) scale(0.1 -0.1)">
      <use xlink:href="#DejaVuSans-Bold-6f"/>
      <use xlink:href="#DejaVuSans-Bold-66" transform="translate(68.701172 0)"/>
     </g>
    </g>
    <g clip-path="url(#p70975b71a4)">
     <!-- vehicles -->
     <g transform="translate(745.815923 383.834844) scale(0.1 -0.1)">
      <defs>
       <path id="DejaVuSans-Bold-68" d="M 4056 2131 
L 4056 0 
L 2931 0 
L 2931 347 
L 2931 1625 
Q 2931 2084 2911 2256 
Q 2891 2428 2841 2509 
Q 2775 2619 2662 2680 
Q 2550 2741 2406 2741 
Q 2056 2741 1856 2470 
Q 1656 2200 1656 1722 
L 1656 0 
L 538 0 
L 538 4863 
L 1656 4863 
L 1656 2988 
Q 1909 3294 2193 3439 
Q 2478 3584 2822 3584 
Q 3428 3584 3742 3212 
Q 4056 2841 4056 2131 
z
" transform="scale(0.015625)"/>
      </defs>
      <use xlink:href="#DejaVuSans-Bold-76"/>
      <use xlink:href="#DejaVuSans-Bold-65" transform="translate(65.185547 0)"/>
      <use xlink:href="#DejaVuSans-Bold-68" transform="translate(133.007812 0)"/>
      <use xlink:href="#DejaVuSans-Bold-69" transform="translate(204.199219 0)"/>
      <use xlink:href="#DejaVuSans-Bold-63" transform="translate(238.476562 0)"/>
      <use xlink:href="#DejaVuSans-Bold-6c" transform="translate(297.753906 0)"/>
      <use xlink:href="#DejaVuSans-Bold-65" transform="translate(332.03125 0)"/>
      <use xlink:href="#DejaVuSans-Bold-73" transform="translate(399.853516 0)"/>
     </g>
    </g>
   </g>
   <g id="text_11">
    <g clip-path="url(#p70975b71a4)">
     <!-- insured -->
     <g transform="translate(476.995469 93.253001) scale(0.1 -0.1)">
      <use xlink:href="#DejaVuSans-Bold-69"/>
      <use xlink:href="#DejaVuSans-Bold-6e" transform="translate(34.277344 0)"/>
      <use xlink:href="#DejaVuSans-Bold-73" transform="translate(105.46875 0)"/>
      <use xlink:href="#DejaVuSans-Bold-75" transform="translate(164.990234 0)"/>
      <use xlink:href="#DejaVuSans-Bold-72" transform="translate(236.181641 0)"/>
      <use xlink:href="#DejaVuSans-Bold-65" transform="translate(285.498047 0)"/>
      <use xlink:href="#DejaVuSans-Bold-64" transform="translate(353.320312 0)"/>
     </g>
    </g>
    <g clip-path="url(#p70975b71a4)">
     <!-- occupation -->
     <g transform="translate(467.265781 104.450814) scale(0.1 -0.1)">
      <use xlink:href="#DejaVuSans-Bold-6f"/>
      <use xlink:href="#DejaVuSans-Bold-63" transform="translate(68.701172 0)"/>
      <use xlink:href="#DejaVuSans-Bold-63" transform="translate(127.978516 0)"/>
      <use xlink:href="#DejaVuSans-Bold-75" transform="translate(187.255859 0)"/>
      <use xlink:href="#DejaVuSans-Bold-70" transform="translate(258.447266 0)"/>
      <use xlink:href="#DejaVuSans-Bold-61" transform="translate(330.029297 0)"/>
      <use xlink:href="#DejaVuSans-Bold-74" transform="translate(397.509766 0)"/>
      <use xlink:href="#DejaVuSans-Bold-69" transform="translate(445.3125 0)"/>
      <use xlink:href="#DejaVuSans-Bold-6f" transform="translate(479.589844 0)"/>
      <use xlink:href="#DejaVuSans-Bold-6e" transform="translate(548.291016 0)"/>
     </g>
    </g>
   </g>
   <g id="text_12">
    <g clip-path="url(#p70975b71a4)">
     <!-- policy -->
     <g transform="translate(211.02892 224.507594) scale(0.1 -0.1)">
      <use xlink:href="#DejaVuSans-Bold-70"/>
      <use xlink:href="#DejaVuSans-Bold-6f" transform="translate(71.582031 0)"/>
      <use xlink:href="#DejaVuSans-Bold-6c" transform="translate(140.283203 0)"/>
      <use xlink:href="#DejaVuSans-Bold-69" transform="translate(174.560547 0)"/>
      <use xlink:href="#DejaVuSans-Bold-63" transform="translate(208.837891 0)"/>
      <use xlink:href="#DejaVuSans-Bold-79" transform="translate(268.115234 0)"/>
     </g>
    </g>
    <g clip-path="url(#p70975b71a4)">
     <!-- annual -->
     <g transform="translate(208.55392 235.783532) scale(0.1 -0.1)">
      <use xlink:href="#DejaVuSans-Bold-61"/>
      <use xlink:href="#DejaVuSans-Bold-6e" transform="translate(67.480469 0)"/>
      <use xlink:href="#DejaVuSans-Bold-6e" transform="translate(138.671875 0)"/>
      <use xlink:href="#DejaVuSans-Bold-75" transform="translate(209.863281 0)"/>
      <use xlink:href="#DejaVuSans-Bold-61" transform="translate(281.054688 0)"/>
      <use xlink:href="#DejaVuSans-Bold-6c" transform="translate(348.535156 0)"/>
     </g>
    </g>
    <g clip-path="url(#p70975b71a4)">
     <!-- premium -->
     <g transform="translate(202.564858 246.981344) scale(0.1 -0.1)">
      <use xlink:href="#DejaVuSans-Bold-70"/>
      <use xlink:href="#DejaVuSans-Bold-72" transform="translate(71.582031 0)"/>
      <use xlink:href="#DejaVuSans-Bold-65" transform="translate(120.898438 0)"/>
      <use xlink:href="#DejaVuSans-Bold-6d" transform="translate(188.720703 0)"/>
      <use xlink:href="#DejaVuSans-Bold-69" transform="translate(292.919922 0)"/>
      <use xlink:href="#DejaVuSans-Bold-75" transform="translate(327.197266 0)"/>
      <use xlink:href="#DejaVuSans-Bold-6d" transform="translate(398.388672 0)"/>
     </g>
    </g>
   </g>
   <g id="text_13">
    <!-- Hypothesised Causal DAG for Insurance Fraud -->
    <g transform="translate(303.556406 18.597656) scale(0.15 -0.15)">
     <defs>
      <path id="DejaVuSans-Bold-48" d="M 588 4666 
L 1791 4666 
L 1791 2888 
L 3566 2888 
L 3566 4666 
L 4769 4666 
L 4769 0 
L 3566 0 
L 3566 1978 
L 1791 1978 
L 1791 0 
L 588 0 
L 588 4666 
z
" transform="scale(0.015625)"/>
      <path id="DejaVuSans-Bold-20" transform="scale(0.015625)"/>
      <path id="DejaVuSans-Bold-43" d="M 4288 256 
Q 3956 84 3597 -3 
Q 3238 -91 2847 -91 
Q 1681 -91 1000 561 
Q 319 1213 319 2328 
Q 319 3447 1000 4098 
Q 1681 4750 2847 4750 
Q 3238 4750 3597 4662 
Q 3956 4575 4288 4403 
L 4288 3438 
Q 3953 3666 3628 3772 
Q 3303 3878 2944 3878 
Q 2300 3878 1931 3465 
Q 1563 3053 1563 2328 
Q 1563 1606 1931 1193 
Q 2300 781 2944 781 
Q 3303 781 3628 887 
Q 3953 994 4288 1222 
L 4288 256 
z
" transform="scale(0.015625)"/>
      <path id="DejaVuSans-Bold-44" d="M 1791 3756 
L 1791 909 
L 2222 909 
Q 2959 909 3348 1275 
Q 3738 1641 3738 2338 
Q 3738 3031 3350 3393 
Q 2963 3756 2222 3756 
L 1791 3756 
z
M 588 4666 
L 1856 4666 
Q 2919 4666 3439 4514 
Q 3959 4363 4331 4000 
Q 4659 3684 4818 3271 
Q 4978 2859 4978 2338 
Q 4978 1809 4818 1395 
Q 4659 981 4331 666 
Q 3956 303 3431 151 
Q 2906 0 1856 0 
L 588 0 
L 588 4666 
z
" transform="scale(0.015625)"/>
      <path id="DejaVuSans-Bold-41" d="M 3419 850 
L 1538 850 
L 1241 0 
L 31 0 
L 1759 4666 
L 3194 4666 
L 4922 0 
L 3713 0 
L 3419 850 
z
M 1838 1716 
L 3116 1716 
L 2478 3572 
L 1838 1716 
z
" transform="scale(0.015625)"/>
      <path id="DejaVuSans-Bold-47" d="M 4781 347 
Q 4331 128 3847 18 
Q 3363 -91 2847 -91 
Q 1681 -91 1000 561 
Q 319 1213 319 2328 
Q 319 3456 1012 4103 
Q 1706 4750 2913 4750 
Q 3378 4750 3804 4662 
Q 4231 4575 4609 4403 
L 4609 3438 
Q 4219 3659 3833 3768 
Q 3447 3878 3059 3878 
Q 2341 3878 1952 3476 
Q 1563 3075 1563 2328 
Q 1563 1588 1938 1184 
Q 2313 781 3003 781 
Q 3191 781 3352 804 
Q 3513 828 3641 878 
L 3641 1784 
L 2906 1784 
L 2906 2591 
L 4781 2591 
L 4781 347 
z
" transform="scale(0.015625)"/>
      <path id="DejaVuSans-Bold-49" d="M 588 4666 
L 1791 4666 
L 1791 0 
L 588 0 
L 588 4666 
z
" transform="scale(0.015625)"/>
      <path id="DejaVuSans-Bold-46" d="M 588 4666 
L 3834 4666 
L 3834 3756 
L 1791 3756 
L 1791 2888 
L 3713 2888 
L 3713 1978 
L 1791 1978 
L 1791 0 
L 588 0 
L 588 4666 
z
" transform="scale(0.015625)"/>
     </defs>
     <use xlink:href="#DejaVuSans-Bold-48"/>
     <use xlink:href="#DejaVuSans-Bold-79" transform="translate(83.691406 0)"/>
     <use xlink:href="#DejaVuSans-Bold-70" transform="translate(148.876953 0)"/>
     <use xlink:href="#DejaVuSans-Bold-6f" transform="translate(220.458984 0)"/>
     <use xlink:href="#DejaVuSans-Bold-74" transform="translate(289.160156 0)"/>
     <use xlink:href="#DejaVuSans-Bold-68" transform="translate(336.962891 0)"/>
     <use xlink:href="#DejaVuSans-Bold-65" transform="translate(408.154297 0)"/>
     <use xlink:href="#DejaVuSans-Bold-73" transform="translate(475.976562 0)"/>
     <use xlink:href="#DejaVuSans-Bold-69" transform="translate(535.498047 0)"/>
     <use xlink:href="#DejaVuSans-Bold-73" transform="translate(569.775391 0)"/>
     <use xlink:href="#DejaVuSans-Bold-65" transform="translate(629.296875 0)"/>
     <use xlink:href="#DejaVuSans-Bold-64" transform="translate(697.119141 0)"/>
     <use xlink:href="#DejaVuSans-Bold-20" transform="translate(768.701172 0)"/>
     <use xlink:href="#DejaVuSans-Bold-43" transform="translate(803.515625 0)"/>
     <use xlink:href="#DejaVuSans-Bold-61" transform="translate(876.904297 0)"/>
     <use xlink:href="#DejaVuSans-Bold-75" transform="translate(944.384766 0)"/>
     <use xlink:href="#DejaVuSans-Bold-73" transform="translate(1015.576172 0)"/>
     <use xlink:href="#DejaVuSans-Bold-61" transform="translate(1075.097656 0)"/>
     <use xlink:href="#DejaVuSans-Bold-6c" transform="translate(1142.578125 0)"/>
     <use xlink:href="#DejaVuSans-Bold-20" transform="translate(1176.855469 0)"/>
     <use xlink:href="#DejaVuSans-Bold-44" transform="translate(1211.669922 0)"/>
     <use xlink:href="#DejaVuSans-Bold-41" transform="translate(1294.677734 0)"/>
     <use xlink:href="#DejaVuSans-Bold-47" transform="translate(1372.070312 0)"/>
     <use xlink:href="#DejaVuSans-Bold-20" transform="translate(1454.150391 0)"/>
     <use xlink:href="#DejaVuSans-Bold-66" transform="translate(1488.964844 0)"/>
     <use xlink:href="#DejaVuSans-Bold-6f" transform="translate(1532.470703 0)"/>
     <use xlink:href="#DejaVuSans-Bold-72" transform="translate(1601.171875 0)"/>
     <use xlink:href="#DejaVuSans-Bold-20" transform="translate(1650.488281 0)"/>
     <use xlink:href="#DejaVuSans-Bold-49" transform="translate(1685.302734 0)"/>
     <use xlink:href="#DejaVuSans-Bold-6e" transform="translate(1722.509766 0)"/>
     <use xlink:href="#DejaVuSans-Bold-73" transform="translate(1793.701172 0)"/>
     <use xlink:href="#DejaVuSans-Bold-75" transform="translate(1853.222656 0)"/>
     <use xlink:href="#DejaVuSans-Bold-72" transform="translate(1924.414062 0)"/>
     <use xlink:href="#DejaVuSans-Bold-61" transform="translate(1973.730469 0)"/>
     <use xlink:href="#DejaVuSans-Bold-6e" transform="translate(2041.210938 0)"/>
     <use xlink:href="#DejaVuSans-Bold-63" transform="translate(2112.402344 0)"/>
     <use xlink:href="#DejaVuSans-Bold-65" transform="translate(2171.679688 0)"/>
     <use xlink:href="#DejaVuSans-Bold-20" transform="translate(2239.501953 0)"/>
     <use xlink:href="#DejaVuSans-Bold-46" transform="translate(2274.316406 0)"/>
     <use xlink:href="#DejaVuSans-Bold-72" transform="translate(2336.251953 0)"/>
     <use xlink:href="#DejaVuSans-Bold-61" transform="translate(2385.568359 0)"/>
     <use xlink:href="#DejaVuSans-Bold-75" transform="translate(2453.048828 0)"/>
     <use xlink:href="#DejaVuSans-Bold-64" transform="translate(2524.240234 0)"/>
    </g>
   </g>
  </g>
 </g>
 <defs>
  <clipPath id="p70975b71a4">
   <rect x="7.2" y="38.597656" width="982.08" height="662.56"/>
  </clipPath>
 </defs>
</svg>
