<?xml version="1.0" encoding="utf-8" standalone="no"?>
<!DOCTYPE svg PUBLIC "-//W3C//DTD SVG 1.1//EN"
  "http://www.w3.org/Graphics/SVG/1.1/DTD/svg11.dtd">
<svg xmlns:xlink="http://www.w3.org/1999/xlink" width="492.48pt" height="348.357656pt" viewBox="0 0 492.48 348.357656" xmlns="http://www.w3.org/2000/svg" version="1.1">
 <metadata>
  <rdf:RDF xmlns:dc="http://purl.org/dc/elements/1.1/" xmlns:cc="http://creativecommons.org/ns#" xmlns:rdf="http://www.w3.org/1999/02/22-rdf-syntax-ns#">
   <cc:Work>
    <dc:type rdf:resource="http://purl.org/dc/dcmitype/StillImage"/>
    <dc:date>2026-03-20T22:14:17.043845</dc:date>
    <dc:format>image/svg+xml</dc:format>
    <dc:creator>
     <cc:Agent>
      <dc:title>Matplotlib v3.10.8, https://matplotlib.org/</dc:title>
     </cc:Agent>
    </dc:creator>
   </cc:Work>
  </rdf:RDF>
 </metadata>
 <defs>
  <style type="text/css">*{stroke-linejoin: round; stroke-linecap: butt}</style>
 </defs>
 <g id="figure_1">
  <g id="patch_1">
   <path d="M 0 348.357656 
L 492.48 348.357656 
L 492.48 0 
L 0 0 
z
" style="fill: #ffffff"/>
  </g>
  <g id="axes_1">
   <g id="patch_2">
    <path d="M 363.690422 141.399988 
Q 296.280853 210.031649 255.330043 295.222868 
" clip-path="url(#p410c2d7608)" style="fill: none; stroke: #555555; stroke-width: 1.5; stroke-linecap: round"/>
    <path d="M 262.401068 289.745588 
L 255.330043 295.222868 
L 255.190834 286.279679 
z
" clip-path="url(#p410c2d7608)" style="fill: #555555; stroke: #555555; stroke-width: 1.5; stroke-linecap: round"/>
   </g>
   <g id="patch_3">
    <path d="M 242.716269 147.05014 
Q 231.010268 221.132234 242.454019 293.557828 
" clip-path="url(#p410c2d7608)" style="fill: none; stroke: #555555; stroke-width: 1.5; stroke-linecap: round"/>
    <path d="M 245.156436 285.031578 
L 242.454019 293.557828 
L 237.254469 286.280144 
z
" clip-path="url(#p410c2d7608)" style="fill: #555555; stroke: #555555; stroke-width: 1.5; stroke-linecap: round"/>
   </g>
   <g id="patch_4">
    <path d="M 227.688268 134.841256 
Q 136.886675 173.167881 64.632618 237.70825 
" clip-path="url(#p410c2d7608)" style="fill: none; stroke: #555555; stroke-width: 1.5; stroke-linecap: round"/>
    <path d="M 73.26368 235.362026 
L 64.632618 237.70825 
L 67.934276 229.395666 
z
" clip-path="url(#p410c2d7608)" style="fill: #555555; stroke: #555555; stroke-width: 1.5; stroke-linecap: round"/>
   </g>
   <g id="patch_5">
    <path d="M 126.39889 205.978133 
Q 170.303221 263.014167 228.164235 302.941552 
" clip-path="url(#p410c2d7608)" style="fill: none; stroke: #555555; stroke-width: 1.5; stroke-linecap: round"/>
    <path d="M 223.851596 295.105663 
L 228.164235 302.941552 
L 219.307941 301.69013 
z
" clip-path="url(#p410c2d7608)" style="fill: #555555; stroke: #555555; stroke-width: 1.5; stroke-linecap: round"/>
   </g>
   <g id="patch_6">
    <path d="M 242.917797 209.599737 
Q 237.059702 252.390212 242.690369 293.519134 
" clip-path="url(#p410c2d7608)" style="fill: none; stroke: #555555; stroke-width: 1.5; stroke-linecap: round"/>
    <path d="M 245.568302 285.050515 
L 242.690369 293.519134 
L 237.642234 286.135616 
z
" clip-path="url(#p410c2d7608)" style="fill: #555555; stroke: #555555; stroke-width: 1.5; stroke-linecap: round"/>
   </g>
   <g id="patch_7">
    <path d="M 226.400411 192.418969 
Q 142.284729 204.775253 67.870284 242.302378 
" clip-path="url(#p410c2d7608)" style="fill: none; stroke: #555555; stroke-width: 1.5; stroke-linecap: round"/>
    <path d="M 76.814503 242.27167 
L 67.870284 242.302378 
L 73.21225 235.128578 
z
" clip-path="url(#p410c2d7608)" style="fill: #555555; stroke: #555555; stroke-width: 1.5; stroke-linecap: round"/>
   </g>
   <g id="patch_8">
    <path d="M 229.7807 201.239264 
Q 209.191397 216.791457 193.668959 235.260664 
" clip-path="url(#p410c2d7608)" style="fill: none; stroke: #555555; stroke-width: 1.5; stroke-linecap: round"/>
    <path d="M 201.878251 231.709957 
L 193.668959 235.260664 
L 195.753969 226.562806 
z
" clip-path="url(#p410c2d7608)" style="fill: #555555; stroke: #555555; stroke-width: 1.5; stroke-linecap: round"/>
   </g>
   <g id="patch_9">
    <path d="M 66.376353 261.72434 
Q 142.288402 300.006015 224.745026 312.117979 
" clip-path="url(#p410c2d7608)" style="fill: none; stroke: #555555; stroke-width: 1.5; stroke-linecap: round"/>
    <path d="M 217.411278 306.99781 
L 224.745026 312.117979 
L 216.248642 314.912877 
z
" clip-path="url(#p410c2d7608)" style="fill: #555555; stroke: #555555; stroke-width: 1.5; stroke-linecap: round"/>
   </g>
   <g id="patch_10">
    <path d="M 295.63194 263.751661 
Q 275.042636 279.303853 259.520198 297.77306 
" clip-path="url(#p410c2d7608)" style="fill: none; stroke: #555555; stroke-width: 1.5; stroke-linecap: round"/>
    <path d="M 267.729491 294.222353 
L 259.520198 297.77306 
L 261.605208 289.075202 
z
" clip-path="url(#p410c2d7608)" style="fill: #555555; stroke: #555555; stroke-width: 1.5; stroke-linecap: round"/>
   </g>
   <g id="patch_11">
    <path d="M 423.95413 254.931366 
Q 339.838448 267.28765 265.424003 304.814774 
" clip-path="url(#p410c2d7608)" style="fill: none; stroke: #555555; stroke-width: 1.5; stroke-linecap: round"/>
    <path d="M 274.368222 304.784067 
L 265.424003 304.814774 
L 270.765969 297.640975 
z
" clip-path="url(#p410c2d7608)" style="fill: #555555; stroke: #555555; stroke-width: 1.5; stroke-linecap: round"/>
   </g>
   <g id="patch_12">
    <path d="M 192.590666 268.236447 
Q 209.192193 287.989405 228.443383 302.530705 
" clip-path="url(#p410c2d7608)" style="fill: none; stroke: #555555; stroke-width: 1.5; stroke-linecap: round"/>
    <path d="M 224.470705 294.517102 
L 228.443383 302.530705 
L 219.648894 300.900686 
z
" clip-path="url(#p410c2d7608)" style="fill: #555555; stroke: #555555; stroke-width: 1.5; stroke-linecap: round"/>
   </g>
   <g id="patch_13">
    <path d="M 357.942307 189.908337 
Q 207.753487 191.843727 68.874344 244.49381 
" clip-path="url(#p410c2d7608)" style="fill: none; stroke: #555555; stroke-width: 1.5; stroke-linecap: round"/>
    <path d="M 77.772781 245.398147 
L 68.874344 244.49381 
L 74.936875 237.917663 
z
" clip-path="url(#p410c2d7608)" style="fill: #555555; stroke: #555555; stroke-width: 1.5; stroke-linecap: round"/>
   </g>
   <g id="patch_14">
    <path d="M 358.102891 192.418969 
Q 273.987208 204.775253 199.572763 242.302378 
" clip-path="url(#p410c2d7608)" style="fill: none; stroke: #555555; stroke-width: 1.5; stroke-linecap: round"/>
    <path d="M 208.516983 242.27167 
L 199.572763 242.302378 
L 204.914729 235.128578 
z
" clip-path="url(#p410c2d7608)" style="fill: #555555; stroke: #555555; stroke-width: 1.5; stroke-linecap: round"/>
   </g>
   <g id="patch_15">
    <path d="M 226.977324 70.223153 
Q 175.598622 86.017956 132.27198 114.906957 
" clip-path="url(#p410c2d7608)" style="fill: none; stroke: #555555; stroke-width: 1.5; stroke-linecap: round"/>
    <path d="M 141.147102 113.796908 
L 132.27198 114.906957 
L 136.709014 107.14083 
z
" clip-path="url(#p410c2d7608)" style="fill: #555555; stroke: #555555; stroke-width: 1.5; stroke-linecap: round"/>
   </g>
   <g id="patch_16">
    <path d="M 111.8308 147.178912 
Q 110.993028 158.621101 111.708293 168.390717 
" clip-path="url(#p410c2d7608)" style="fill: none; stroke: #555555; stroke-width: 1.5; stroke-linecap: round"/>
    <path d="M 115.113473 160.120001 
L 111.708293 168.390717 
L 107.134828 160.704143 
z
" clip-path="url(#p410c2d7608)" style="fill: #555555; stroke: #555555; stroke-width: 1.5; stroke-linecap: round"/>
   </g>
   <g id="PathCollection_1">
    <path d="M 377.942479 149.725939 
C 383.872601 149.725939 389.560638 147.369877 393.753868 143.176648 
C 397.947097 138.983419 400.303159 133.295381 400.303159 127.36526 
C 400.303159 121.435138 397.947097 115.7471 393.753868 111.553871 
C 389.560638 107.360642 383.872601 105.00458 377.942479 105.00458 
C 372.012358 105.00458 366.32432 107.360642 362.131091 111.553871 
C 357.937862 115.7471 355.5818 121.435138 355.5818 127.36526 
C 355.5818 133.295381 357.937862 138.983419 362.131091 143.176648 
C 366.32432 147.369877 372.012358 149.725939 377.942479 149.725939 
z
" clip-path="url(#p410c2d7608)" style="fill: #6baed6; fill-opacity: 0.9; stroke: #000000; stroke-opacity: 0.9; stroke-width: 1.2"/>
    <path d="M 246.24 342.288578 
C 253.502886 342.288578 260.469281 339.403002 265.604917 334.267366 
C 270.740553 329.13173 273.626128 322.165336 273.626128 314.90245 
C 273.626128 307.639564 270.740553 300.673169 265.604917 295.537533 
C 260.469281 290.401897 253.502886 287.516322 246.24 287.516322 
C 238.977114 287.516322 232.010719 290.401897 226.875083 295.537533 
C 221.739447 300.673169 218.853872 307.639564 218.853872 314.90245 
C 218.853872 322.165336 221.739447 329.13173 226.875083 334.267366 
C 232.010719 339.403002 238.977114 342.288578 246.24 342.288578 
z
" clip-path="url(#p410c2d7608)" style="fill: #d62728; fill-opacity: 0.9; stroke: #000000; stroke-opacity: 0.9; stroke-width: 1.2"/>
    <path d="M 246.24 149.725939 
C 252.170122 149.725939 257.858159 147.369877 262.051388 143.176648 
C 266.244617 138.983419 268.60068 133.295381 268.60068 127.36526 
C 268.60068 121.435138 266.244617 115.7471 262.051388 111.553871 
C 257.858159 107.360642 252.170122 105.00458 246.24 105.00458 
C 240.309878 105.00458 234.621841 107.360642 230.428612 111.553871 
C 226.235383 115.7471 223.87932 121.435138 223.87932 127.36526 
C 223.87932 133.295381 226.235383 138.983419 230.428612 143.176648 
C 234.621841 147.369877 240.309878 149.725939 246.24 149.725939 
z
" clip-path="url(#p410c2d7608)" style="fill: #6baed6; fill-opacity: 0.9; stroke: #000000; stroke-opacity: 0.9; stroke-width: 1.2"/>
    <path d="M 114.537521 212.238336 
C 120.467642 212.238336 126.15568 209.882274 130.348909 205.689045 
C 134.542138 201.495815 136.8982 195.807778 136.8982 189.877656 
C 136.8982 183.947535 134.542138 178.259497 130.348909 174.066268 
C 126.15568 169.873039 120.467642 167.516976 114.537521 167.516976 
C 108.607399 167.516976 102.919362 169.873039 98.726132 174.066268 
C 94.532903 178.259497 92.176841 183.947535 92.176841 189.877656 
C 92.176841 195.807778 94.532903 201.495815 98.726132 205.689045 
C 102.919362 209.882274 108.607399 212.238336 114.537521 212.238336 
z
" clip-path="url(#p410c2d7608)" style="fill: #6baed6; fill-opacity: 0.9; stroke: #000000; stroke-opacity: 0.9; stroke-width: 1.2"/>
    <path d="M 246.24 212.238336 
C 252.170122 212.238336 257.858159 209.882274 262.051388 205.689045 
C 266.244617 201.495815 268.60068 195.807778 268.60068 189.877656 
C 268.60068 183.947535 266.244617 178.259497 262.051388 174.066268 
C 257.858159 169.873039 252.170122 167.516976 246.24 167.516976 
C 240.309878 167.516976 234.621841 169.873039 230.428612 174.066268 
C 226.235383 178.259497 223.87932 183.947535 223.87932 189.877656 
C 223.87932 195.807778 226.235383 201.495815 230.428612 205.689045 
C 234.621841 209.882274 240.309878 212.238336 246.24 212.238336 
z
" clip-path="url(#p410c2d7608)" style="fill: #6baed6; fill-opacity: 0.9; stroke: #000000; stroke-opacity: 0.9; stroke-width: 1.2"/>
    <path d="M 48.686281 274.750733 
C 54.616403 274.750733 60.30444 272.39467 64.497669 268.201441 
C 68.690898 264.008212 71.046961 258.320175 71.046961 252.390053 
C 71.046961 246.459931 68.690898 240.771894 64.497669 236.578665 
C 60.30444 232.385435 54.616403 230.029373 48.686281 230.029373 
C 42.756159 230.029373 37.068122 232.385435 32.874893 236.578665 
C 28.681663 240.771894 26.325601 246.459931 26.325601 252.390053 
C 26.325601 258.320175 28.681663 264.008212 32.874893 268.201441 
C 37.068122 272.39467 42.756159 274.750733 48.686281 274.750733 
z
" clip-path="url(#p410c2d7608)" style="fill: #6baed6; fill-opacity: 0.9; stroke: #000000; stroke-opacity: 0.9; stroke-width: 1.2"/>
    <path d="M 312.09124 274.750733 
C 318.021361 274.750733 323.709399 272.39467 327.902628 268.201441 
C 332.095857 264.008212 334.451919 258.320175 334.451919 252.390053 
C 334.451919 246.459931 332.095857 240.771894 327.902628 236.578665 
C 323.709399 232.385435 318.021361 230.029373 312.09124 230.029373 
C 306.161118 230.029373 300.473081 232.385435 296.279851 236.578665 
C 292.086622 240.771894 289.73056 246.459931 289.73056 252.390053 
C 289.73056 258.320175 292.086622 264.008212 296.279851 268.201441 
C 300.473081 272.39467 306.161118 274.750733 312.09124 274.750733 
z
" clip-path="url(#p410c2d7608)" style="fill: #6baed6; fill-opacity: 0.9; stroke: #000000; stroke-opacity: 0.9; stroke-width: 1.2"/>
    <path d="M 443.793719 274.750733 
C 449.723841 274.750733 455.411878 272.39467 459.605107 268.201441 
C 463.798337 264.008212 466.154399 258.320175 466.154399 252.390053 
C 466.154399 246.459931 463.798337 240.771894 459.605107 236.578665 
C 455.411878 232.385435 449.723841 230.029373 443.793719 230.029373 
C 437.863597 230.029373 432.17556 232.385435 427.982331 236.578665 
C 423.789102 240.771894 421.433039 246.459931 421.433039 252.390053 
C 421.433039 258.320175 423.789102 264.008212 427.982331 268.201441 
C 432.17556 272.39467 437.863597 274.750733 443.793719 274.750733 
z
" clip-path="url(#p410c2d7608)" style="fill: #6baed6; fill-opacity: 0.9; stroke: #000000; stroke-opacity: 0.9; stroke-width: 1.2"/>
    <path d="M 180.38876 274.750733 
C 186.318882 274.750733 192.006919 272.39467 196.200149 268.201441 
C 200.393378 264.008212 202.74944 258.320175 202.74944 252.390053 
C 202.74944 246.459931 200.393378 240.771894 196.200149 236.578665 
C 192.006919 232.385435 186.318882 230.029373 180.38876 230.029373 
C 174.458639 230.029373 168.770601 232.385435 164.577372 236.578665 
C 160.384143 240.771894 158.028081 246.459931 158.028081 252.390053 
C 158.028081 258.320175 160.384143 264.008212 164.577372 268.201441 
C 168.770601 272.39467 174.458639 274.750733 180.38876 274.750733 
z
" clip-path="url(#p410c2d7608)" style="fill: #6baed6; fill-opacity: 0.9; stroke: #000000; stroke-opacity: 0.9; stroke-width: 1.2"/>
    <path d="M 377.942479 212.238336 
C 383.872601 212.238336 389.560638 209.882274 393.753868 205.689045 
C 397.947097 201.495815 400.303159 195.807778 400.303159 189.877656 
C 400.303159 183.947535 397.947097 178.259497 393.753868 174.066268 
C 389.560638 169.873039 383.872601 167.516976 377.942479 167.516976 
C 372.012358 167.516976 366.32432 169.873039 362.131091 174.066268 
C 357.937862 178.259497 355.5818 183.947535 355.5818 189.877656 
C 355.5818 195.807778 357.937862 201.495815 362.131091 205.689045 
C 366.32432 209.882274 372.012358 212.238336 377.942479 212.238336 
z
" clip-path="url(#p410c2d7608)" style="fill: #6baed6; fill-opacity: 0.9; stroke: #000000; stroke-opacity: 0.9; stroke-width: 1.2"/>
    <path d="M 246.24 87.213543 
C 252.170122 87.213543 257.858159 84.85748 262.051388 80.664251 
C 266.244617 76.471022 268.60068 70.782984 268.60068 64.852863 
C 268.60068 58.922741 266.244617 53.234704 262.051388 49.041475 
C 257.858159 44.848245 252.170122 42.492183 246.24 42.492183 
C 240.309878 42.492183 234.621841 44.848245 230.428612 49.041475 
C 226.235383 53.234704 223.87932 58.922741 223.87932 64.852863 
C 223.87932 70.782984 226.235383 76.471022 230.428612 80.664251 
C 234.621841 84.85748 240.309878 87.213543 246.24 87.213543 
z
" clip-path="url(#p410c2d7608)" style="fill: #6baed6; fill-opacity: 0.9; stroke: #000000; stroke-opacity: 0.9; stroke-width: 1.2"/>
    <path d="M 114.537521 149.725939 
C 120.467642 149.725939 126.15568 147.369877 130.348909 143.176648 
C 134.542138 138.983419 136.8982 133.295381 136.8982 127.36526 
C 136.8982 121.435138 134.542138 115.7471 130.348909 111.553871 
C 126.15568 107.360642 120.467642 105.00458 114.537521 105.00458 
C 108.607399 105.00458 102.919362 107.360642 98.726132 111.553871 
C 94.532903 115.7471 92.176841 121.435138 92.176841 127.36526 
C 92.176841 133.295381 94.532903 138.983419 98.726132 143.176648 
C 102.919362 147.369877 108.607399 149.725939 114.537521 149.725939 
z
" clip-path="url(#p410c2d7608)" style="fill: #6baed6; fill-opacity: 0.9; stroke: #000000; stroke-opacity: 0.9; stroke-width: 1.2"/>
   </g>
   <g id="text_1">
    <g clip-path="url(#p410c2d7608)">
     <!-- policy -->
     <g transform="translate(361.276854 118.809635) scale(0.1 -0.1)">
      <defs>
       <path id="DejaVuSans-Bold-70" d="M 1656 506 
L 1656 -1331 
L 538 -1331 
L 538 3500 
L 1656 3500 
L 1656 2988 
Q 1888 3294 2169 3439 
Q 2450 3584 2816 3584 
Q 3463 3584 3878 3070 
Q 4294 2556 4294 1747 
Q 4294 938 3878 423 
Q 3463 -91 2816 -91 
Q 2450 -91 2169 54 
Q 1888 200 1656 506 
z
M 2400 2772 
Q 2041 2772 1848 2508 
Q 1656 2244 1656 1747 
Q 1656 1250 1848 986 
Q 2041 722 2400 722 
Q 2759 722 2948 984 
Q 3138 1247 3138 1747 
Q 3138 2247 2948 2509 
Q 2759 2772 2400 2772 
z
" transform="scale(0.015625)"/>
       <path id="DejaVuSans-Bold-6f" d="M 2203 2784 
Q 1831 2784 1636 2517 
Q 1441 2250 1441 1747 
Q 1441 1244 1636 976 
Q 1831 709 2203 709 
Q 2569 709 2762 976 
Q 2956 1244 2956 1747 
Q 2956 2250 2762 2517 
Q 2569 2784 2203 2784 
z
M 2203 3584 
Q 3106 3584 3614 3096 
Q 4122 2609 4122 1747 
Q 4122 884 3614 396 
Q 3106 -91 2203 -91 
Q 1297 -91 786 396 
Q 275 884 275 1747 
Q 275 2609 786 3096 
Q 1297 3584 2203 3584 
z
" transform="scale(0.015625)"/>
       <path id="DejaVuSans-Bold-6c" d="M 538 4863 
L 1656 4863 
L 1656 0 
L 538 0 
L 538 4863 
z
" transform="scale(0.015625)"/>
       <path id="DejaVuSans-Bold-69" d="M 538 3500 
L 1656 3500 
L 1656 0 
L 538 0 
L 538 3500 
z
M 538 4863 
L 1656 4863 
L 1656 3950 
L 538 3950 
L 538 4863 
z
" transform="scale(0.015625)"/>
       <path id="DejaVuSans-Bold-63" d="M 3366 3391 
L 3366 2478 
Q 3138 2634 2908 2709 
Q 2678 2784 2431 2784 
Q 1963 2784 1702 2511 
Q 1441 2238 1441 1747 
Q 1441 1256 1702 982 
Q 1963 709 2431 709 
Q 2694 709 2930 787 
Q 3166 866 3366 1019 
L 3366 103 
Q 3103 6 2833 -42 
Q 2563 -91 2291 -91 
Q 1344 -91 809 395 
Q 275 881 275 1747 
Q 275 2613 809 3098 
Q 1344 3584 2291 3584 
Q 2566 3584 2833 3536 
Q 3100 3488 3366 3391 
z
" transform="scale(0.015625)"/>
       <path id="DejaVuSans-Bold-79" d="M 78 3500 
L 1197 3500 
L 2138 1125 
L 2938 3500 
L 4056 3500 
L 2584 -331 
Q 2363 -916 2067 -1148 
Q 1772 -1381 1288 -1381 
L 641 -1381 
L 641 -647 
L 991 -647 
Q 1275 -647 1404 -556 
Q 1534 -466 1606 -231 
L 1638 -134 
L 78 3500 
z
" transform="scale(0.015625)"/>
      </defs>
      <use xlink:href="#DejaVuSans-Bold-70"/>
      <use xlink:href="#DejaVuSans-Bold-6f" transform="translate(71.582031 0)"/>
      <use xlink:href="#DejaVuSans-Bold-6c" transform="translate(140.283203 0)"/>
      <use xlink:href="#DejaVuSans-Bold-69" transform="translate(174.560547 0)"/>
      <use xlink:href="#DejaVuSans-Bold-63" transform="translate(208.837891 0)"/>
      <use xlink:href="#DejaVuSans-Bold-79" transform="translate(268.115234 0)"/>
     </g>
    </g>
    <g clip-path="url(#p410c2d7608)">
     <!-- age -->
     <g transform="translate(367.597948 130.085572) scale(0.1 -0.1)">
      <defs>
       <path id="DejaVuSans-Bold-61" d="M 2106 1575 
Q 1756 1575 1579 1456 
Q 1403 1338 1403 1106 
Q 1403 894 1545 773 
Q 1688 653 1941 653 
Q 2256 653 2472 879 
Q 2688 1106 2688 1447 
L 2688 1575 
L 2106 1575 
z
M 3816 1997 
L 3816 0 
L 2688 0 
L 2688 519 
Q 2463 200 2181 54 
Q 1900 -91 1497 -91 
Q 953 -91 614 226 
Q 275 544 275 1050 
Q 275 1666 698 1953 
Q 1122 2241 2028 2241 
L 2688 2241 
L 2688 2328 
Q 2688 2594 2478 2717 
Q 2269 2841 1825 2841 
Q 1466 2841 1156 2769 
Q 847 2697 581 2553 
L 581 3406 
Q 941 3494 1303 3539 
Q 1666 3584 2028 3584 
Q 2975 3584 3395 3211 
Q 3816 2838 3816 1997 
z
" transform="scale(0.015625)"/>
       <path id="DejaVuSans-Bold-67" d="M 2919 594 
Q 2688 288 2409 144 
Q 2131 0 1766 0 
Q 1125 0 706 504 
Q 288 1009 288 1791 
Q 288 2575 706 3076 
Q 1125 3578 1766 3578 
Q 2131 3578 2409 3434 
Q 2688 3291 2919 2981 
L 2919 3500 
L 4044 3500 
L 4044 353 
Q 4044 -491 3511 -936 
Q 2978 -1381 1966 -1381 
Q 1638 -1381 1331 -1331 
Q 1025 -1281 716 -1178 
L 716 -306 
Q 1009 -475 1290 -558 
Q 1572 -641 1856 -641 
Q 2406 -641 2662 -400 
Q 2919 -159 2919 353 
L 2919 594 
z
M 2181 2772 
Q 1834 2772 1640 2515 
Q 1447 2259 1447 1791 
Q 1447 1309 1634 1061 
Q 1822 813 2181 813 
Q 2531 813 2725 1069 
Q 2919 1325 2919 1791 
Q 2919 2259 2725 2515 
Q 2531 2772 2181 2772 
z
" transform="scale(0.015625)"/>
       <path id="DejaVuSans-Bold-65" d="M 4031 1759 
L 4031 1441 
L 1416 1441 
Q 1456 1047 1700 850 
Q 1944 653 2381 653 
Q 2734 653 3104 758 
Q 3475 863 3866 1075 
L 3866 213 
Q 3469 63 3072 -14 
Q 2675 -91 2278 -91 
Q 1328 -91 801 392 
Q 275 875 275 1747 
Q 275 2603 792 3093 
Q 1309 3584 2216 3584 
Q 3041 3584 3536 3087 
Q 4031 2591 4031 1759 
z
M 2881 2131 
Q 2881 2450 2695 2645 
Q 2509 2841 2209 2841 
Q 1884 2841 1681 2658 
Q 1478 2475 1428 2131 
L 2881 2131 
z
" transform="scale(0.015625)"/>
      </defs>
      <use xlink:href="#DejaVuSans-Bold-61"/>
      <use xlink:href="#DejaVuSans-Bold-67" transform="translate(67.480469 0)"/>
      <use xlink:href="#DejaVuSans-Bold-65" transform="translate(139.0625 0)"/>
     </g>
    </g>
    <g clip-path="url(#p410c2d7608)">
     <!-- days -->
     <g transform="translate(364.910448 141.36151) scale(0.1 -0.1)">
      <defs>
       <path id="DejaVuSans-Bold-64" d="M 2919 2988 
L 2919 4863 
L 4044 4863 
L 4044 0 
L 2919 0 
L 2919 506 
Q 2688 197 2409 53 
Q 2131 -91 1766 -91 
Q 1119 -91 703 423 
Q 288 938 288 1747 
Q 288 2556 703 3070 
Q 1119 3584 1766 3584 
Q 2128 3584 2408 3439 
Q 2688 3294 2919 2988 
z
M 2181 722 
Q 2541 722 2730 984 
Q 2919 1247 2919 1747 
Q 2919 2247 2730 2509 
Q 2541 2772 2181 2772 
Q 1825 2772 1636 2509 
Q 1447 2247 1447 1747 
Q 1447 1247 1636 984 
Q 1825 722 2181 722 
z
" transform="scale(0.015625)"/>
       <path id="DejaVuSans-Bold-73" d="M 3272 3391 
L 3272 2541 
Q 2913 2691 2578 2766 
Q 2244 2841 1947 2841 
Q 1628 2841 1473 2761 
Q 1319 2681 1319 2516 
Q 1319 2381 1436 2309 
Q 1553 2238 1856 2203 
L 2053 2175 
Q 2913 2066 3209 1816 
Q 3506 1566 3506 1031 
Q 3506 472 3093 190 
Q 2681 -91 1863 -91 
Q 1516 -91 1145 -36 
Q 775 19 384 128 
L 384 978 
Q 719 816 1070 734 
Q 1422 653 1784 653 
Q 2113 653 2278 743 
Q 2444 834 2444 1013 
Q 2444 1163 2330 1236 
Q 2216 1309 1875 1350 
L 1678 1375 
Q 931 1469 631 1722 
Q 331 1975 331 2491 
Q 331 3047 712 3315 
Q 1094 3584 1881 3584 
Q 2191 3584 2531 3537 
Q 2872 3491 3272 3391 
z
" transform="scale(0.015625)"/>
      </defs>
      <use xlink:href="#DejaVuSans-Bold-64"/>
      <use xlink:href="#DejaVuSans-Bold-61" transform="translate(71.582031 0)"/>
      <use xlink:href="#DejaVuSans-Bold-79" transform="translate(135.9375 0)"/>
      <use xlink:href="#DejaVuSans-Bold-73" transform="translate(201.123047 0)"/>
     </g>
    </g>
   </g>
   <g id="text_2">
    <g clip-path="url(#p410c2d7608)">
     <!-- fraud -->
     <g transform="translate(231.086875 312.062918) scale(0.1 -0.1)">
      <defs>
       <path id="DejaVuSans-Bold-66" d="M 2841 4863 
L 2841 4128 
L 2222 4128 
Q 1984 4128 1890 4042 
Q 1797 3956 1797 3744 
L 1797 3500 
L 2753 3500 
L 2753 2700 
L 1797 2700 
L 1797 0 
L 678 0 
L 678 2700 
L 122 2700 
L 122 3500 
L 678 3500 
L 678 3744 
Q 678 4316 997 4589 
Q 1316 4863 1984 4863 
L 2841 4863 
z
" transform="scale(0.015625)"/>
       <path id="DejaVuSans-Bold-72" d="M 3138 2547 
Q 2991 2616 2845 2648 
Q 2700 2681 2553 2681 
Q 2122 2681 1889 2404 
Q 1656 2128 1656 1613 
L 1656 0 
L 538 0 
L 538 3500 
L 1656 3500 
L 1656 2925 
Q 1872 3269 2151 3426 
Q 2431 3584 2822 3584 
Q 2878 3584 2943 3579 
Q 3009 3575 3134 3559 
L 3138 2547 
z
" transform="scale(0.015625)"/>
       <path id="DejaVuSans-Bold-75" d="M 500 1363 
L 500 3500 
L 1625 3500 
L 1625 3150 
Q 1625 2866 1622 2436 
Q 1619 2006 1619 1863 
Q 1619 1441 1641 1255 
Q 1663 1069 1716 984 
Q 1784 875 1895 815 
Q 2006 756 2150 756 
Q 2500 756 2700 1025 
Q 2900 1294 2900 1772 
L 2900 3500 
L 4019 3500 
L 4019 0 
L 2900 0 
L 2900 506 
Q 2647 200 2364 54 
Q 2081 -91 1741 -91 
Q 1134 -91 817 281 
Q 500 653 500 1363 
z
" transform="scale(0.015625)"/>
      </defs>
      <use xlink:href="#DejaVuSans-Bold-66"/>
      <use xlink:href="#DejaVuSans-Bold-72" transform="translate(43.505859 0)"/>
      <use xlink:href="#DejaVuSans-Bold-61" transform="translate(92.822266 0)"/>
      <use xlink:href="#DejaVuSans-Bold-75" transform="translate(160.302734 0)"/>
      <use xlink:href="#DejaVuSans-Bold-64" transform="translate(231.494141 0)"/>
     </g>
    </g>
    <g clip-path="url(#p410c2d7608)">
     <!-- reported -->
     <g transform="translate(221.543125 323.260731) scale(0.1 -0.1)">
      <defs>
       <path id="DejaVuSans-Bold-74" d="M 1759 4494 
L 1759 3500 
L 2913 3500 
L 2913 2700 
L 1759 2700 
L 1759 1216 
Q 1759 972 1856 886 
Q 1953 800 2241 800 
L 2816 800 
L 2816 0 
L 1856 0 
Q 1194 0 917 276 
Q 641 553 641 1216 
L 641 2700 
L 84 2700 
L 84 3500 
L 641 3500 
L 641 4494 
L 1759 4494 
z
" transform="scale(0.015625)"/>
      </defs>
      <use xlink:href="#DejaVuSans-Bold-72"/>
      <use xlink:href="#DejaVuSans-Bold-65" transform="translate(49.316406 0)"/>
      <use xlink:href="#DejaVuSans-Bold-70" transform="translate(117.138672 0)"/>
      <use xlink:href="#DejaVuSans-Bold-6f" transform="translate(188.720703 0)"/>
      <use xlink:href="#DejaVuSans-Bold-72" transform="translate(257.421875 0)"/>
      <use xlink:href="#DejaVuSans-Bold-74" transform="translate(306.738281 0)"/>
      <use xlink:href="#DejaVuSans-Bold-65" transform="translate(354.541016 0)"/>
      <use xlink:href="#DejaVuSans-Bold-64" transform="translate(422.363281 0)"/>
     </g>
    </g>
   </g>
   <g id="text_3">
    <g clip-path="url(#p410c2d7608)">
     <!-- policy -->
     <g transform="translate(229.574375 124.486666) scale(0.1 -0.1)">
      <use xlink:href="#DejaVuSans-Bold-70"/>
      <use xlink:href="#DejaVuSans-Bold-6f" transform="translate(71.582031 0)"/>
      <use xlink:href="#DejaVuSans-Bold-6c" transform="translate(140.283203 0)"/>
      <use xlink:href="#DejaVuSans-Bold-69" transform="translate(174.560547 0)"/>
      <use xlink:href="#DejaVuSans-Bold-63" transform="translate(208.837891 0)"/>
      <use xlink:href="#DejaVuSans-Bold-79" transform="translate(268.115234 0)"/>
     </g>
    </g>
    <g clip-path="url(#p410c2d7608)">
     <!-- deductable -->
     <g transform="translate(214.718906 135.762603) scale(0.1 -0.1)">
      <defs>
       <path id="DejaVuSans-Bold-62" d="M 2400 722 
Q 2759 722 2948 984 
Q 3138 1247 3138 1747 
Q 3138 2247 2948 2509 
Q 2759 2772 2400 2772 
Q 2041 2772 1848 2508 
Q 1656 2244 1656 1747 
Q 1656 1250 1848 986 
Q 2041 722 2400 722 
z
M 1656 2988 
Q 1888 3294 2169 3439 
Q 2450 3584 2816 3584 
Q 3463 3584 3878 3070 
Q 4294 2556 4294 1747 
Q 4294 938 3878 423 
Q 3463 -91 2816 -91 
Q 2450 -91 2169 54 
Q 1888 200 1656 506 
L 1656 0 
L 538 0 
L 538 4863 
L 1656 4863 
L 1656 2988 
z
" transform="scale(0.015625)"/>
      </defs>
      <use xlink:href="#DejaVuSans-Bold-64"/>
      <use xlink:href="#DejaVuSans-Bold-65" transform="translate(71.582031 0)"/>
      <use xlink:href="#DejaVuSans-Bold-64" transform="translate(139.404297 0)"/>
      <use xlink:href="#DejaVuSans-Bold-75" transform="translate(210.986328 0)"/>
      <use xlink:href="#DejaVuSans-Bold-63" transform="translate(282.177734 0)"/>
      <use xlink:href="#DejaVuSans-Bold-74" transform="translate(341.455078 0)"/>
      <use xlink:href="#DejaVuSans-Bold-61" transform="translate(389.257812 0)"/>
      <use xlink:href="#DejaVuSans-Bold-62" transform="translate(456.738281 0)"/>
      <use xlink:href="#DejaVuSans-Bold-6c" transform="translate(528.320312 0)"/>
      <use xlink:href="#DejaVuSans-Bold-65" transform="translate(562.597656 0)"/>
     </g>
    </g>
   </g>
   <g id="text_4">
    <g clip-path="url(#p410c2d7608)">
     <!-- umbrella -->
     <g transform="translate(89.529708 187.038125) scale(0.1 -0.1)">
      <defs>
       <path id="DejaVuSans-Bold-6d" d="M 3781 2919 
Q 3994 3244 4286 3414 
Q 4578 3584 4928 3584 
Q 5531 3584 5847 3212 
Q 6163 2841 6163 2131 
L 6163 0 
L 5038 0 
L 5038 1825 
Q 5041 1866 5042 1909 
Q 5044 1953 5044 2034 
Q 5044 2406 4934 2573 
Q 4825 2741 4581 2741 
Q 4263 2741 4089 2478 
Q 3916 2216 3909 1719 
L 3909 0 
L 2784 0 
L 2784 1825 
Q 2784 2406 2684 2573 
Q 2584 2741 2328 2741 
Q 2006 2741 1831 2477 
Q 1656 2213 1656 1722 
L 1656 0 
L 531 0 
L 531 3500 
L 1656 3500 
L 1656 2988 
Q 1863 3284 2130 3434 
Q 2397 3584 2719 3584 
Q 3081 3584 3359 3409 
Q 3638 3234 3781 2919 
z
" transform="scale(0.015625)"/>
      </defs>
      <use xlink:href="#DejaVuSans-Bold-75"/>
      <use xlink:href="#DejaVuSans-Bold-6d" transform="translate(71.191406 0)"/>
      <use xlink:href="#DejaVuSans-Bold-62" transform="translate(175.390625 0)"/>
      <use xlink:href="#DejaVuSans-Bold-72" transform="translate(246.972656 0)"/>
      <use xlink:href="#DejaVuSans-Bold-65" transform="translate(296.289062 0)"/>
      <use xlink:href="#DejaVuSans-Bold-6c" transform="translate(364.111328 0)"/>
      <use xlink:href="#DejaVuSans-Bold-6c" transform="translate(398.388672 0)"/>
      <use xlink:href="#DejaVuSans-Bold-61" transform="translate(432.666016 0)"/>
     </g>
    </g>
    <g clip-path="url(#p410c2d7608)">
     <!-- limit -->
     <g transform="translate(101.795333 198.235937) scale(0.1 -0.1)">
      <use xlink:href="#DejaVuSans-Bold-6c"/>
      <use xlink:href="#DejaVuSans-Bold-69" transform="translate(34.277344 0)"/>
      <use xlink:href="#DejaVuSans-Bold-6d" transform="translate(68.554688 0)"/>
      <use xlink:href="#DejaVuSans-Bold-69" transform="translate(172.753906 0)"/>
      <use xlink:href="#DejaVuSans-Bold-74" transform="translate(207.03125 0)"/>
     </g>
    </g>
   </g>
   <g id="text_5">
    <g clip-path="url(#p410c2d7608)">
     <!-- incident -->
     <g transform="translate(223.368906 186.999062) scale(0.1 -0.1)">
      <defs>
       <path id="DejaVuSans-Bold-6e" d="M 4056 2131 
L 4056 0 
L 2931 0 
L 2931 347 
L 2931 1631 
Q 2931 2084 2911 2256 
Q 2891 2428 2841 2509 
Q 2775 2619 2662 2680 
Q 2550 2741 2406 2741 
Q 2056 2741 1856 2470 
Q 1656 2200 1656 1722 
L 1656 0 
L 538 0 
L 538 3500 
L 1656 3500 
L 1656 2988 
Q 1909 3294 2193 3439 
Q 2478 3584 2822 3584 
Q 3428 3584 3742 3212 
Q 4056 2841 4056 2131 
z
" transform="scale(0.015625)"/>
      </defs>
      <use xlink:href="#DejaVuSans-Bold-69"/>
      <use xlink:href="#DejaVuSans-Bold-6e" transform="translate(34.277344 0)"/>
      <use xlink:href="#DejaVuSans-Bold-63" transform="translate(105.46875 0)"/>
      <use xlink:href="#DejaVuSans-Bold-69" transform="translate(164.746094 0)"/>
      <use xlink:href="#DejaVuSans-Bold-64" transform="translate(199.023438 0)"/>
      <use xlink:href="#DejaVuSans-Bold-65" transform="translate(270.605469 0)"/>
      <use xlink:href="#DejaVuSans-Bold-6e" transform="translate(338.427734 0)"/>
      <use xlink:href="#DejaVuSans-Bold-74" transform="translate(409.619141 0)"/>
     </g>
    </g>
    <g clip-path="url(#p410c2d7608)">
     <!-- severity -->
     <g transform="translate(223.393125 198.196875) scale(0.1 -0.1)">
      <defs>
       <path id="DejaVuSans-Bold-76" d="M 97 3500 
L 1216 3500 
L 2088 1081 
L 2956 3500 
L 4078 3500 
L 2700 0 
L 1472 0 
L 97 3500 
z
" transform="scale(0.015625)"/>
      </defs>
      <use xlink:href="#DejaVuSans-Bold-73"/>
      <use xlink:href="#DejaVuSans-Bold-65" transform="translate(59.521484 0)"/>
      <use xlink:href="#DejaVuSans-Bold-76" transform="translate(127.34375 0)"/>
      <use xlink:href="#DejaVuSans-Bold-65" transform="translate(192.529297 0)"/>
      <use xlink:href="#DejaVuSans-Bold-72" transform="translate(260.351562 0)"/>
      <use xlink:href="#DejaVuSans-Bold-69" transform="translate(309.667969 0)"/>
      <use xlink:href="#DejaVuSans-Bold-74" transform="translate(343.945312 0)"/>
      <use xlink:href="#DejaVuSans-Bold-79" transform="translate(391.748047 0)"/>
     </g>
    </g>
   </g>
   <g id="text_6">
    <g clip-path="url(#p410c2d7608)">
     <!-- total -->
     <g transform="translate(35.383156 243.951615) scale(0.1 -0.1)">
      <use xlink:href="#DejaVuSans-Bold-74"/>
      <use xlink:href="#DejaVuSans-Bold-6f" transform="translate(47.802734 0)"/>
      <use xlink:href="#DejaVuSans-Bold-74" transform="translate(116.503906 0)"/>
      <use xlink:href="#DejaVuSans-Bold-61" transform="translate(164.306641 0)"/>
      <use xlink:href="#DejaVuSans-Bold-6c" transform="translate(231.787109 0)"/>
     </g>
    </g>
    <g clip-path="url(#p410c2d7608)">
     <!-- claim -->
     <g transform="translate(33.709718 255.149428) scale(0.1 -0.1)">
      <use xlink:href="#DejaVuSans-Bold-63"/>
      <use xlink:href="#DejaVuSans-Bold-6c" transform="translate(59.277344 0)"/>
      <use xlink:href="#DejaVuSans-Bold-61" transform="translate(93.554688 0)"/>
      <use xlink:href="#DejaVuSans-Bold-69" transform="translate(161.035156 0)"/>
      <use xlink:href="#DejaVuSans-Bold-6d" transform="translate(195.3125 0)"/>
     </g>
    </g>
    <g clip-path="url(#p410c2d7608)">
     <!-- amount -->
     <g transform="translate(27.158156 266.34724) scale(0.1 -0.1)">
      <use xlink:href="#DejaVuSans-Bold-61"/>
      <use xlink:href="#DejaVuSans-Bold-6d" transform="translate(67.480469 0)"/>
      <use xlink:href="#DejaVuSans-Bold-6f" transform="translate(171.679688 0)"/>
      <use xlink:href="#DejaVuSans-Bold-75" transform="translate(240.380859 0)"/>
      <use xlink:href="#DejaVuSans-Bold-6e" transform="translate(311.572266 0)"/>
      <use xlink:href="#DejaVuSans-Bold-74" transform="translate(382.763672 0)"/>
     </g>
    </g>
   </g>
   <g id="text_7">
    <g clip-path="url(#p410c2d7608)">
     <!-- witnesses -->
     <g transform="translate(284.098271 255.149428) scale(0.1 -0.1)">
      <defs>
       <path id="DejaVuSans-Bold-77" d="M 225 3500 
L 1313 3500 
L 1900 1088 
L 2491 3500 
L 3425 3500 
L 4013 1113 
L 4603 3500 
L 5691 3500 
L 4769 0 
L 3547 0 
L 2956 2406 
L 2369 0 
L 1147 0 
L 225 3500 
z
" transform="scale(0.015625)"/>
      </defs>
      <use xlink:href="#DejaVuSans-Bold-77"/>
      <use xlink:href="#DejaVuSans-Bold-69" transform="translate(92.382812 0)"/>
      <use xlink:href="#DejaVuSans-Bold-74" transform="translate(126.660156 0)"/>
      <use xlink:href="#DejaVuSans-Bold-6e" transform="translate(174.462891 0)"/>
      <use xlink:href="#DejaVuSans-Bold-65" transform="translate(245.654297 0)"/>
      <use xlink:href="#DejaVuSans-Bold-73" transform="translate(313.476562 0)"/>
      <use xlink:href="#DejaVuSans-Bold-73" transform="translate(372.998047 0)"/>
      <use xlink:href="#DejaVuSans-Bold-65" transform="translate(432.519531 0)"/>
      <use xlink:href="#DejaVuSans-Bold-73" transform="translate(500.341797 0)"/>
     </g>
    </g>
   </g>
   <g id="text_8">
    <g clip-path="url(#p410c2d7608)">
     <!-- police -->
     <g transform="translate(426.996063 243.951615) scale(0.1 -0.1)">
      <use xlink:href="#DejaVuSans-Bold-70"/>
      <use xlink:href="#DejaVuSans-Bold-6f" transform="translate(71.582031 0)"/>
      <use xlink:href="#DejaVuSans-Bold-6c" transform="translate(140.283203 0)"/>
      <use xlink:href="#DejaVuSans-Bold-69" transform="translate(174.560547 0)"/>
      <use xlink:href="#DejaVuSans-Bold-63" transform="translate(208.837891 0)"/>
      <use xlink:href="#DejaVuSans-Bold-65" transform="translate(268.115234 0)"/>
     </g>
    </g>
    <g clip-path="url(#p410c2d7608)">
     <!-- report -->
     <g transform="translate(426.067157 255.149428) scale(0.1 -0.1)">
      <use xlink:href="#DejaVuSans-Bold-72"/>
      <use xlink:href="#DejaVuSans-Bold-65" transform="translate(49.316406 0)"/>
      <use xlink:href="#DejaVuSans-Bold-70" transform="translate(117.138672 0)"/>
      <use xlink:href="#DejaVuSans-Bold-6f" transform="translate(188.720703 0)"/>
      <use xlink:href="#DejaVuSans-Bold-72" transform="translate(257.421875 0)"/>
      <use xlink:href="#DejaVuSans-Bold-74" transform="translate(306.738281 0)"/>
     </g>
    </g>
    <g clip-path="url(#p410c2d7608)">
     <!-- available -->
     <g transform="translate(418.299188 266.34724) scale(0.1 -0.1)">
      <use xlink:href="#DejaVuSans-Bold-61"/>
      <use xlink:href="#DejaVuSans-Bold-76" transform="translate(67.480469 0)"/>
      <use xlink:href="#DejaVuSans-Bold-61" transform="translate(132.666016 0)"/>
      <use xlink:href="#DejaVuSans-Bold-69" transform="translate(200.146484 0)"/>
      <use xlink:href="#DejaVuSans-Bold-6c" transform="translate(234.423828 0)"/>
      <use xlink:href="#DejaVuSans-Bold-61" transform="translate(268.701172 0)"/>
      <use xlink:href="#DejaVuSans-Bold-62" transform="translate(336.181641 0)"/>
      <use xlink:href="#DejaVuSans-Bold-6c" transform="translate(407.763672 0)"/>
      <use xlink:href="#DejaVuSans-Bold-65" transform="translate(442.041016 0)"/>
     </g>
    </g>
   </g>
   <g id="text_9">
    <g clip-path="url(#p410c2d7608)">
     <!-- bodily -->
     <g transform="translate(163.108292 249.472397) scale(0.1 -0.1)">
      <use xlink:href="#DejaVuSans-Bold-62"/>
      <use xlink:href="#DejaVuSans-Bold-6f" transform="translate(71.582031 0)"/>
      <use xlink:href="#DejaVuSans-Bold-64" transform="translate(140.283203 0)"/>
      <use xlink:href="#DejaVuSans-Bold-69" transform="translate(211.865234 0)"/>
      <use xlink:href="#DejaVuSans-Bold-6c" transform="translate(246.142578 0)"/>
      <use xlink:href="#DejaVuSans-Bold-79" transform="translate(280.419922 0)"/>
     </g>
    </g>
    <g clip-path="url(#p410c2d7608)">
     <!-- injuries -->
     <g transform="translate(159.29501 260.748334) scale(0.1 -0.1)">
      <defs>
       <path id="DejaVuSans-Bold-6a" d="M 538 3500 
L 1656 3500 
L 1656 63 
Q 1656 -641 1318 -1011 
Q 981 -1381 341 -1381 
L -213 -1381 
L -213 -647 
L -19 -647 
Q 300 -647 419 -503 
Q 538 -359 538 63 
L 538 3500 
z
M 538 4863 
L 1656 4863 
L 1656 3950 
L 538 3950 
L 538 4863 
z
" transform="scale(0.015625)"/>
      </defs>
      <use xlink:href="#DejaVuSans-Bold-69"/>
      <use xlink:href="#DejaVuSans-Bold-6e" transform="translate(34.277344 0)"/>
      <use xlink:href="#DejaVuSans-Bold-6a" transform="translate(105.46875 0)"/>
      <use xlink:href="#DejaVuSans-Bold-75" transform="translate(139.746094 0)"/>
      <use xlink:href="#DejaVuSans-Bold-72" transform="translate(210.9375 0)"/>
      <use xlink:href="#DejaVuSans-Bold-69" transform="translate(260.253906 0)"/>
      <use xlink:href="#DejaVuSans-Bold-65" transform="translate(294.53125 0)"/>
      <use xlink:href="#DejaVuSans-Bold-73" transform="translate(362.353516 0)"/>
     </g>
    </g>
   </g>
   <g id="text_10">
    <g clip-path="url(#p410c2d7608)">
     <!-- number -->
     <g transform="translate(356.177636 181.439219) scale(0.1 -0.1)">
      <use xlink:href="#DejaVuSans-Bold-6e"/>
      <use xlink:href="#DejaVuSans-Bold-75" transform="translate(71.191406 0)"/>
      <use xlink:href="#DejaVuSans-Bold-6d" transform="translate(142.382812 0)"/>
      <use xlink:href="#DejaVuSans-Bold-62" transform="translate(246.582031 0)"/>
      <use xlink:href="#DejaVuSans-Bold-65" transform="translate(318.164062 0)"/>
      <use xlink:href="#DejaVuSans-Bold-72" transform="translate(385.986328 0)"/>
     </g>
    </g>
    <g clip-path="url(#p410c2d7608)">
     <!-- of -->
     <g transform="translate(372.332323 192.637031) scale(0.1 -0.1)">
      <use xlink:href="#DejaVuSans-Bold-6f"/>
      <use xlink:href="#DejaVuSans-Bold-66" transform="translate(68.701172 0)"/>
     </g>
    </g>
    <g clip-path="url(#p410c2d7608)">
     <!-- vehicles -->
     <g transform="translate(354.972948 203.834844) scale(0.1 -0.1)">
      <defs>
       <path id="DejaVuSans-Bold-68" d="M 4056 2131 
L 4056 0 
L 2931 0 
L 2931 347 
L 2931 1625 
Q 2931 2084 2911 2256 
Q 2891 2428 2841 2509 
Q 2775 2619 2662 2680 
Q 2550 2741 2406 2741 
Q 2056 2741 1856 2470 
Q 1656 2200 1656 1722 
L 1656 0 
L 538 0 
L 538 4863 
L 1656 4863 
L 1656 2988 
Q 1909 3294 2193 3439 
Q 2478 3584 2822 3584 
Q 3428 3584 3742 3212 
Q 4056 2841 4056 2131 
z
" transform="scale(0.015625)"/>
      </defs>
      <use xlink:href="#DejaVuSans-Bold-76"/>
      <use xlink:href="#DejaVuSans-Bold-65" transform="translate(65.185547 0)"/>
      <use xlink:href="#DejaVuSans-Bold-68" transform="translate(133.007812 0)"/>
      <use xlink:href="#DejaVuSans-Bold-69" transform="translate(204.199219 0)"/>
      <use xlink:href="#DejaVuSans-Bold-63" transform="translate(238.476562 0)"/>
      <use xlink:href="#DejaVuSans-Bold-6c" transform="translate(297.753906 0)"/>
      <use xlink:href="#DejaVuSans-Bold-65" transform="translate(332.03125 0)"/>
      <use xlink:href="#DejaVuSans-Bold-73" transform="translate(399.853516 0)"/>
     </g>
    </g>
   </g>
   <g id="text_11">
    <g clip-path="url(#p410c2d7608)">
     <!-- insured -->
     <g transform="translate(224.995469 62.013332) scale(0.1 -0.1)">
      <use xlink:href="#DejaVuSans-Bold-69"/>
      <use xlink:href="#DejaVuSans-Bold-6e" transform="translate(34.277344 0)"/>
      <use xlink:href="#DejaVuSans-Bold-73" transform="translate(105.46875 0)"/>
      <use xlink:href="#DejaVuSans-Bold-75" transform="translate(164.990234 0)"/>
      <use xlink:href="#DejaVuSans-Bold-72" transform="translate(236.181641 0)"/>
      <use xlink:href="#DejaVuSans-Bold-65" transform="translate(285.498047 0)"/>
      <use xlink:href="#DejaVuSans-Bold-64" transform="translate(353.320312 0)"/>
     </g>
    </g>
    <g clip-path="url(#p410c2d7608)">
     <!-- occupation -->
     <g transform="translate(215.265781 73.211144) scale(0.1 -0.1)">
      <use xlink:href="#DejaVuSans-Bold-6f"/>
      <use xlink:href="#DejaVuSans-Bold-63" transform="translate(68.701172 0)"/>
      <use xlink:href="#DejaVuSans-Bold-63" transform="translate(127.978516 0)"/>
      <use xlink:href="#DejaVuSans-Bold-75" transform="translate(187.255859 0)"/>
      <use xlink:href="#DejaVuSans-Bold-70" transform="translate(258.447266 0)"/>
      <use xlink:href="#DejaVuSans-Bold-61" transform="translate(330.029297 0)"/>
      <use xlink:href="#DejaVuSans-Bold-74" transform="translate(397.509766 0)"/>
      <use xlink:href="#DejaVuSans-Bold-69" transform="translate(445.3125 0)"/>
      <use xlink:href="#DejaVuSans-Bold-6f" transform="translate(479.589844 0)"/>
      <use xlink:href="#DejaVuSans-Bold-6e" transform="translate(548.291016 0)"/>
     </g>
    </g>
   </g>
   <g id="text_12">
    <g clip-path="url(#p410c2d7608)">
     <!-- policy -->
     <g transform="translate(97.871896 118.88776) scale(0.1 -0.1)">
      <use xlink:href="#DejaVuSans-Bold-70"/>
      <use xlink:href="#DejaVuSans-Bold-6f" transform="translate(71.582031 0)"/>
      <use xlink:href="#DejaVuSans-Bold-6c" transform="translate(140.283203 0)"/>
      <use xlink:href="#DejaVuSans-Bold-69" transform="translate(174.560547 0)"/>
      <use xlink:href="#DejaVuSans-Bold-63" transform="translate(208.837891 0)"/>
      <use xlink:href="#DejaVuSans-Bold-79" transform="translate(268.115234 0)"/>
     </g>
    </g>
    <g clip-path="url(#p410c2d7608)">
     <!-- annual -->
     <g transform="translate(95.396896 130.163697) scale(0.1 -0.1)">
      <use xlink:href="#DejaVuSans-Bold-61"/>
      <use xlink:href="#DejaVuSans-Bold-6e" transform="translate(67.480469 0)"/>
      <use xlink:href="#DejaVuSans-Bold-6e" transform="translate(138.671875 0)"/>
      <use xlink:href="#DejaVuSans-Bold-75" transform="translate(209.863281 0)"/>
      <use xlink:href="#DejaVuSans-Bold-61" transform="translate(281.054688 0)"/>
      <use xlink:href="#DejaVuSans-Bold-6c" transform="translate(348.535156 0)"/>
     </g>
    </g>
    <g clip-path="url(#p410c2d7608)">
     <!-- premium -->
     <g transform="translate(89.407833 141.36151) scale(0.1 -0.1)">
      <use xlink:href="#DejaVuSans-Bold-70"/>
      <use xlink:href="#DejaVuSans-Bold-72" transform="translate(71.582031 0)"/>
      <use xlink:href="#DejaVuSans-Bold-65" transform="translate(120.898438 0)"/>
      <use xlink:href="#DejaVuSans-Bold-6d" transform="translate(188.720703 0)"/>
      <use xlink:href="#DejaVuSans-Bold-69" transform="translate(292.919922 0)"/>
      <use xlink:href="#DejaVuSans-Bold-75" transform="translate(327.197266 0)"/>
      <use xlink:href="#DejaVuSans-Bold-6d" transform="translate(398.388672 0)"/>
     </g>
    </g>
   </g>
   <g id="text_13">
    <!-- Hypothesised Causal DAG for Insurance Fraud -->
    <g transform="translate(51.556406 18.597656) scale(0.15 -0.15)">
     <defs>
      <path id="DejaVuSans-Bold-48" d="M 588 4666 
L 1791 4666 
L 1791 2888 
L 3566 2888 
L 3566 4666 
L 4769 4666 
L 4769 0 
L 3566 0 
L 3566 1978 
L 1791 1978 
L 1791 0 
L 588 0 
L 588 4666 
z
" transform="scale(0.015625)"/>
      <path id="DejaVuSans-Bold-20" transform="scale(0.015625)"/>
      <path id="DejaVuSans-Bold-43" d="M 4288 256 
Q 3956 84 3597 -3 
Q 3238 -91 2847 -91 
Q 1681 -91 1000 561 
Q 319 1213 319 2328 
Q 319 3447 1000 4098 
Q 1681 4750 2847 4750 
Q 3238 4750 3597 4662 
Q 3956 4575 4288 4403 
L 4288 3438 
Q 3953 3666 3628 3772 
Q 3303 3878 2944 3878 
Q 2300 3878 1931 3465 
Q 1563 3053 1563 2328 
Q 1563 1606 1931 1193 
Q 2300 781 2944 781 
Q 3303 781 3628 887 
Q 3953 994 4288 1222 
L 4288 256 
z
" transform="scale(0.015625)"/>
      <path id="DejaVuSans-Bold-44" d="M 1791 3756 
L 1791 909 
L 2222 909 
Q 2959 909 3348 1275 
Q 3738 1641 3738 2338 
Q 3738 3031 3350 3393 
Q 2963 3756 2222 3756 
L 1791 3756 
z
M 588 4666 
L 1856 4666 
Q 2919 4666 3439 4514 
Q 3959 4363 4331 4000 
Q 4659 3684 4818 3271 
Q 4978 2859 4978 2338 
Q 4978 1809 4818 1395 
Q 4659 981 4331 666 
Q 3956 303 3431 151 
Q 2906 0 1856 0 
L 588 0 
L 588 4666 
z
" transform="scale(0.015625)"/>
      <path id="DejaVuSans-Bold-41" d="M 3419 850 
L 1538 850 
L 1241 0 
L 31 0 
L 1759 4666 
L 3194 4666 
L 4922 0 
L 3713 0 
L 3419 850 
z
M 1838 1716 
L 3116 1716 
L 2478 3572 
L 1838 1716 
z
" transform="scale(0.015625)"/>
      <path id="DejaVuSans-Bold-47" d="M 4781 347 
Q 4331 128 3847 18 
Q 3363 -91 2847 -91 
Q 1681 -91 1000 561 
Q 319 1213 319 2328 
Q 319 3456 1012 4103 
Q 1706 4750 2913 4750 
Q 3378 4750 3804 4662 
Q 4231 4575 4609 4403 
L 4609 3438 
Q 4219 3659 3833 3768 
Q 3447 3878 3059 3878 
Q 2341 3878 1952 3476 
Q 1563 3075 1563 2328 
Q 1563 1588 1938 1184 
Q 2313 781 3003 781 
Q 3191 781 3352 804 
Q 3513 828 3641 878 
L 3641 1784 
L 2906 1784 
L 2906 2591 
L 4781 2591 
L 4781 347 
z
" transform="scale(0.015625)"/>
      <path id="DejaVuSans-Bold-49" d="M 588 4666 
L 1791 4666 
L 1791 0 
L 588 0 
L 588 4666 
z
" transform="scale(0.015625)"/>
      <path id="DejaVuSans-Bold-46" d="M 588 4666 
L 3834 4666 
L 3834 3756 
L 1791 3756 
L 1791 2888 
L 3713 2888 
L 3713 1978 
L 1791 1978 
L 1791 0 
L 588 0 
L 588 4666 
z
" transform="scale(0.015625)"/>
     </defs>
     <use xlink:href="#DejaVuSans-Bold-48"/>
     <use xlink:href="#DejaVuSans-Bold-79" transform="translate(83.691406 0)"/>
     <use xlink:href="#DejaVuSans-Bold-70" transform="translate(148.876953 0)"/>
     <use xlink:href="#DejaVuSans-Bold-6f" transform="translate(220.458984 0)"/>
     <use xlink:href="#DejaVuSans-Bold-74" transform="translate(289.160156 0)"/>
     <use xlink:href="#DejaVuSans-Bold-68" transform="translate(336.962891 0)"/>
     <use xlink:href="#DejaVuSans-Bold-65" transform="translate(408.154297 0)"/>
     <use xlink:href="#DejaVuSans-Bold-73" transform="translate(475.976562 0)"/>
     <use xlink:href="#DejaVuSans-Bold-69" transform="translate(535.498047 0)"/>
     <use xlink:href="#DejaVuSans-Bold-73" transform="translate(569.775391 0)"/>
     <use xlink:href="#DejaVuSans-Bold-65" transform="translate(629.296875 0)"/>
     <use xlink:href="#DejaVuSans-Bold-64" transform="translate(697.119141 0)"/>
     <use xlink:href="#DejaVuSans-Bold-20" transform="translate(768.701172 0)"/>
     <use xlink:href="#DejaVuSans-Bold-43" transform="translate(803.515625 0)"/>
     <use xlink:href="#DejaVuSans-Bold-61" transform="translate(876.904297 0)"/>
     <use xlink:href="#DejaVuSans-Bold-75" transform="translate(944.384766 0)"/>
     <use xlink:href="#DejaVuSans-Bold-73" transform="translate(1015.576172 0)"/>
     <use xlink:href="#DejaVuSans-Bold-61" transform="translate(1075.097656 0)"/>
     <use xlink:href="#DejaVuSans-Bold-6c" transform="translate(1142.578125 0)"/>
     <use xlink:href="#DejaVuSans-Bold-20" transform="translate(1176.855469 0)"/>
     <use xlink:href="#DejaVuSans-Bold-44" transform="translate(1211.669922 0)"/>
     <use xlink:href="#DejaVuSans-Bold-41" transform="translate(1294.677734 0)"/>
     <use xlink:href="#DejaVuSans-Bold-47" transform="translate(1372.070312 0)"/>
     <use xlink:href="#DejaVuSans-Bold-20" transform="translate(1454.150391 0)"/>
     <use xlink:href="#DejaVuSans-Bold-66" transform="translate(1488.964844 0)"/>
     <use xlink:href="#DejaVuSans-Bold-6f" transform="translate(1532.470703 0)"/>
     <use xlink:href="#DejaVuSans-Bold-72" transform="translate(1601.171875 0)"/>
     <use xlink:href="#DejaVuSans-Bold-20" transform="translate(1650.488281 0)"/>
     <use xlink:href="#DejaVuSans-Bold-49" transform="translate(1685.302734 0)"/>
     <use xlink:href="#DejaVuSans-Bold-6e" transform="translate(1722.509766 0)"/>
     <use xlink:href="#DejaVuSans-Bold-73" transform="translate(1793.701172 0)"/>
     <use xlink:href="#DejaVuSans-Bold-75" transform="translate(1853.222656 0)"/>
     <use xlink:href="#DejaVuSans-Bold-72" transform="translate(1924.414062 0)"/>
     <use xlink:href="#DejaVuSans-Bold-61" transform="translate(1973.730469 0)"/>
     <use xlink:href="#DejaVuSans-Bold-6e" transform="translate(2041.210938 0)"/>
     <use xlink:href="#DejaVuSans-Bold-63" transform="translate(2112.402344 0)"/>
     <use xlink:href="#DejaVuSans-Bold-65" transform="translate(2171.679688 0)"/>
     <use xlink:href="#DejaVuSans-Bold-20" transform="translate(2239.501953 0)"/>
     <use xlink:href="#DejaVuSans-Bold-46" transform="translate(2274.316406 0)"/>
     <use xlink:href="#DejaVuSans-Bold-72" transform="translate(2336.251953 0)"/>
     <use xlink:href="#DejaVuSans-Bold-61" transform="translate(2385.568359 0)"/>
     <use xlink:href="#DejaVuSans-Bold-75" transform="translate(2453.048828 0)"/>
     <use xlink:href="#DejaVuSans-Bold-64" transform="translate(2524.240234 0)"/>
    </g>
   </g>
  </g>
 </g>
 <defs>
  <clipPath id="p410c2d7608">
   <rect x="7.2" y="38.597656" width="478.08" height="302.56"/>
  </clipPath>
 </defs>
</svg>
