<?xml version="1.0" encoding="utf-8" standalone="no"?>
<!DOCTYPE svg PUBLIC "-//W3C//DTD SVG 1.1//EN"
  "http://www.w3.org/Graphics/SVG/1.1/DTD/svg11.dtd">
<svg xmlns:xlink="http://www.w3.org/1999/xlink" width="924.270312pt" height="366.915312pt" viewBox="0 0 924.270312 366.915312" xmlns="http://www.w3.org/2000/svg" version="1.1">
 <metadata>
  <rdf:RDF xmlns:dc="http://purl.org/dc/elements/1.1/" xmlns:cc="http://creativecommons.org/ns#" xmlns:rdf="http://www.w3.org/1999/02/22-rdf-syntax-ns#">
   <cc:Work>
    <dc:type rdf:resource="http://purl.org/dc/dcmitype/StillImage"/>
    <dc:date>2026-03-20T22:00:51.894278</dc:date>
    <dc:format>image/svg+xml</dc:format>
    <dc:creator>
     <cc:Agent>
      <dc:title>Matplotlib v3.10.8, https://matplotlib.org/</dc:title>
     </cc:Agent>
    </dc:creator>
   </cc:Work>
  </rdf:RDF>
 </metadata>
 <defs>
  <style type="text/css">*{stroke-linejoin: round; stroke-linecap: butt}</style>
 </defs>
 <g id="figure_1">
  <g id="patch_1">
   <path d="M 0 366.915312 
L 924.270312 366.915312 
L 924.270312 0 
L 0 0 
z
" style="fill: #ffffff"/>
  </g>
  <g id="axes_1">
   <g id="patch_2">
    <path d="M 57.500313 324.52 
L 451.770313 324.52 
L 451.770313 72.24 
L 57.500313 72.24 
z
" style="fill: #ffffff"/>
   </g>
   <g id="matplotlib.axis_1">
    <g id="xtick_1">
     <g id="line2d_1">
      <path d="M 64.869845 324.52 
L 64.869845 72.24 
" clip-path="url(#pd3a87ba3d1)" style="fill: none; stroke-dasharray: 2.96,1.28; stroke-dashoffset: 0; stroke: #b0b0b0; stroke-opacity: 0.25; stroke-width: 0.8"/>
     </g>
     <g id="line2d_2">
      <defs>
       <path id="m3d3bf9a5ba" d="M 0 0 
L 0 3.5 
" style="stroke: #000000; stroke-width: 0.8"/>
      </defs>
      <g>
       <use xlink:href="#m3d3bf9a5ba" x="64.869845" y="324.52" style="stroke: #000000; stroke-width: 0.8"/>
      </g>
     </g>
     <g id="text_1">
      <!-- 0.0 -->
      <g transform="translate(55.32797 340.638125) scale(0.12 -0.12)">
       <defs>
        <path id="DejaVuSans-30" d="M 2034 4250 
Q 1547 4250 1301 3770 
Q 1056 3291 1056 2328 
Q 1056 1369 1301 889 
Q 1547 409 2034 409 
Q 2525 409 2770 889 
Q 3016 1369 3016 2328 
Q 3016 3291 2770 3770 
Q 2525 4250 2034 4250 
z
M 2034 4750 
Q 2819 4750 3233 4129 
Q 3647 3509 3647 2328 
Q 3647 1150 3233 529 
Q 2819 -91 2034 -91 
Q 1250 -91 836 529 
Q 422 1150 422 2328 
Q 422 3509 836 4129 
Q 1250 4750 2034 4750 
z
" transform="scale(0.015625)"/>
        <path id="DejaVuSans-2e" d="M 684 794 
L 1344 794 
L 1344 0 
L 684 0 
L 684 794 
z
" transform="scale(0.015625)"/>
       </defs>
       <use xlink:href="#DejaVuSans-30"/>
       <use xlink:href="#DejaVuSans-2e" transform="translate(63.623047 0)"/>
       <use xlink:href="#DejaVuSans-30" transform="translate(95.410156 0)"/>
      </g>
     </g>
    </g>
    <g id="xtick_2">
     <g id="line2d_3">
      <path d="M 138.565172 324.52 
L 138.565172 72.24 
" clip-path="url(#pd3a87ba3d1)" style="fill: none; stroke-dasharray: 2.96,1.28; stroke-dashoffset: 0; stroke: #b0b0b0; stroke-opacity: 0.25; stroke-width: 0.8"/>
     </g>
     <g id="line2d_4">
      <g>
       <use xlink:href="#m3d3bf9a5ba" x="138.565172" y="324.52" style="stroke: #000000; stroke-width: 0.8"/>
      </g>
     </g>
     <g id="text_2">
      <!-- 0.2 -->
      <g transform="translate(129.023297 340.638125) scale(0.12 -0.12)">
       <defs>
        <path id="DejaVuSans-32" d="M 1228 531 
L 3431 531 
L 3431 0 
L 469 0 
L 469 531 
Q 828 903 1448 1529 
Q 2069 2156 2228 2338 
Q 2531 2678 2651 2914 
Q 2772 3150 2772 3378 
Q 2772 3750 2511 3984 
Q 2250 4219 1831 4219 
Q 1534 4219 1204 4116 
Q 875 4013 500 3803 
L 500 4441 
Q 881 4594 1212 4672 
Q 1544 4750 1819 4750 
Q 2544 4750 2975 4387 
Q 3406 4025 3406 3419 
Q 3406 3131 3298 2873 
Q 3191 2616 2906 2266 
Q 2828 2175 2409 1742 
Q 1991 1309 1228 531 
z
" transform="scale(0.015625)"/>
       </defs>
       <use xlink:href="#DejaVuSans-30"/>
       <use xlink:href="#DejaVuSans-2e" transform="translate(63.623047 0)"/>
       <use xlink:href="#DejaVuSans-32" transform="translate(95.410156 0)"/>
      </g>
     </g>
    </g>
    <g id="xtick_3">
     <g id="line2d_5">
      <path d="M 212.260499 324.52 
L 212.260499 72.24 
" clip-path="url(#pd3a87ba3d1)" style="fill: none; stroke-dasharray: 2.96,1.28; stroke-dashoffset: 0; stroke: #b0b0b0; stroke-opacity: 0.25; stroke-width: 0.8"/>
     </g>
     <g id="line2d_6">
      <g>
       <use xlink:href="#m3d3bf9a5ba" x="212.260499" y="324.52" style="stroke: #000000; stroke-width: 0.8"/>
      </g>
     </g>
     <g id="text_3">
      <!-- 0.4 -->
      <g transform="translate(202.718624 340.638125) scale(0.12 -0.12)">
       <defs>
        <path id="DejaVuSans-34" d="M 2419 4116 
L 825 1625 
L 2419 1625 
L 2419 4116 
z
M 2253 4666 
L 3047 4666 
L 3047 1625 
L 3713 1625 
L 3713 1100 
L 3047 1100 
L 3047 0 
L 2419 0 
L 2419 1100 
L 313 1100 
L 313 1709 
L 2253 4666 
z
" transform="scale(0.015625)"/>
       </defs>
       <use xlink:href="#DejaVuSans-30"/>
       <use xlink:href="#DejaVuSans-2e" transform="translate(63.623047 0)"/>
       <use xlink:href="#DejaVuSans-34" transform="translate(95.410156 0)"/>
      </g>
     </g>
    </g>
    <g id="xtick_4">
     <g id="line2d_7">
      <path d="M 285.955827 324.52 
L 285.955827 72.24 
" clip-path="url(#pd3a87ba3d1)" style="fill: none; stroke-dasharray: 2.96,1.28; stroke-dashoffset: 0; stroke: #b0b0b0; stroke-opacity: 0.25; stroke-width: 0.8"/>
     </g>
     <g id="line2d_8">
      <g>
       <use xlink:href="#m3d3bf9a5ba" x="285.955827" y="324.52" style="stroke: #000000; stroke-width: 0.8"/>
      </g>
     </g>
     <g id="text_4">
      <!-- 0.6 -->
      <g transform="translate(276.413952 340.638125) scale(0.12 -0.12)">
       <defs>
        <path id="DejaVuSans-36" d="M 2113 2584 
Q 1688 2584 1439 2293 
Q 1191 2003 1191 1497 
Q 1191 994 1439 701 
Q 1688 409 2113 409 
Q 2538 409 2786 701 
Q 3034 994 3034 1497 
Q 3034 2003 2786 2293 
Q 2538 2584 2113 2584 
z
M 3366 4563 
L 3366 3988 
Q 3128 4100 2886 4159 
Q 2644 4219 2406 4219 
Q 1781 4219 1451 3797 
Q 1122 3375 1075 2522 
Q 1259 2794 1537 2939 
Q 1816 3084 2150 3084 
Q 2853 3084 3261 2657 
Q 3669 2231 3669 1497 
Q 3669 778 3244 343 
Q 2819 -91 2113 -91 
Q 1303 -91 875 529 
Q 447 1150 447 2328 
Q 447 3434 972 4092 
Q 1497 4750 2381 4750 
Q 2619 4750 2861 4703 
Q 3103 4656 3366 4563 
z
" transform="scale(0.015625)"/>
       </defs>
       <use xlink:href="#DejaVuSans-30"/>
       <use xlink:href="#DejaVuSans-2e" transform="translate(63.623047 0)"/>
       <use xlink:href="#DejaVuSans-36" transform="translate(95.410156 0)"/>
      </g>
     </g>
    </g>
    <g id="xtick_5">
     <g id="line2d_9">
      <path d="M 359.651154 324.52 
L 359.651154 72.24 
" clip-path="url(#pd3a87ba3d1)" style="fill: none; stroke-dasharray: 2.96,1.28; stroke-dashoffset: 0; stroke: #b0b0b0; stroke-opacity: 0.25; stroke-width: 0.8"/>
     </g>
     <g id="line2d_10">
      <g>
       <use xlink:href="#m3d3bf9a5ba" x="359.651154" y="324.52" style="stroke: #000000; stroke-width: 0.8"/>
      </g>
     </g>
     <g id="text_5">
      <!-- 0.8 -->
      <g transform="translate(350.109279 340.638125) scale(0.12 -0.12)">
       <defs>
        <path id="DejaVuSans-38" d="M 2034 2216 
Q 1584 2216 1326 1975 
Q 1069 1734 1069 1313 
Q 1069 891 1326 650 
Q 1584 409 2034 409 
Q 2484 409 2743 651 
Q 3003 894 3003 1313 
Q 3003 1734 2745 1975 
Q 2488 2216 2034 2216 
z
M 1403 2484 
Q 997 2584 770 2862 
Q 544 3141 544 3541 
Q 544 4100 942 4425 
Q 1341 4750 2034 4750 
Q 2731 4750 3128 4425 
Q 3525 4100 3525 3541 
Q 3525 3141 3298 2862 
Q 3072 2584 2669 2484 
Q 3125 2378 3379 2068 
Q 3634 1759 3634 1313 
Q 3634 634 3220 271 
Q 2806 -91 2034 -91 
Q 1263 -91 848 271 
Q 434 634 434 1313 
Q 434 1759 690 2068 
Q 947 2378 1403 2484 
z
M 1172 3481 
Q 1172 3119 1398 2916 
Q 1625 2713 2034 2713 
Q 2441 2713 2670 2916 
Q 2900 3119 2900 3481 
Q 2900 3844 2670 4047 
Q 2441 4250 2034 4250 
Q 1625 4250 1398 4047 
Q 1172 3844 1172 3481 
z
" transform="scale(0.015625)"/>
       </defs>
       <use xlink:href="#DejaVuSans-30"/>
       <use xlink:href="#DejaVuSans-2e" transform="translate(63.623047 0)"/>
       <use xlink:href="#DejaVuSans-38" transform="translate(95.410156 0)"/>
      </g>
     </g>
    </g>
    <g id="xtick_6">
     <g id="line2d_11">
      <path d="M 433.346481 324.52 
L 433.346481 72.24 
" clip-path="url(#pd3a87ba3d1)" style="fill: none; stroke-dasharray: 2.96,1.28; stroke-dashoffset: 0; stroke: #b0b0b0; stroke-opacity: 0.25; stroke-width: 0.8"/>
     </g>
     <g id="line2d_12">
      <g>
       <use xlink:href="#m3d3bf9a5ba" x="433.346481" y="324.52" style="stroke: #000000; stroke-width: 0.8"/>
      </g>
     </g>
     <g id="text_6">
      <!-- 1.0 -->
      <g transform="translate(423.804606 340.638125) scale(0.12 -0.12)">
       <defs>
        <path id="DejaVuSans-31" d="M 794 531 
L 1825 531 
L 1825 4091 
L 703 3866 
L 703 4441 
L 1819 4666 
L 2450 4666 
L 2450 531 
L 3481 531 
L 3481 0 
L 794 0 
L 794 531 
z
" transform="scale(0.015625)"/>
       </defs>
       <use xlink:href="#DejaVuSans-31"/>
       <use xlink:href="#DejaVuSans-2e" transform="translate(63.623047 0)"/>
       <use xlink:href="#DejaVuSans-30" transform="translate(95.410156 0)"/>
      </g>
     </g>
    </g>
    <g id="text_7">
     <!-- Coverage (fraction decided by classifier) -->
     <g transform="translate(122.749297 357.011719) scale(0.13 -0.13)">
      <defs>
       <path id="DejaVuSans-43" d="M 4122 4306 
L 4122 3641 
Q 3803 3938 3442 4084 
Q 3081 4231 2675 4231 
Q 1875 4231 1450 3742 
Q 1025 3253 1025 2328 
Q 1025 1406 1450 917 
Q 1875 428 2675 428 
Q 3081 428 3442 575 
Q 3803 722 4122 1019 
L 4122 359 
Q 3791 134 3420 21 
Q 3050 -91 2638 -91 
Q 1578 -91 968 557 
Q 359 1206 359 2328 
Q 359 3453 968 4101 
Q 1578 4750 2638 4750 
Q 3056 4750 3426 4639 
Q 3797 4528 4122 4306 
z
" transform="scale(0.015625)"/>
       <path id="DejaVuSans-6f" d="M 1959 3097 
Q 1497 3097 1228 2736 
Q 959 2375 959 1747 
Q 959 1119 1226 758 
Q 1494 397 1959 397 
Q 2419 397 2687 759 
Q 2956 1122 2956 1747 
Q 2956 2369 2687 2733 
Q 2419 3097 1959 3097 
z
M 1959 3584 
Q 2709 3584 3137 3096 
Q 3566 2609 3566 1747 
Q 3566 888 3137 398 
Q 2709 -91 1959 -91 
Q 1206 -91 779 398 
Q 353 888 353 1747 
Q 353 2609 779 3096 
Q 1206 3584 1959 3584 
z
" transform="scale(0.015625)"/>
       <path id="DejaVuSans-76" d="M 191 3500 
L 800 3500 
L 1894 563 
L 2988 3500 
L 3597 3500 
L 2284 0 
L 1503 0 
L 191 3500 
z
" transform="scale(0.015625)"/>
       <path id="DejaVuSans-65" d="M 3597 1894 
L 3597 1613 
L 953 1613 
Q 991 1019 1311 708 
Q 1631 397 2203 397 
Q 2534 397 2845 478 
Q 3156 559 3463 722 
L 3463 178 
Q 3153 47 2828 -22 
Q 2503 -91 2169 -91 
Q 1331 -91 842 396 
Q 353 884 353 1716 
Q 353 2575 817 3079 
Q 1281 3584 2069 3584 
Q 2775 3584 3186 3129 
Q 3597 2675 3597 1894 
z
M 3022 2063 
Q 3016 2534 2758 2815 
Q 2500 3097 2075 3097 
Q 1594 3097 1305 2825 
Q 1016 2553 972 2059 
L 3022 2063 
z
" transform="scale(0.015625)"/>
       <path id="DejaVuSans-72" d="M 2631 2963 
Q 2534 3019 2420 3045 
Q 2306 3072 2169 3072 
Q 1681 3072 1420 2755 
Q 1159 2438 1159 1844 
L 1159 0 
L 581 0 
L 581 3500 
L 1159 3500 
L 1159 2956 
Q 1341 3275 1631 3429 
Q 1922 3584 2338 3584 
Q 2397 3584 2469 3576 
Q 2541 3569 2628 3553 
L 2631 2963 
z
" transform="scale(0.015625)"/>
       <path id="DejaVuSans-61" d="M 2194 1759 
Q 1497 1759 1228 1600 
Q 959 1441 959 1056 
Q 959 750 1161 570 
Q 1363 391 1709 391 
Q 2188 391 2477 730 
Q 2766 1069 2766 1631 
L 2766 1759 
L 2194 1759 
z
M 3341 1997 
L 3341 0 
L 2766 0 
L 2766 531 
Q 2569 213 2275 61 
Q 1981 -91 1556 -91 
Q 1019 -91 701 211 
Q 384 513 384 1019 
Q 384 1609 779 1909 
Q 1175 2209 1959 2209 
L 2766 2209 
L 2766 2266 
Q 2766 2663 2505 2880 
Q 2244 3097 1772 3097 
Q 1472 3097 1187 3025 
Q 903 2953 641 2809 
L 641 3341 
Q 956 3463 1253 3523 
Q 1550 3584 1831 3584 
Q 2591 3584 2966 3190 
Q 3341 2797 3341 1997 
z
" transform="scale(0.015625)"/>
       <path id="DejaVuSans-67" d="M 2906 1791 
Q 2906 2416 2648 2759 
Q 2391 3103 1925 3103 
Q 1463 3103 1205 2759 
Q 947 2416 947 1791 
Q 947 1169 1205 825 
Q 1463 481 1925 481 
Q 2391 481 2648 825 
Q 2906 1169 2906 1791 
z
M 3481 434 
Q 3481 -459 3084 -895 
Q 2688 -1331 1869 -1331 
Q 1566 -1331 1297 -1286 
Q 1028 -1241 775 -1147 
L 775 -588 
Q 1028 -725 1275 -790 
Q 1522 -856 1778 -856 
Q 2344 -856 2625 -561 
Q 2906 -266 2906 331 
L 2906 616 
Q 2728 306 2450 153 
Q 2172 0 1784 0 
Q 1141 0 747 490 
Q 353 981 353 1791 
Q 353 2603 747 3093 
Q 1141 3584 1784 3584 
Q 2172 3584 2450 3431 
Q 2728 3278 2906 2969 
L 2906 3500 
L 3481 3500 
L 3481 434 
z
" transform="scale(0.015625)"/>
       <path id="DejaVuSans-20" transform="scale(0.015625)"/>
       <path id="DejaVuSans-28" d="M 1984 4856 
Q 1566 4138 1362 3434 
Q 1159 2731 1159 2009 
Q 1159 1288 1364 580 
Q 1569 -128 1984 -844 
L 1484 -844 
Q 1016 -109 783 600 
Q 550 1309 550 2009 
Q 550 2706 781 3412 
Q 1013 4119 1484 4856 
L 1984 4856 
z
" transform="scale(0.015625)"/>
       <path id="DejaVuSans-66" d="M 2375 4863 
L 2375 4384 
L 1825 4384 
Q 1516 4384 1395 4259 
Q 1275 4134 1275 3809 
L 1275 3500 
L 2222 3500 
L 2222 3053 
L 1275 3053 
L 1275 0 
L 697 0 
L 697 3053 
L 147 3053 
L 147 3500 
L 697 3500 
L 697 3744 
Q 697 4328 969 4595 
Q 1241 4863 1831 4863 
L 2375 4863 
z
" transform="scale(0.015625)"/>
       <path id="DejaVuSans-63" d="M 3122 3366 
L 3122 2828 
Q 2878 2963 2633 3030 
Q 2388 3097 2138 3097 
Q 1578 3097 1268 2742 
Q 959 2388 959 1747 
Q 959 1106 1268 751 
Q 1578 397 2138 397 
Q 2388 397 2633 464 
Q 2878 531 3122 666 
L 3122 134 
Q 2881 22 2623 -34 
Q 2366 -91 2075 -91 
Q 1284 -91 818 406 
Q 353 903 353 1747 
Q 353 2603 823 3093 
Q 1294 3584 2113 3584 
Q 2378 3584 2631 3529 
Q 2884 3475 3122 3366 
z
" transform="scale(0.015625)"/>
       <path id="DejaVuSans-74" d="M 1172 4494 
L 1172 3500 
L 2356 3500 
L 2356 3053 
L 1172 3053 
L 1172 1153 
Q 1172 725 1289 603 
Q 1406 481 1766 481 
L 2356 481 
L 2356 0 
L 1766 0 
Q 1100 0 847 248 
Q 594 497 594 1153 
L 594 3053 
L 172 3053 
L 172 3500 
L 594 3500 
L 594 4494 
L 1172 4494 
z
" transform="scale(0.015625)"/>
       <path id="DejaVuSans-69" d="M 603 3500 
L 1178 3500 
L 1178 0 
L 603 0 
L 603 3500 
z
M 603 4863 
L 1178 4863 
L 1178 4134 
L 603 4134 
L 603 4863 
z
" transform="scale(0.015625)"/>
       <path id="DejaVuSans-6e" d="M 3513 2113 
L 3513 0 
L 2938 0 
L 2938 2094 
Q 2938 2591 2744 2837 
Q 2550 3084 2163 3084 
Q 1697 3084 1428 2787 
Q 1159 2491 1159 1978 
L 1159 0 
L 581 0 
L 581 3500 
L 1159 3500 
L 1159 2956 
Q 1366 3272 1645 3428 
Q 1925 3584 2291 3584 
Q 2894 3584 3203 3211 
Q 3513 2838 3513 2113 
z
" transform="scale(0.015625)"/>
       <path id="DejaVuSans-64" d="M 2906 2969 
L 2906 4863 
L 3481 4863 
L 3481 0 
L 2906 0 
L 2906 525 
Q 2725 213 2448 61 
Q 2172 -91 1784 -91 
Q 1150 -91 751 415 
Q 353 922 353 1747 
Q 353 2572 751 3078 
Q 1150 3584 1784 3584 
Q 2172 3584 2448 3432 
Q 2725 3281 2906 2969 
z
M 947 1747 
Q 947 1113 1208 752 
Q 1469 391 1925 391 
Q 2381 391 2643 752 
Q 2906 1113 2906 1747 
Q 2906 2381 2643 2742 
Q 2381 3103 1925 3103 
Q 1469 3103 1208 2742 
Q 947 2381 947 1747 
z
" transform="scale(0.015625)"/>
       <path id="DejaVuSans-62" d="M 3116 1747 
Q 3116 2381 2855 2742 
Q 2594 3103 2138 3103 
Q 1681 3103 1420 2742 
Q 1159 2381 1159 1747 
Q 1159 1113 1420 752 
Q 1681 391 2138 391 
Q 2594 391 2855 752 
Q 3116 1113 3116 1747 
z
M 1159 2969 
Q 1341 3281 1617 3432 
Q 1894 3584 2278 3584 
Q 2916 3584 3314 3078 
Q 3713 2572 3713 1747 
Q 3713 922 3314 415 
Q 2916 -91 2278 -91 
Q 1894 -91 1617 61 
Q 1341 213 1159 525 
L 1159 0 
L 581 0 
L 581 4863 
L 1159 4863 
L 1159 2969 
z
" transform="scale(0.015625)"/>
       <path id="DejaVuSans-79" d="M 2059 -325 
Q 1816 -950 1584 -1140 
Q 1353 -1331 966 -1331 
L 506 -1331 
L 506 -850 
L 844 -850 
Q 1081 -850 1212 -737 
Q 1344 -625 1503 -206 
L 1606 56 
L 191 3500 
L 800 3500 
L 1894 763 
L 2988 3500 
L 3597 3500 
L 2059 -325 
z
" transform="scale(0.015625)"/>
       <path id="DejaVuSans-6c" d="M 603 4863 
L 1178 4863 
L 1178 0 
L 603 0 
L 603 4863 
z
" transform="scale(0.015625)"/>
       <path id="DejaVuSans-73" d="M 2834 3397 
L 2834 2853 
Q 2591 2978 2328 3040 
Q 2066 3103 1784 3103 
Q 1356 3103 1142 2972 
Q 928 2841 928 2578 
Q 928 2378 1081 2264 
Q 1234 2150 1697 2047 
L 1894 2003 
Q 2506 1872 2764 1633 
Q 3022 1394 3022 966 
Q 3022 478 2636 193 
Q 2250 -91 1575 -91 
Q 1294 -91 989 -36 
Q 684 19 347 128 
L 347 722 
Q 666 556 975 473 
Q 1284 391 1588 391 
Q 1994 391 2212 530 
Q 2431 669 2431 922 
Q 2431 1156 2273 1281 
Q 2116 1406 1581 1522 
L 1381 1569 
Q 847 1681 609 1914 
Q 372 2147 372 2553 
Q 372 3047 722 3315 
Q 1072 3584 1716 3584 
Q 2034 3584 2315 3537 
Q 2597 3491 2834 3397 
z
" transform="scale(0.015625)"/>
       <path id="DejaVuSans-29" d="M 513 4856 
L 1013 4856 
Q 1481 4119 1714 3412 
Q 1947 2706 1947 2009 
Q 1947 1309 1714 600 
Q 1481 -109 1013 -844 
L 513 -844 
Q 928 -128 1133 580 
Q 1338 1288 1338 2009 
Q 1338 2731 1133 3434 
Q 928 4138 513 4856 
z
" transform="scale(0.015625)"/>
      </defs>
      <use xlink:href="#DejaVuSans-43"/>
      <use xlink:href="#DejaVuSans-6f" transform="translate(69.824219 0)"/>
      <use xlink:href="#DejaVuSans-76" transform="translate(131.005859 0)"/>
      <use xlink:href="#DejaVuSans-65" transform="translate(190.185547 0)"/>
      <use xlink:href="#DejaVuSans-72" transform="translate(251.708984 0)"/>
      <use xlink:href="#DejaVuSans-61" transform="translate(292.822266 0)"/>
      <use xlink:href="#DejaVuSans-67" transform="translate(354.101562 0)"/>
      <use xlink:href="#DejaVuSans-65" transform="translate(417.578125 0)"/>
      <use xlink:href="#DejaVuSans-20" transform="translate(479.101562 0)"/>
      <use xlink:href="#DejaVuSans-28" transform="translate(510.888672 0)"/>
      <use xlink:href="#DejaVuSans-66" transform="translate(549.902344 0)"/>
      <use xlink:href="#DejaVuSans-72" transform="translate(585.107422 0)"/>
      <use xlink:href="#DejaVuSans-61" transform="translate(626.220703 0)"/>
      <use xlink:href="#DejaVuSans-63" transform="translate(687.5 0)"/>
      <use xlink:href="#DejaVuSans-74" transform="translate(742.480469 0)"/>
      <use xlink:href="#DejaVuSans-69" transform="translate(781.689453 0)"/>
      <use xlink:href="#DejaVuSans-6f" transform="translate(809.472656 0)"/>
      <use xlink:href="#DejaVuSans-6e" transform="translate(870.654297 0)"/>
      <use xlink:href="#DejaVuSans-20" transform="translate(934.033203 0)"/>
      <use xlink:href="#DejaVuSans-64" transform="translate(965.820312 0)"/>
      <use xlink:href="#DejaVuSans-65" transform="translate(1029.296875 0)"/>
      <use xlink:href="#DejaVuSans-63" transform="translate(1090.820312 0)"/>
      <use xlink:href="#DejaVuSans-69" transform="translate(1145.800781 0)"/>
      <use xlink:href="#DejaVuSans-64" transform="translate(1173.583984 0)"/>
      <use xlink:href="#DejaVuSans-65" transform="translate(1237.060547 0)"/>
      <use xlink:href="#DejaVuSans-64" transform="translate(1298.583984 0)"/>
      <use xlink:href="#DejaVuSans-20" transform="translate(1362.060547 0)"/>
      <use xlink:href="#DejaVuSans-62" transform="translate(1393.847656 0)"/>
      <use xlink:href="#DejaVuSans-79" transform="translate(1457.324219 0)"/>
      <use xlink:href="#DejaVuSans-20" transform="translate(1516.503906 0)"/>
      <use xlink:href="#DejaVuSans-63" transform="translate(1548.291016 0)"/>
      <use xlink:href="#DejaVuSans-6c" transform="translate(1603.271484 0)"/>
      <use xlink:href="#DejaVuSans-61" transform="translate(1631.054688 0)"/>
      <use xlink:href="#DejaVuSans-73" transform="translate(1692.333984 0)"/>
      <use xlink:href="#DejaVuSans-73" transform="translate(1744.433594 0)"/>
      <use xlink:href="#DejaVuSans-69" transform="translate(1796.533203 0)"/>
      <use xlink:href="#DejaVuSans-66" transform="translate(1824.316406 0)"/>
      <use xlink:href="#DejaVuSans-69" transform="translate(1859.521484 0)"/>
      <use xlink:href="#DejaVuSans-65" transform="translate(1887.304688 0)"/>
      <use xlink:href="#DejaVuSans-72" transform="translate(1948.828125 0)"/>
      <use xlink:href="#DejaVuSans-29" transform="translate(1989.941406 0)"/>
     </g>
    </g>
   </g>
   <g id="matplotlib.axis_2">
    <g id="ytick_1">
     <g id="line2d_13">
      <path d="M 57.500313 313.052727 
L 451.770313 313.052727 
" clip-path="url(#pd3a87ba3d1)" style="fill: none; stroke-dasharray: 2.96,1.28; stroke-dashoffset: 0; stroke: #b0b0b0; stroke-opacity: 0.25; stroke-width: 0.8"/>
     </g>
     <g id="line2d_14">
      <defs>
       <path id="m1a6d78559a" d="M 0 0 
L -3.5 0 
" style="stroke: #000000; stroke-width: 0.8"/>
      </defs>
      <g>
       <use xlink:href="#m1a6d78559a" x="57.500313" y="313.052727" style="stroke: #000000; stroke-width: 0.8"/>
      </g>
     </g>
     <g id="text_8">
      <!-- 0.82 -->
      <g transform="translate(23.781563 317.61179) scale(0.12 -0.12)">
       <use xlink:href="#DejaVuSans-30"/>
       <use xlink:href="#DejaVuSans-2e" transform="translate(63.623047 0)"/>
       <use xlink:href="#DejaVuSans-38" transform="translate(95.410156 0)"/>
       <use xlink:href="#DejaVuSans-32" transform="translate(159.033203 0)"/>
      </g>
     </g>
    </g>
    <g id="ytick_2">
     <g id="line2d_15">
      <path d="M 57.500313 267.183636 
L 451.770313 267.183636 
" clip-path="url(#pd3a87ba3d1)" style="fill: none; stroke-dasharray: 2.96,1.28; stroke-dashoffset: 0; stroke: #b0b0b0; stroke-opacity: 0.25; stroke-width: 0.8"/>
     </g>
     <g id="line2d_16">
      <g>
       <use xlink:href="#m1a6d78559a" x="57.500313" y="267.183636" style="stroke: #000000; stroke-width: 0.8"/>
      </g>
     </g>
     <g id="text_9">
      <!-- 0.84 -->
      <g transform="translate(23.781563 271.742699) scale(0.12 -0.12)">
       <use xlink:href="#DejaVuSans-30"/>
       <use xlink:href="#DejaVuSans-2e" transform="translate(63.623047 0)"/>
       <use xlink:href="#DejaVuSans-38" transform="translate(95.410156 0)"/>
       <use xlink:href="#DejaVuSans-34" transform="translate(159.033203 0)"/>
      </g>
     </g>
    </g>
    <g id="ytick_3">
     <g id="line2d_17">
      <path d="M 57.500313 221.314545 
L 451.770313 221.314545 
" clip-path="url(#pd3a87ba3d1)" style="fill: none; stroke-dasharray: 2.96,1.28; stroke-dashoffset: 0; stroke: #b0b0b0; stroke-opacity: 0.25; stroke-width: 0.8"/>
     </g>
     <g id="line2d_18">
      <g>
       <use xlink:href="#m1a6d78559a" x="57.500313" y="221.314545" style="stroke: #000000; stroke-width: 0.8"/>
      </g>
     </g>
     <g id="text_10">
      <!-- 0.86 -->
      <g transform="translate(23.781563 225.873608) scale(0.12 -0.12)">
       <use xlink:href="#DejaVuSans-30"/>
       <use xlink:href="#DejaVuSans-2e" transform="translate(63.623047 0)"/>
       <use xlink:href="#DejaVuSans-38" transform="translate(95.410156 0)"/>
       <use xlink:href="#DejaVuSans-36" transform="translate(159.033203 0)"/>
      </g>
     </g>
    </g>
    <g id="ytick_4">
     <g id="line2d_19">
      <path d="M 57.500313 175.445455 
L 451.770313 175.445455 
" clip-path="url(#pd3a87ba3d1)" style="fill: none; stroke-dasharray: 2.96,1.28; stroke-dashoffset: 0; stroke: #b0b0b0; stroke-opacity: 0.25; stroke-width: 0.8"/>
     </g>
     <g id="line2d_20">
      <g>
       <use xlink:href="#m1a6d78559a" x="57.500313" y="175.445455" style="stroke: #000000; stroke-width: 0.8"/>
      </g>
     </g>
     <g id="text_11">
      <!-- 0.88 -->
      <g transform="translate(23.781563 180.004517) scale(0.12 -0.12)">
       <use xlink:href="#DejaVuSans-30"/>
       <use xlink:href="#DejaVuSans-2e" transform="translate(63.623047 0)"/>
       <use xlink:href="#DejaVuSans-38" transform="translate(95.410156 0)"/>
       <use xlink:href="#DejaVuSans-38" transform="translate(159.033203 0)"/>
      </g>
     </g>
    </g>
    <g id="ytick_5">
     <g id="line2d_21">
      <path d="M 57.500313 129.576364 
L 451.770313 129.576364 
" clip-path="url(#pd3a87ba3d1)" style="fill: none; stroke-dasharray: 2.96,1.28; stroke-dashoffset: 0; stroke: #b0b0b0; stroke-opacity: 0.25; stroke-width: 0.8"/>
     </g>
     <g id="line2d_22">
      <g>
       <use xlink:href="#m1a6d78559a" x="57.500313" y="129.576364" style="stroke: #000000; stroke-width: 0.8"/>
      </g>
     </g>
     <g id="text_12">
      <!-- 0.90 -->
      <g transform="translate(23.781563 134.135426) scale(0.12 -0.12)">
       <defs>
        <path id="DejaVuSans-39" d="M 703 97 
L 703 672 
Q 941 559 1184 500 
Q 1428 441 1663 441 
Q 2288 441 2617 861 
Q 2947 1281 2994 2138 
Q 2813 1869 2534 1725 
Q 2256 1581 1919 1581 
Q 1219 1581 811 2004 
Q 403 2428 403 3163 
Q 403 3881 828 4315 
Q 1253 4750 1959 4750 
Q 2769 4750 3195 4129 
Q 3622 3509 3622 2328 
Q 3622 1225 3098 567 
Q 2575 -91 1691 -91 
Q 1453 -91 1209 -44 
Q 966 3 703 97 
z
M 1959 2075 
Q 2384 2075 2632 2365 
Q 2881 2656 2881 3163 
Q 2881 3666 2632 3958 
Q 2384 4250 1959 4250 
Q 1534 4250 1286 3958 
Q 1038 3666 1038 3163 
Q 1038 2656 1286 2365 
Q 1534 2075 1959 2075 
z
" transform="scale(0.015625)"/>
       </defs>
       <use xlink:href="#DejaVuSans-30"/>
       <use xlink:href="#DejaVuSans-2e" transform="translate(63.623047 0)"/>
       <use xlink:href="#DejaVuSans-39" transform="translate(95.410156 0)"/>
       <use xlink:href="#DejaVuSans-30" transform="translate(159.033203 0)"/>
      </g>
     </g>
    </g>
    <g id="ytick_6">
     <g id="line2d_23">
      <path d="M 57.500313 83.707273 
L 451.770313 83.707273 
" clip-path="url(#pd3a87ba3d1)" style="fill: none; stroke-dasharray: 2.96,1.28; stroke-dashoffset: 0; stroke: #b0b0b0; stroke-opacity: 0.25; stroke-width: 0.8"/>
     </g>
     <g id="line2d_24">
      <g>
       <use xlink:href="#m1a6d78559a" x="57.500313" y="83.707273" style="stroke: #000000; stroke-width: 0.8"/>
      </g>
     </g>
     <g id="text_13">
      <!-- 0.92 -->
      <g transform="translate(23.781563 88.266335) scale(0.12 -0.12)">
       <use xlink:href="#DejaVuSans-30"/>
       <use xlink:href="#DejaVuSans-2e" transform="translate(63.623047 0)"/>
       <use xlink:href="#DejaVuSans-39" transform="translate(95.410156 0)"/>
       <use xlink:href="#DejaVuSans-32" transform="translate(159.033203 0)"/>
      </g>
     </g>
    </g>
    <g id="text_14">
     <!-- System Accuracy -->
     <g transform="translate(17.077969 254.36125) rotate(-90) scale(0.13 -0.13)">
      <defs>
       <path id="DejaVuSans-53" d="M 3425 4513 
L 3425 3897 
Q 3066 4069 2747 4153 
Q 2428 4238 2131 4238 
Q 1616 4238 1336 4038 
Q 1056 3838 1056 3469 
Q 1056 3159 1242 3001 
Q 1428 2844 1947 2747 
L 2328 2669 
Q 3034 2534 3370 2195 
Q 3706 1856 3706 1288 
Q 3706 609 3251 259 
Q 2797 -91 1919 -91 
Q 1588 -91 1214 -16 
Q 841 59 441 206 
L 441 856 
Q 825 641 1194 531 
Q 1563 422 1919 422 
Q 2459 422 2753 634 
Q 3047 847 3047 1241 
Q 3047 1584 2836 1778 
Q 2625 1972 2144 2069 
L 1759 2144 
Q 1053 2284 737 2584 
Q 422 2884 422 3419 
Q 422 4038 858 4394 
Q 1294 4750 2059 4750 
Q 2388 4750 2728 4690 
Q 3069 4631 3425 4513 
z
" transform="scale(0.015625)"/>
       <path id="DejaVuSans-6d" d="M 3328 2828 
Q 3544 3216 3844 3400 
Q 4144 3584 4550 3584 
Q 5097 3584 5394 3201 
Q 5691 2819 5691 2113 
L 5691 0 
L 5113 0 
L 5113 2094 
Q 5113 2597 4934 2840 
Q 4756 3084 4391 3084 
Q 3944 3084 3684 2787 
Q 3425 2491 3425 1978 
L 3425 0 
L 2847 0 
L 2847 2094 
Q 2847 2600 2669 2842 
Q 2491 3084 2119 3084 
Q 1678 3084 1418 2786 
Q 1159 2488 1159 1978 
L 1159 0 
L 581 0 
L 581 3500 
L 1159 3500 
L 1159 2956 
Q 1356 3278 1631 3431 
Q 1906 3584 2284 3584 
Q 2666 3584 2933 3390 
Q 3200 3197 3328 2828 
z
" transform="scale(0.015625)"/>
       <path id="DejaVuSans-41" d="M 2188 4044 
L 1331 1722 
L 3047 1722 
L 2188 4044 
z
M 1831 4666 
L 2547 4666 
L 4325 0 
L 3669 0 
L 3244 1197 
L 1141 1197 
L 716 0 
L 50 0 
L 1831 4666 
z
" transform="scale(0.015625)"/>
       <path id="DejaVuSans-75" d="M 544 1381 
L 544 3500 
L 1119 3500 
L 1119 1403 
Q 1119 906 1312 657 
Q 1506 409 1894 409 
Q 2359 409 2629 706 
Q 2900 1003 2900 1516 
L 2900 3500 
L 3475 3500 
L 3475 0 
L 2900 0 
L 2900 538 
Q 2691 219 2414 64 
Q 2138 -91 1772 -91 
Q 1169 -91 856 284 
Q 544 659 544 1381 
z
M 1991 3584 
L 1991 3584 
z
" transform="scale(0.015625)"/>
      </defs>
      <use xlink:href="#DejaVuSans-53"/>
      <use xlink:href="#DejaVuSans-79" transform="translate(63.476562 0)"/>
      <use xlink:href="#DejaVuSans-73" transform="translate(122.65625 0)"/>
      <use xlink:href="#DejaVuSans-74" transform="translate(174.755859 0)"/>
      <use xlink:href="#DejaVuSans-65" transform="translate(213.964844 0)"/>
      <use xlink:href="#DejaVuSans-6d" transform="translate(275.488281 0)"/>
      <use xlink:href="#DejaVuSans-20" transform="translate(372.900391 0)"/>
      <use xlink:href="#DejaVuSans-41" transform="translate(404.6875 0)"/>
      <use xlink:href="#DejaVuSans-63" transform="translate(471.345703 0)"/>
      <use xlink:href="#DejaVuSans-63" transform="translate(526.326172 0)"/>
      <use xlink:href="#DejaVuSans-75" transform="translate(581.306641 0)"/>
      <use xlink:href="#DejaVuSans-72" transform="translate(644.685547 0)"/>
      <use xlink:href="#DejaVuSans-61" transform="translate(685.798828 0)"/>
      <use xlink:href="#DejaVuSans-63" transform="translate(747.078125 0)"/>
      <use xlink:href="#DejaVuSans-79" transform="translate(802.058594 0)"/>
     </g>
    </g>
   </g>
   <g id="line2d_25">
    <path d="M 77.766527 152.510909 
L 85.13606 159.391273 
L 90.66321 147.924 
L 99.875126 131.869818 
L 103.559892 118.109091 
L 109.087041 113.522182 
L 110.929425 99.761455 
L 110.929425 97.468 
L 110.929425 99.761455 
L 112.771808 97.468 
L 112.771808 102.054909 
L 112.771808 118.109091 
L 112.771808 124.989455 
L 112.771808 113.522182 
L 112.771808 106.641818 
L 112.771808 104.348364 
L 114.614191 95.174545 
L 123.826107 95.174545 
L 134.880406 102.054909 
L 144.092322 111.228727 
L 166.20092 127.282909 
L 186.467135 147.924 
L 236.211481 170.858545 
L 274.901527 198.38 
L 324.645873 228.194909 
L 359.651154 248.836 
L 383.602135 258.009818 
L 409.395499 267.183636 
L 414.922649 280.944364 
" clip-path="url(#pd3a87ba3d1)" style="fill: none; stroke: #1a5276; stroke-width: 3; stroke-linecap: square"/>
    <defs>
     <path id="mfcf0ee3f05" d="M 0 2 
C 0.530406 2 1.03916 1.789267 1.414214 1.414214 
C 1.789267 1.03916 2 0.530406 2 0 
C 2 -0.530406 1.789267 -1.03916 1.414214 -1.414214 
C 1.03916 -1.789267 0.530406 -2 0 -2 
C -0.530406 -2 -1.03916 -1.789267 -1.414214 -1.414214 
C -1.789267 -1.03916 -2 -0.530406 -2 0 
C -2 0.530406 -1.789267 1.03916 -1.414214 1.414214 
C -1.03916 1.789267 -0.530406 2 0 2 
z
" style="stroke: #000000; stroke-width: 0.5"/>
    </defs>
    <g clip-path="url(#pd3a87ba3d1)">
     <use xlink:href="#mfcf0ee3f05" x="77.766527" y="152.510909" style="fill: #1a5276; stroke: #000000; stroke-width: 0.5"/>
     <use xlink:href="#mfcf0ee3f05" x="99.875126" y="131.869818" style="fill: #1a5276; stroke: #000000; stroke-width: 0.5"/>
     <use xlink:href="#mfcf0ee3f05" x="110.929425" y="99.761455" style="fill: #1a5276; stroke: #000000; stroke-width: 0.5"/>
     <use xlink:href="#mfcf0ee3f05" x="112.771808" y="97.468" style="fill: #1a5276; stroke: #000000; stroke-width: 0.5"/>
     <use xlink:href="#mfcf0ee3f05" x="112.771808" y="124.989455" style="fill: #1a5276; stroke: #000000; stroke-width: 0.5"/>
     <use xlink:href="#mfcf0ee3f05" x="112.771808" y="104.348364" style="fill: #1a5276; stroke: #000000; stroke-width: 0.5"/>
     <use xlink:href="#mfcf0ee3f05" x="134.880406" y="102.054909" style="fill: #1a5276; stroke: #000000; stroke-width: 0.5"/>
     <use xlink:href="#mfcf0ee3f05" x="186.467135" y="147.924" style="fill: #1a5276; stroke: #000000; stroke-width: 0.5"/>
     <use xlink:href="#mfcf0ee3f05" x="324.645873" y="228.194909" style="fill: #1a5276; stroke: #000000; stroke-width: 0.5"/>
     <use xlink:href="#mfcf0ee3f05" x="409.395499" y="267.183636" style="fill: #1a5276; stroke: #000000; stroke-width: 0.5"/>
    </g>
   </g>
   <g id="line2d_26">
    <path d="M 77.766527 159.391273 
L 85.13606 150.217455 
L 90.66321 150.217455 
L 99.875126 138.750182 
L 103.559892 124.989455 
L 109.087041 127.282909 
L 110.929425 120.402545 
L 110.929425 111.228727 
L 110.929425 131.869818 
L 112.771808 136.456727 
L 112.771808 143.337091 
L 112.771808 131.869818 
L 112.771808 122.696 
L 112.771808 106.641818 
L 112.771808 97.468 
L 112.771808 90.587636 
L 114.614191 90.587636 
L 123.826107 106.641818 
L 134.880406 104.348364 
L 144.092322 106.641818 
L 168.043303 108.935273 
L 188.309518 145.630545 
L 238.053864 170.858545 
L 276.743911 202.966909 
L 328.33064 237.368727 
L 365.178303 267.183636 
L 389.129284 280.944364 
L 414.922649 292.411636 
L 422.292182 301.585455 
" clip-path="url(#pd3a87ba3d1)" style="fill: none; stroke-dasharray: 9.25,4; stroke-dashoffset: 0; stroke: #e67e22; stroke-width: 2.5"/>
    <defs>
     <path id="m1ed52aab35" d="M -1.5 1.5 
L 1.5 1.5 
L 1.5 -1.5 
L -1.5 -1.5 
z
" style="stroke: #000000; stroke-width: 0.5; stroke-linejoin: miter"/>
    </defs>
    <g clip-path="url(#pd3a87ba3d1)">
     <use xlink:href="#m1ed52aab35" x="77.766527" y="159.391273" style="fill: #e67e22; stroke: #000000; stroke-width: 0.5; stroke-linejoin: miter"/>
     <use xlink:href="#m1ed52aab35" x="99.875126" y="138.750182" style="fill: #e67e22; stroke: #000000; stroke-width: 0.5; stroke-linejoin: miter"/>
     <use xlink:href="#m1ed52aab35" x="110.929425" y="120.402545" style="fill: #e67e22; stroke: #000000; stroke-width: 0.5; stroke-linejoin: miter"/>
     <use xlink:href="#m1ed52aab35" x="112.771808" y="136.456727" style="fill: #e67e22; stroke: #000000; stroke-width: 0.5; stroke-linejoin: miter"/>
     <use xlink:href="#m1ed52aab35" x="112.771808" y="122.696" style="fill: #e67e22; stroke: #000000; stroke-width: 0.5; stroke-linejoin: miter"/>
     <use xlink:href="#m1ed52aab35" x="112.771808" y="90.587636" style="fill: #e67e22; stroke: #000000; stroke-width: 0.5; stroke-linejoin: miter"/>
     <use xlink:href="#m1ed52aab35" x="134.880406" y="104.348364" style="fill: #e67e22; stroke: #000000; stroke-width: 0.5; stroke-linejoin: miter"/>
     <use xlink:href="#m1ed52aab35" x="188.309518" y="145.630545" style="fill: #e67e22; stroke: #000000; stroke-width: 0.5; stroke-linejoin: miter"/>
     <use xlink:href="#m1ed52aab35" x="328.33064" y="237.368727" style="fill: #e67e22; stroke: #000000; stroke-width: 0.5; stroke-linejoin: miter"/>
     <use xlink:href="#m1ed52aab35" x="414.922649" y="292.411636" style="fill: #e67e22; stroke: #000000; stroke-width: 0.5; stroke-linejoin: miter"/>
    </g>
   </g>
   <g id="line2d_27">
    <path d="M 116.456574 196.086545 
L 276.743911 163.978182 
L 278.586294 122.696 
L 289.640593 99.761455 
L 291.482976 99.761455 
L 291.482976 106.641818 
L 291.482976 113.522182 
L 291.482976 108.935273 
L 297.010126 118.109091 
L 297.010126 118.109091 
L 298.852509 102.054909 
L 300.694892 95.174545 
L 300.694892 115.815636 
L 304.379658 111.228727 
L 304.379658 108.935273 
L 304.379658 104.348364 
L 306.222041 106.641818 
L 308.064425 111.228727 
L 308.064425 102.054909 
L 308.064425 111.228727 
L 313.591574 120.402545 
L 317.276341 106.641818 
L 317.276341 92.881091 
L 319.118724 86.000727 
L 328.33064 83.707273 
L 328.33064 90.587636 
L 328.33064 102.054909 
L 330.173023 111.228727 
L 332.015406 127.282909 
L 333.857789 134.163273 
L 346.754471 131.869818 
L 348.596855 152.510909 
L 348.596855 173.152 
L 365.178303 189.206182 
L 403.86835 207.553818 
L 403.86835 237.368727 
L 420.449798 251.129455 
L 422.292182 262.596727 
L 422.292182 276.357455 
L 424.134565 287.824727 
L 425.976948 294.705091 
L 429.661714 303.878909 
L 431.504098 306.172364 
L 433.346481 310.759273 
" clip-path="url(#pd3a87ba3d1)" style="fill: none; stroke-dasharray: 12.8,3.2,2,3.2; stroke-dashoffset: 0; stroke: #27ae60; stroke-width: 2"/>
    <defs>
     <path id="me187b09b26" d="M 0 -1.5 
L -1.5 1.5 
L 1.5 1.5 
z
" style="stroke: #000000; stroke-width: 0.5; stroke-linejoin: miter"/>
    </defs>
    <g clip-path="url(#pd3a87ba3d1)">
     <use xlink:href="#me187b09b26" x="116.456574" y="196.086545" style="fill: #27ae60; stroke: #000000; stroke-width: 0.5; stroke-linejoin: miter"/>
     <use xlink:href="#me187b09b26" x="291.482976" y="106.641818" style="fill: #27ae60; stroke: #000000; stroke-width: 0.5; stroke-linejoin: miter"/>
     <use xlink:href="#me187b09b26" x="298.852509" y="102.054909" style="fill: #27ae60; stroke: #000000; stroke-width: 0.5; stroke-linejoin: miter"/>
     <use xlink:href="#me187b09b26" x="304.379658" y="104.348364" style="fill: #27ae60; stroke: #000000; stroke-width: 0.5; stroke-linejoin: miter"/>
     <use xlink:href="#me187b09b26" x="313.591574" y="120.402545" style="fill: #27ae60; stroke: #000000; stroke-width: 0.5; stroke-linejoin: miter"/>
     <use xlink:href="#me187b09b26" x="328.33064" y="90.587636" style="fill: #27ae60; stroke: #000000; stroke-width: 0.5; stroke-linejoin: miter"/>
     <use xlink:href="#me187b09b26" x="346.754471" y="131.869818" style="fill: #27ae60; stroke: #000000; stroke-width: 0.5; stroke-linejoin: miter"/>
     <use xlink:href="#me187b09b26" x="403.86835" y="237.368727" style="fill: #27ae60; stroke: #000000; stroke-width: 0.5; stroke-linejoin: miter"/>
     <use xlink:href="#me187b09b26" x="425.976948" y="294.705091" style="fill: #27ae60; stroke: #000000; stroke-width: 0.5; stroke-linejoin: miter"/>
    </g>
   </g>
   <g id="patch_3">
    <path d="M 57.500313 324.52 
L 57.500313 72.24 
" style="fill: none; stroke: #000000; stroke-width: 0.8; stroke-linejoin: miter; stroke-linecap: square"/>
   </g>
   <g id="patch_4">
    <path d="M 57.500312 324.52 
L 451.770313 324.52 
" style="fill: none; stroke: #000000; stroke-width: 0.8; stroke-linejoin: miter; stroke-linecap: square"/>
   </g>
   <g id="text_15">
    <!-- Coverage vs. System Accuracy -->
    <g transform="translate(125.381016 66.24) scale(0.15 -0.15)">
     <defs>
      <path id="DejaVuSans-Bold-43" d="M 4288 256 
Q 3956 84 3597 -3 
Q 3238 -91 2847 -91 
Q 1681 -91 1000 561 
Q 319 1213 319 2328 
Q 319 3447 1000 4098 
Q 1681 4750 2847 4750 
Q 3238 4750 3597 4662 
Q 3956 4575 4288 4403 
L 4288 3438 
Q 3953 3666 3628 3772 
Q 3303 3878 2944 3878 
Q 2300 3878 1931 3465 
Q 1563 3053 1563 2328 
Q 1563 1606 1931 1193 
Q 2300 781 2944 781 
Q 3303 781 3628 887 
Q 3953 994 4288 1222 
L 4288 256 
z
" transform="scale(0.015625)"/>
      <path id="DejaVuSans-Bold-6f" d="M 2203 2784 
Q 1831 2784 1636 2517 
Q 1441 2250 1441 1747 
Q 1441 1244 1636 976 
Q 1831 709 2203 709 
Q 2569 709 2762 976 
Q 2956 1244 2956 1747 
Q 2956 2250 2762 2517 
Q 2569 2784 2203 2784 
z
M 2203 3584 
Q 3106 3584 3614 3096 
Q 4122 2609 4122 1747 
Q 4122 884 3614 396 
Q 3106 -91 2203 -91 
Q 1297 -91 786 396 
Q 275 884 275 1747 
Q 275 2609 786 3096 
Q 1297 3584 2203 3584 
z
" transform="scale(0.015625)"/>
      <path id="DejaVuSans-Bold-76" d="M 97 3500 
L 1216 3500 
L 2088 1081 
L 2956 3500 
L 4078 3500 
L 2700 0 
L 1472 0 
L 97 3500 
z
" transform="scale(0.015625)"/>
      <path id="DejaVuSans-Bold-65" d="M 4031 1759 
L 4031 1441 
L 1416 1441 
Q 1456 1047 1700 850 
Q 1944 653 2381 653 
Q 2734 653 3104 758 
Q 3475 863 3866 1075 
L 3866 213 
Q 3469 63 3072 -14 
Q 2675 -91 2278 -91 
Q 1328 -91 801 392 
Q 275 875 275 1747 
Q 275 2603 792 3093 
Q 1309 3584 2216 3584 
Q 3041 3584 3536 3087 
Q 4031 2591 4031 1759 
z
M 2881 2131 
Q 2881 2450 2695 2645 
Q 2509 2841 2209 2841 
Q 1884 2841 1681 2658 
Q 1478 2475 1428 2131 
L 2881 2131 
z
" transform="scale(0.015625)"/>
      <path id="DejaVuSans-Bold-72" d="M 3138 2547 
Q 2991 2616 2845 2648 
Q 2700 2681 2553 2681 
Q 2122 2681 1889 2404 
Q 1656 2128 1656 1613 
L 1656 0 
L 538 0 
L 538 3500 
L 1656 3500 
L 1656 2925 
Q 1872 3269 2151 3426 
Q 2431 3584 2822 3584 
Q 2878 3584 2943 3579 
Q 3009 3575 3134 3559 
L 3138 2547 
z
" transform="scale(0.015625)"/>
      <path id="DejaVuSans-Bold-61" d="M 2106 1575 
Q 1756 1575 1579 1456 
Q 1403 1338 1403 1106 
Q 1403 894 1545 773 
Q 1688 653 1941 653 
Q 2256 653 2472 879 
Q 2688 1106 2688 1447 
L 2688 1575 
L 2106 1575 
z
M 3816 1997 
L 3816 0 
L 2688 0 
L 2688 519 
Q 2463 200 2181 54 
Q 1900 -91 1497 -91 
Q 953 -91 614 226 
Q 275 544 275 1050 
Q 275 1666 698 1953 
Q 1122 2241 2028 2241 
L 2688 2241 
L 2688 2328 
Q 2688 2594 2478 2717 
Q 2269 2841 1825 2841 
Q 1466 2841 1156 2769 
Q 847 2697 581 2553 
L 581 3406 
Q 941 3494 1303 3539 
Q 1666 3584 2028 3584 
Q 2975 3584 3395 3211 
Q 3816 2838 3816 1997 
z
" transform="scale(0.015625)"/>
      <path id="DejaVuSans-Bold-67" d="M 2919 594 
Q 2688 288 2409 144 
Q 2131 0 1766 0 
Q 1125 0 706 504 
Q 288 1009 288 1791 
Q 288 2575 706 3076 
Q 1125 3578 1766 3578 
Q 2131 3578 2409 3434 
Q 2688 3291 2919 2981 
L 2919 3500 
L 4044 3500 
L 4044 353 
Q 4044 -491 3511 -936 
Q 2978 -1381 1966 -1381 
Q 1638 -1381 1331 -1331 
Q 1025 -1281 716 -1178 
L 716 -306 
Q 1009 -475 1290 -558 
Q 1572 -641 1856 -641 
Q 2406 -641 2662 -400 
Q 2919 -159 2919 353 
L 2919 594 
z
M 2181 2772 
Q 1834 2772 1640 2515 
Q 1447 2259 1447 1791 
Q 1447 1309 1634 1061 
Q 1822 813 2181 813 
Q 2531 813 2725 1069 
Q 2919 1325 2919 1791 
Q 2919 2259 2725 2515 
Q 2531 2772 2181 2772 
z
" transform="scale(0.015625)"/>
      <path id="DejaVuSans-Bold-20" transform="scale(0.015625)"/>
      <path id="DejaVuSans-Bold-73" d="M 3272 3391 
L 3272 2541 
Q 2913 2691 2578 2766 
Q 2244 2841 1947 2841 
Q 1628 2841 1473 2761 
Q 1319 2681 1319 2516 
Q 1319 2381 1436 2309 
Q 1553 2238 1856 2203 
L 2053 2175 
Q 2913 2066 3209 1816 
Q 3506 1566 3506 1031 
Q 3506 472 3093 190 
Q 2681 -91 1863 -91 
Q 1516 -91 1145 -36 
Q 775 19 384 128 
L 384 978 
Q 719 816 1070 734 
Q 1422 653 1784 653 
Q 2113 653 2278 743 
Q 2444 834 2444 1013 
Q 2444 1163 2330 1236 
Q 2216 1309 1875 1350 
L 1678 1375 
Q 931 1469 631 1722 
Q 331 1975 331 2491 
Q 331 3047 712 3315 
Q 1094 3584 1881 3584 
Q 2191 3584 2531 3537 
Q 2872 3491 3272 3391 
z
" transform="scale(0.015625)"/>
      <path id="DejaVuSans-Bold-2e" d="M 653 1209 
L 1778 1209 
L 1778 0 
L 653 0 
L 653 1209 
z
" transform="scale(0.015625)"/>
      <path id="DejaVuSans-Bold-53" d="M 3834 4519 
L 3834 3531 
Q 3450 3703 3084 3790 
Q 2719 3878 2394 3878 
Q 1963 3878 1756 3759 
Q 1550 3641 1550 3391 
Q 1550 3203 1689 3098 
Q 1828 2994 2194 2919 
L 2706 2816 
Q 3484 2659 3812 2340 
Q 4141 2022 4141 1434 
Q 4141 663 3683 286 
Q 3225 -91 2284 -91 
Q 1841 -91 1394 -6 
Q 947 78 500 244 
L 500 1259 
Q 947 1022 1364 901 
Q 1781 781 2169 781 
Q 2563 781 2772 912 
Q 2981 1044 2981 1288 
Q 2981 1506 2839 1625 
Q 2697 1744 2272 1838 
L 1806 1941 
Q 1106 2091 782 2419 
Q 459 2747 459 3303 
Q 459 4000 909 4375 
Q 1359 4750 2203 4750 
Q 2588 4750 2994 4692 
Q 3400 4634 3834 4519 
z
" transform="scale(0.015625)"/>
      <path id="DejaVuSans-Bold-79" d="M 78 3500 
L 1197 3500 
L 2138 1125 
L 2938 3500 
L 4056 3500 
L 2584 -331 
Q 2363 -916 2067 -1148 
Q 1772 -1381 1288 -1381 
L 641 -1381 
L 641 -647 
L 991 -647 
Q 1275 -647 1404 -556 
Q 1534 -466 1606 -231 
L 1638 -134 
L 78 3500 
z
" transform="scale(0.015625)"/>
      <path id="DejaVuSans-Bold-74" d="M 1759 4494 
L 1759 3500 
L 2913 3500 
L 2913 2700 
L 1759 2700 
L 1759 1216 
Q 1759 972 1856 886 
Q 1953 800 2241 800 
L 2816 800 
L 2816 0 
L 1856 0 
Q 1194 0 917 276 
Q 641 553 641 1216 
L 641 2700 
L 84 2700 
L 84 3500 
L 641 3500 
L 641 4494 
L 1759 4494 
z
" transform="scale(0.015625)"/>
      <path id="DejaVuSans-Bold-6d" d="M 3781 2919 
Q 3994 3244 4286 3414 
Q 4578 3584 4928 3584 
Q 5531 3584 5847 3212 
Q 6163 2841 6163 2131 
L 6163 0 
L 5038 0 
L 5038 1825 
Q 5041 1866 5042 1909 
Q 5044 1953 5044 2034 
Q 5044 2406 4934 2573 
Q 4825 2741 4581 2741 
Q 4263 2741 4089 2478 
Q 3916 2216 3909 1719 
L 3909 0 
L 2784 0 
L 2784 1825 
Q 2784 2406 2684 2573 
Q 2584 2741 2328 2741 
Q 2006 2741 1831 2477 
Q 1656 2213 1656 1722 
L 1656 0 
L 531 0 
L 531 3500 
L 1656 3500 
L 1656 2988 
Q 1863 3284 2130 3434 
Q 2397 3584 2719 3584 
Q 3081 3584 3359 3409 
Q 3638 3234 3781 2919 
z
" transform="scale(0.015625)"/>
      <path id="DejaVuSans-Bold-41" d="M 3419 850 
L 1538 850 
L 1241 0 
L 31 0 
L 1759 4666 
L 3194 4666 
L 4922 0 
L 3713 0 
L 3419 850 
z
M 1838 1716 
L 3116 1716 
L 2478 3572 
L 1838 1716 
z
" transform="scale(0.015625)"/>
      <path id="DejaVuSans-Bold-63" d="M 3366 3391 
L 3366 2478 
Q 3138 2634 2908 2709 
Q 2678 2784 2431 2784 
Q 1963 2784 1702 2511 
Q 1441 2238 1441 1747 
Q 1441 1256 1702 982 
Q 1963 709 2431 709 
Q 2694 709 2930 787 
Q 3166 866 3366 1019 
L 3366 103 
Q 3103 6 2833 -42 
Q 2563 -91 2291 -91 
Q 1344 -91 809 395 
Q 275 881 275 1747 
Q 275 2613 809 3098 
Q 1344 3584 2291 3584 
Q 2566 3584 2833 3536 
Q 3100 3488 3366 3391 
z
" transform="scale(0.015625)"/>
      <path id="DejaVuSans-Bold-75" d="M 500 1363 
L 500 3500 
L 1625 3500 
L 1625 3150 
Q 1625 2866 1622 2436 
Q 1619 2006 1619 1863 
Q 1619 1441 1641 1255 
Q 1663 1069 1716 984 
Q 1784 875 1895 815 
Q 2006 756 2150 756 
Q 2500 756 2700 1025 
Q 2900 1294 2900 1772 
L 2900 3500 
L 4019 3500 
L 4019 0 
L 2900 0 
L 2900 506 
Q 2647 200 2364 54 
Q 2081 -91 1741 -91 
Q 1134 -91 817 281 
Q 500 653 500 1363 
z
" transform="scale(0.015625)"/>
     </defs>
     <use xlink:href="#DejaVuSans-Bold-43"/>
     <use xlink:href="#DejaVuSans-Bold-6f" transform="translate(73.388672 0)"/>
     <use xlink:href="#DejaVuSans-Bold-76" transform="translate(142.089844 0)"/>
     <use xlink:href="#DejaVuSans-Bold-65" transform="translate(207.275391 0)"/>
     <use xlink:href="#DejaVuSans-Bold-72" transform="translate(275.097656 0)"/>
     <use xlink:href="#DejaVuSans-Bold-61" transform="translate(324.414062 0)"/>
     <use xlink:href="#DejaVuSans-Bold-67" transform="translate(391.894531 0)"/>
     <use xlink:href="#DejaVuSans-Bold-65" transform="translate(463.476562 0)"/>
     <use xlink:href="#DejaVuSans-Bold-20" transform="translate(531.298828 0)"/>
     <use xlink:href="#DejaVuSans-Bold-76" transform="translate(566.113281 0)"/>
     <use xlink:href="#DejaVuSans-Bold-73" transform="translate(631.298828 0)"/>
     <use xlink:href="#DejaVuSans-Bold-2e" transform="translate(690.820312 0)"/>
     <use xlink:href="#DejaVuSans-Bold-20" transform="translate(728.808594 0)"/>
     <use xlink:href="#DejaVuSans-Bold-53" transform="translate(763.623047 0)"/>
     <use xlink:href="#DejaVuSans-Bold-79" transform="translate(835.644531 0)"/>
     <use xlink:href="#DejaVuSans-Bold-73" transform="translate(900.830078 0)"/>
     <use xlink:href="#DejaVuSans-Bold-74" transform="translate(960.351562 0)"/>
     <use xlink:href="#DejaVuSans-Bold-65" transform="translate(1008.154297 0)"/>
     <use xlink:href="#DejaVuSans-Bold-6d" transform="translate(1075.976562 0)"/>
     <use xlink:href="#DejaVuSans-Bold-20" transform="translate(1180.175781 0)"/>
     <use xlink:href="#DejaVuSans-Bold-41" transform="translate(1214.990234 0)"/>
     <use xlink:href="#DejaVuSans-Bold-63" transform="translate(1292.382812 0)"/>
     <use xlink:href="#DejaVuSans-Bold-63" transform="translate(1351.660156 0)"/>
     <use xlink:href="#DejaVuSans-Bold-75" transform="translate(1410.9375 0)"/>
     <use xlink:href="#DejaVuSans-Bold-72" transform="translate(1482.128906 0)"/>
     <use xlink:href="#DejaVuSans-Bold-61" transform="translate(1531.445312 0)"/>
     <use xlink:href="#DejaVuSans-Bold-63" transform="translate(1598.925781 0)"/>
     <use xlink:href="#DejaVuSans-Bold-79" transform="translate(1658.203125 0)"/>
    </g>
   </g>
   <g id="PathCollection_1">
    <defs>
     <path id="m1cb7188787" d="M -0 7.745967 
L 7.745967 0 
L 0 -7.745967 
L -7.745967 -0 
z
" style="stroke: #000000"/>
    </defs>
    <g clip-path="url(#pd3a87ba3d1)">
     <use xlink:href="#m1cb7188787" x="433.346481" y="313.052727" style="fill: #c0392b; stroke: #000000"/>
    </g>
   </g>
   <g id="legend_1">
    <g id="patch_5">
     <path d="M 303.569375 319.02 
L 444.070313 319.02 
Q 446.270313 319.02 446.270313 316.82 
L 446.270313 253.33625 
Q 446.270313 251.13625 444.070313 251.13625 
L 303.569375 251.13625 
Q 301.369375 251.13625 301.369375 253.33625 
L 301.369375 316.82 
Q 301.369375 319.02 303.569375 319.02 
z
" style="fill: #ffffff; opacity: 0.9; stroke: #808080; stroke-linejoin: miter"/>
    </g>
    <g id="line2d_28">
     <path d="M 305.769375 260.044531 
L 316.769375 260.044531 
L 327.769375 260.044531 
" style="fill: none; stroke: #1a5276; stroke-width: 3; stroke-linecap: square"/>
     <g>
      <use xlink:href="#mfcf0ee3f05" x="316.769375" y="260.044531" style="fill: #1a5276; stroke: #000000; stroke-width: 0.5"/>
     </g>
    </g>
    <g id="text_16">
     <!-- Safe-L2D -->
     <g transform="translate(336.569375 263.894531) scale(0.11 -0.11)">
      <defs>
       <path id="DejaVuSans-2d" d="M 313 2009 
L 1997 2009 
L 1997 1497 
L 313 1497 
L 313 2009 
z
" transform="scale(0.015625)"/>
       <path id="DejaVuSans-4c" d="M 628 4666 
L 1259 4666 
L 1259 531 
L 3531 531 
L 3531 0 
L 628 0 
L 628 4666 
z
" transform="scale(0.015625)"/>
       <path id="DejaVuSans-44" d="M 1259 4147 
L 1259 519 
L 2022 519 
Q 2988 519 3436 956 
Q 3884 1394 3884 2338 
Q 3884 3275 3436 3711 
Q 2988 4147 2022 4147 
L 1259 4147 
z
M 628 4666 
L 1925 4666 
Q 3281 4666 3915 4102 
Q 4550 3538 4550 2338 
Q 4550 1131 3912 565 
Q 3275 0 1925 0 
L 628 0 
L 628 4666 
z
" transform="scale(0.015625)"/>
      </defs>
      <use xlink:href="#DejaVuSans-53"/>
      <use xlink:href="#DejaVuSans-61" transform="translate(63.476562 0)"/>
      <use xlink:href="#DejaVuSans-66" transform="translate(124.755859 0)"/>
      <use xlink:href="#DejaVuSans-65" transform="translate(159.960938 0)"/>
      <use xlink:href="#DejaVuSans-2d" transform="translate(221.484375 0)"/>
      <use xlink:href="#DejaVuSans-4c" transform="translate(257.568359 0)"/>
      <use xlink:href="#DejaVuSans-32" transform="translate(313.28125 0)"/>
      <use xlink:href="#DejaVuSans-44" transform="translate(376.904297 0)"/>
     </g>
    </g>
    <g id="line2d_29">
     <path d="M 305.769375 276.190469 
L 316.769375 276.190469 
L 327.769375 276.190469 
" style="fill: none; stroke-dasharray: 9.25,4; stroke-dashoffset: 0; stroke: #e67e22; stroke-width: 2.5"/>
     <g>
      <use xlink:href="#m1ed52aab35" x="316.769375" y="276.190469" style="fill: #e67e22; stroke: #000000; stroke-width: 0.5; stroke-linejoin: miter"/>
     </g>
    </g>
    <g id="text_17">
     <!-- L2D (no CVaR) -->
     <g transform="translate(336.569375 280.040469) scale(0.11 -0.11)">
      <defs>
       <path id="DejaVuSans-56" d="M 1831 0 
L 50 4666 
L 709 4666 
L 2188 738 
L 3669 4666 
L 4325 4666 
L 2547 0 
L 1831 0 
z
" transform="scale(0.015625)"/>
       <path id="DejaVuSans-52" d="M 2841 2188 
Q 3044 2119 3236 1894 
Q 3428 1669 3622 1275 
L 4263 0 
L 3584 0 
L 2988 1197 
Q 2756 1666 2539 1819 
Q 2322 1972 1947 1972 
L 1259 1972 
L 1259 0 
L 628 0 
L 628 4666 
L 2053 4666 
Q 2853 4666 3247 4331 
Q 3641 3997 3641 3322 
Q 3641 2881 3436 2590 
Q 3231 2300 2841 2188 
z
M 1259 4147 
L 1259 2491 
L 2053 2491 
Q 2509 2491 2742 2702 
Q 2975 2913 2975 3322 
Q 2975 3731 2742 3939 
Q 2509 4147 2053 4147 
L 1259 4147 
z
" transform="scale(0.015625)"/>
      </defs>
      <use xlink:href="#DejaVuSans-4c"/>
      <use xlink:href="#DejaVuSans-32" transform="translate(55.712891 0)"/>
      <use xlink:href="#DejaVuSans-44" transform="translate(119.335938 0)"/>
      <use xlink:href="#DejaVuSans-20" transform="translate(196.337891 0)"/>
      <use xlink:href="#DejaVuSans-28" transform="translate(228.125 0)"/>
      <use xlink:href="#DejaVuSans-6e" transform="translate(267.138672 0)"/>
      <use xlink:href="#DejaVuSans-6f" transform="translate(330.517578 0)"/>
      <use xlink:href="#DejaVuSans-20" transform="translate(391.699219 0)"/>
      <use xlink:href="#DejaVuSans-43" transform="translate(423.486328 0)"/>
      <use xlink:href="#DejaVuSans-56" transform="translate(493.310547 0)"/>
      <use xlink:href="#DejaVuSans-61" transform="translate(553.96875 0)"/>
      <use xlink:href="#DejaVuSans-52" transform="translate(615.248047 0)"/>
      <use xlink:href="#DejaVuSans-29" transform="translate(684.730469 0)"/>
     </g>
    </g>
    <g id="line2d_30">
     <path d="M 305.769375 292.336406 
L 316.769375 292.336406 
L 327.769375 292.336406 
" style="fill: none; stroke-dasharray: 12.8,3.2,2,3.2; stroke-dashoffset: 0; stroke: #27ae60; stroke-width: 2"/>
     <g>
      <use xlink:href="#me187b09b26" x="316.769375" y="292.336406" style="fill: #27ae60; stroke: #000000; stroke-width: 0.5; stroke-linejoin: miter"/>
     </g>
    </g>
    <g id="text_18">
     <!-- Confidence -->
     <g transform="translate(336.569375 296.186406) scale(0.11 -0.11)">
      <use xlink:href="#DejaVuSans-43"/>
      <use xlink:href="#DejaVuSans-6f" transform="translate(69.824219 0)"/>
      <use xlink:href="#DejaVuSans-6e" transform="translate(131.005859 0)"/>
      <use xlink:href="#DejaVuSans-66" transform="translate(194.384766 0)"/>
      <use xlink:href="#DejaVuSans-69" transform="translate(229.589844 0)"/>
      <use xlink:href="#DejaVuSans-64" transform="translate(257.373047 0)"/>
      <use xlink:href="#DejaVuSans-65" transform="translate(320.849609 0)"/>
      <use xlink:href="#DejaVuSans-6e" transform="translate(382.373047 0)"/>
      <use xlink:href="#DejaVuSans-63" transform="translate(445.751953 0)"/>
      <use xlink:href="#DejaVuSans-65" transform="translate(500.732422 0)"/>
     </g>
    </g>
    <g id="PathCollection_2">
     <g>
      <use xlink:href="#m1cb7188787" x="316.769375" y="309.444844" style="fill: #c0392b; stroke: #000000"/>
     </g>
    </g>
    <g id="text_19">
     <!-- XGBoost (no defer) -->
     <g transform="translate(336.569375 312.332344) scale(0.11 -0.11)">
      <defs>
       <path id="DejaVuSans-58" d="M 403 4666 
L 1081 4666 
L 2241 2931 
L 3406 4666 
L 4084 4666 
L 2584 2425 
L 4184 0 
L 3506 0 
L 2194 1984 
L 872 0 
L 191 0 
L 1856 2491 
L 403 4666 
z
" transform="scale(0.015625)"/>
       <path id="DejaVuSans-47" d="M 3809 666 
L 3809 1919 
L 2778 1919 
L 2778 2438 
L 4434 2438 
L 4434 434 
Q 4069 175 3628 42 
Q 3188 -91 2688 -91 
Q 1594 -91 976 548 
Q 359 1188 359 2328 
Q 359 3472 976 4111 
Q 1594 4750 2688 4750 
Q 3144 4750 3555 4637 
Q 3966 4525 4313 4306 
L 4313 3634 
Q 3963 3931 3569 4081 
Q 3175 4231 2741 4231 
Q 1884 4231 1454 3753 
Q 1025 3275 1025 2328 
Q 1025 1384 1454 906 
Q 1884 428 2741 428 
Q 3075 428 3337 486 
Q 3600 544 3809 666 
z
" transform="scale(0.015625)"/>
       <path id="DejaVuSans-42" d="M 1259 2228 
L 1259 519 
L 2272 519 
Q 2781 519 3026 730 
Q 3272 941 3272 1375 
Q 3272 1813 3026 2020 
Q 2781 2228 2272 2228 
L 1259 2228 
z
M 1259 4147 
L 1259 2741 
L 2194 2741 
Q 2656 2741 2882 2914 
Q 3109 3088 3109 3444 
Q 3109 3797 2882 3972 
Q 2656 4147 2194 4147 
L 1259 4147 
z
M 628 4666 
L 2241 4666 
Q 2963 4666 3353 4366 
Q 3744 4066 3744 3513 
Q 3744 3084 3544 2831 
Q 3344 2578 2956 2516 
Q 3422 2416 3680 2098 
Q 3938 1781 3938 1306 
Q 3938 681 3513 340 
Q 3088 0 2303 0 
L 628 0 
L 628 4666 
z
" transform="scale(0.015625)"/>
      </defs>
      <use xlink:href="#DejaVuSans-58"/>
      <use xlink:href="#DejaVuSans-47" transform="translate(68.505859 0)"/>
      <use xlink:href="#DejaVuSans-42" transform="translate(145.996094 0)"/>
      <use xlink:href="#DejaVuSans-6f" transform="translate(214.599609 0)"/>
      <use xlink:href="#DejaVuSans-6f" transform="translate(275.78125 0)"/>
      <use xlink:href="#DejaVuSans-73" transform="translate(336.962891 0)"/>
      <use xlink:href="#DejaVuSans-74" transform="translate(389.0625 0)"/>
      <use xlink:href="#DejaVuSans-20" transform="translate(428.271484 0)"/>
      <use xlink:href="#DejaVuSans-28" transform="translate(460.058594 0)"/>
      <use xlink:href="#DejaVuSans-6e" transform="translate(499.072266 0)"/>
      <use xlink:href="#DejaVuSans-6f" transform="translate(562.451172 0)"/>
      <use xlink:href="#DejaVuSans-20" transform="translate(623.632812 0)"/>
      <use xlink:href="#DejaVuSans-64" transform="translate(655.419922 0)"/>
      <use xlink:href="#DejaVuSans-65" transform="translate(718.896484 0)"/>
      <use xlink:href="#DejaVuSans-66" transform="translate(780.419922 0)"/>
      <use xlink:href="#DejaVuSans-65" transform="translate(815.625 0)"/>
      <use xlink:href="#DejaVuSans-72" transform="translate(877.148438 0)"/>
      <use xlink:href="#DejaVuSans-29" transform="translate(918.261719 0)"/>
     </g>
    </g>
   </g>
  </g>
  <g id="axes_2">
   <g id="patch_6">
    <path d="M 522.800313 324.52 
L 917.070312 324.52 
L 917.070312 72.24 
L 522.800313 72.24 
z
" style="fill: #ffffff"/>
   </g>
   <g id="matplotlib.axis_3">
    <g id="xtick_7">
     <g id="line2d_31">
      <path d="M 530.169845 324.52 
L 530.169845 72.24 
" clip-path="url(#pc7ba8445ad)" style="fill: none; stroke-dasharray: 2.96,1.28; stroke-dashoffset: 0; stroke: #b0b0b0; stroke-opacity: 0.25; stroke-width: 0.8"/>
     </g>
     <g id="line2d_32">
      <g>
       <use xlink:href="#m3d3bf9a5ba" x="530.169845" y="324.52" style="stroke: #000000; stroke-width: 0.8"/>
      </g>
     </g>
     <g id="text_20">
      <!-- 0.0 -->
      <g transform="translate(520.62797 340.638125) scale(0.12 -0.12)">
       <use xlink:href="#DejaVuSans-30"/>
       <use xlink:href="#DejaVuSans-2e" transform="translate(63.623047 0)"/>
       <use xlink:href="#DejaVuSans-30" transform="translate(95.410156 0)"/>
      </g>
     </g>
    </g>
    <g id="xtick_8">
     <g id="line2d_33">
      <path d="M 603.865172 324.52 
L 603.865172 72.24 
" clip-path="url(#pc7ba8445ad)" style="fill: none; stroke-dasharray: 2.96,1.28; stroke-dashoffset: 0; stroke: #b0b0b0; stroke-opacity: 0.25; stroke-width: 0.8"/>
     </g>
     <g id="line2d_34">
      <g>
       <use xlink:href="#m3d3bf9a5ba" x="603.865172" y="324.52" style="stroke: #000000; stroke-width: 0.8"/>
      </g>
     </g>
     <g id="text_21">
      <!-- 0.2 -->
      <g transform="translate(594.323297 340.638125) scale(0.12 -0.12)">
       <use xlink:href="#DejaVuSans-30"/>
       <use xlink:href="#DejaVuSans-2e" transform="translate(63.623047 0)"/>
       <use xlink:href="#DejaVuSans-32" transform="translate(95.410156 0)"/>
      </g>
     </g>
    </g>
    <g id="xtick_9">
     <g id="line2d_35">
      <path d="M 677.560499 324.52 
L 677.560499 72.24 
" clip-path="url(#pc7ba8445ad)" style="fill: none; stroke-dasharray: 2.96,1.28; stroke-dashoffset: 0; stroke: #b0b0b0; stroke-opacity: 0.25; stroke-width: 0.8"/>
     </g>
     <g id="line2d_36">
      <g>
       <use xlink:href="#m3d3bf9a5ba" x="677.560499" y="324.52" style="stroke: #000000; stroke-width: 0.8"/>
      </g>
     </g>
     <g id="text_22">
      <!-- 0.4 -->
      <g transform="translate(668.018624 340.638125) scale(0.12 -0.12)">
       <use xlink:href="#DejaVuSans-30"/>
       <use xlink:href="#DejaVuSans-2e" transform="translate(63.623047 0)"/>
       <use xlink:href="#DejaVuSans-34" transform="translate(95.410156 0)"/>
      </g>
     </g>
    </g>
    <g id="xtick_10">
     <g id="line2d_37">
      <path d="M 751.255827 324.52 
L 751.255827 72.24 
" clip-path="url(#pc7ba8445ad)" style="fill: none; stroke-dasharray: 2.96,1.28; stroke-dashoffset: 0; stroke: #b0b0b0; stroke-opacity: 0.25; stroke-width: 0.8"/>
     </g>
     <g id="line2d_38">
      <g>
       <use xlink:href="#m3d3bf9a5ba" x="751.255827" y="324.52" style="stroke: #000000; stroke-width: 0.8"/>
      </g>
     </g>
     <g id="text_23">
      <!-- 0.6 -->
      <g transform="translate(741.713952 340.638125) scale(0.12 -0.12)">
       <use xlink:href="#DejaVuSans-30"/>
       <use xlink:href="#DejaVuSans-2e" transform="translate(63.623047 0)"/>
       <use xlink:href="#DejaVuSans-36" transform="translate(95.410156 0)"/>
      </g>
     </g>
    </g>
    <g id="xtick_11">
     <g id="line2d_39">
      <path d="M 824.951154 324.52 
L 824.951154 72.24 
" clip-path="url(#pc7ba8445ad)" style="fill: none; stroke-dasharray: 2.96,1.28; stroke-dashoffset: 0; stroke: #b0b0b0; stroke-opacity: 0.25; stroke-width: 0.8"/>
     </g>
     <g id="line2d_40">
      <g>
       <use xlink:href="#m3d3bf9a5ba" x="824.951154" y="324.52" style="stroke: #000000; stroke-width: 0.8"/>
      </g>
     </g>
     <g id="text_24">
      <!-- 0.8 -->
      <g transform="translate(815.409279 340.638125) scale(0.12 -0.12)">
       <use xlink:href="#DejaVuSans-30"/>
       <use xlink:href="#DejaVuSans-2e" transform="translate(63.623047 0)"/>
       <use xlink:href="#DejaVuSans-38" transform="translate(95.410156 0)"/>
      </g>
     </g>
    </g>
    <g id="xtick_12">
     <g id="line2d_41">
      <path d="M 898.646481 324.52 
L 898.646481 72.24 
" clip-path="url(#pc7ba8445ad)" style="fill: none; stroke-dasharray: 2.96,1.28; stroke-dashoffset: 0; stroke: #b0b0b0; stroke-opacity: 0.25; stroke-width: 0.8"/>
     </g>
     <g id="line2d_42">
      <g>
       <use xlink:href="#m3d3bf9a5ba" x="898.646481" y="324.52" style="stroke: #000000; stroke-width: 0.8"/>
      </g>
     </g>
     <g id="text_25">
      <!-- 1.0 -->
      <g transform="translate(889.104606 340.638125) scale(0.12 -0.12)">
       <use xlink:href="#DejaVuSans-31"/>
       <use xlink:href="#DejaVuSans-2e" transform="translate(63.623047 0)"/>
       <use xlink:href="#DejaVuSans-30" transform="translate(95.410156 0)"/>
      </g>
     </g>
    </g>
    <g id="text_26">
     <!-- Coverage (fraction decided by classifier) -->
     <g transform="translate(588.049297 357.011719) scale(0.13 -0.13)">
      <use xlink:href="#DejaVuSans-43"/>
      <use xlink:href="#DejaVuSans-6f" transform="translate(69.824219 0)"/>
      <use xlink:href="#DejaVuSans-76" transform="translate(131.005859 0)"/>
      <use xlink:href="#DejaVuSans-65" transform="translate(190.185547 0)"/>
      <use xlink:href="#DejaVuSans-72" transform="translate(251.708984 0)"/>
      <use xlink:href="#DejaVuSans-61" transform="translate(292.822266 0)"/>
      <use xlink:href="#DejaVuSans-67" transform="translate(354.101562 0)"/>
      <use xlink:href="#DejaVuSans-65" transform="translate(417.578125 0)"/>
      <use xlink:href="#DejaVuSans-20" transform="translate(479.101562 0)"/>
      <use xlink:href="#DejaVuSans-28" transform="translate(510.888672 0)"/>
      <use xlink:href="#DejaVuSans-66" transform="translate(549.902344 0)"/>
      <use xlink:href="#DejaVuSans-72" transform="translate(585.107422 0)"/>
      <use xlink:href="#DejaVuSans-61" transform="translate(626.220703 0)"/>
      <use xlink:href="#DejaVuSans-63" transform="translate(687.5 0)"/>
      <use xlink:href="#DejaVuSans-74" transform="translate(742.480469 0)"/>
      <use xlink:href="#DejaVuSans-69" transform="translate(781.689453 0)"/>
      <use xlink:href="#DejaVuSans-6f" transform="translate(809.472656 0)"/>
      <use xlink:href="#DejaVuSans-6e" transform="translate(870.654297 0)"/>
      <use xlink:href="#DejaVuSans-20" transform="translate(934.033203 0)"/>
      <use xlink:href="#DejaVuSans-64" transform="translate(965.820312 0)"/>
      <use xlink:href="#DejaVuSans-65" transform="translate(1029.296875 0)"/>
      <use xlink:href="#DejaVuSans-63" transform="translate(1090.820312 0)"/>
      <use xlink:href="#DejaVuSans-69" transform="translate(1145.800781 0)"/>
      <use xlink:href="#DejaVuSans-64" transform="translate(1173.583984 0)"/>
      <use xlink:href="#DejaVuSans-65" transform="translate(1237.060547 0)"/>
      <use xlink:href="#DejaVuSans-64" transform="translate(1298.583984 0)"/>
      <use xlink:href="#DejaVuSans-20" transform="translate(1362.060547 0)"/>
      <use xlink:href="#DejaVuSans-62" transform="translate(1393.847656 0)"/>
      <use xlink:href="#DejaVuSans-79" transform="translate(1457.324219 0)"/>
      <use xlink:href="#DejaVuSans-20" transform="translate(1516.503906 0)"/>
      <use xlink:href="#DejaVuSans-63" transform="translate(1548.291016 0)"/>
      <use xlink:href="#DejaVuSans-6c" transform="translate(1603.271484 0)"/>
      <use xlink:href="#DejaVuSans-61" transform="translate(1631.054688 0)"/>
      <use xlink:href="#DejaVuSans-73" transform="translate(1692.333984 0)"/>
      <use xlink:href="#DejaVuSans-73" transform="translate(1744.433594 0)"/>
      <use xlink:href="#DejaVuSans-69" transform="translate(1796.533203 0)"/>
      <use xlink:href="#DejaVuSans-66" transform="translate(1824.316406 0)"/>
      <use xlink:href="#DejaVuSans-69" transform="translate(1859.521484 0)"/>
      <use xlink:href="#DejaVuSans-65" transform="translate(1887.304688 0)"/>
      <use xlink:href="#DejaVuSans-72" transform="translate(1948.828125 0)"/>
      <use xlink:href="#DejaVuSans-29" transform="translate(1989.941406 0)"/>
     </g>
    </g>
   </g>
   <g id="matplotlib.axis_4">
    <g id="ytick_7">
     <g id="line2d_43">
      <path d="M 522.800313 302.356465 
L 917.070312 302.356465 
" clip-path="url(#pc7ba8445ad)" style="fill: none; stroke-dasharray: 2.96,1.28; stroke-dashoffset: 0; stroke: #b0b0b0; stroke-opacity: 0.25; stroke-width: 0.8"/>
     </g>
     <g id="line2d_44">
      <g>
       <use xlink:href="#m1a6d78559a" x="522.800313" y="302.356465" style="stroke: #000000; stroke-width: 0.8"/>
      </g>
     </g>
     <g id="text_27">
      <!-- 0.675 -->
      <g transform="translate(481.446563 306.915527) scale(0.12 -0.12)">
       <defs>
        <path id="DejaVuSans-37" d="M 525 4666 
L 3525 4666 
L 3525 4397 
L 1831 0 
L 1172 0 
L 2766 4134 
L 525 4134 
L 525 4666 
z
" transform="scale(0.015625)"/>
        <path id="DejaVuSans-35" d="M 691 4666 
L 3169 4666 
L 3169 4134 
L 1269 4134 
L 1269 2991 
Q 1406 3038 1543 3061 
Q 1681 3084 1819 3084 
Q 2600 3084 3056 2656 
Q 3513 2228 3513 1497 
Q 3513 744 3044 326 
Q 2575 -91 1722 -91 
Q 1428 -91 1123 -41 
Q 819 9 494 109 
L 494 744 
Q 775 591 1075 516 
Q 1375 441 1709 441 
Q 2250 441 2565 725 
Q 2881 1009 2881 1497 
Q 2881 1984 2565 2268 
Q 2250 2553 1709 2553 
Q 1456 2553 1204 2497 
Q 953 2441 691 2322 
L 691 4666 
z
" transform="scale(0.015625)"/>
       </defs>
       <use xlink:href="#DejaVuSans-30"/>
       <use xlink:href="#DejaVuSans-2e" transform="translate(63.623047 0)"/>
       <use xlink:href="#DejaVuSans-36" transform="translate(95.410156 0)"/>
       <use xlink:href="#DejaVuSans-37" transform="translate(159.033203 0)"/>
       <use xlink:href="#DejaVuSans-35" transform="translate(222.65625 0)"/>
      </g>
     </g>
    </g>
    <g id="ytick_8">
     <g id="line2d_45">
      <path d="M 522.800313 270.267676 
L 917.070312 270.267676 
" clip-path="url(#pc7ba8445ad)" style="fill: none; stroke-dasharray: 2.96,1.28; stroke-dashoffset: 0; stroke: #b0b0b0; stroke-opacity: 0.25; stroke-width: 0.8"/>
     </g>
     <g id="line2d_46">
      <g>
       <use xlink:href="#m1a6d78559a" x="522.800313" y="270.267676" style="stroke: #000000; stroke-width: 0.8"/>
      </g>
     </g>
     <g id="text_28">
      <!-- 0.700 -->
      <g transform="translate(481.446563 274.826739) scale(0.12 -0.12)">
       <use xlink:href="#DejaVuSans-30"/>
       <use xlink:href="#DejaVuSans-2e" transform="translate(63.623047 0)"/>
       <use xlink:href="#DejaVuSans-37" transform="translate(95.410156 0)"/>
       <use xlink:href="#DejaVuSans-30" transform="translate(159.033203 0)"/>
       <use xlink:href="#DejaVuSans-30" transform="translate(222.65625 0)"/>
      </g>
     </g>
    </g>
    <g id="ytick_9">
     <g id="line2d_47">
      <path d="M 522.800313 238.178888 
L 917.070312 238.178888 
" clip-path="url(#pc7ba8445ad)" style="fill: none; stroke-dasharray: 2.96,1.28; stroke-dashoffset: 0; stroke: #b0b0b0; stroke-opacity: 0.25; stroke-width: 0.8"/>
     </g>
     <g id="line2d_48">
      <g>
       <use xlink:href="#m1a6d78559a" x="522.800313" y="238.178888" style="stroke: #000000; stroke-width: 0.8"/>
      </g>
     </g>
     <g id="text_29">
      <!-- 0.725 -->
      <g transform="translate(481.446563 242.737951) scale(0.12 -0.12)">
       <use xlink:href="#DejaVuSans-30"/>
       <use xlink:href="#DejaVuSans-2e" transform="translate(63.623047 0)"/>
       <use xlink:href="#DejaVuSans-37" transform="translate(95.410156 0)"/>
       <use xlink:href="#DejaVuSans-32" transform="translate(159.033203 0)"/>
       <use xlink:href="#DejaVuSans-35" transform="translate(222.65625 0)"/>
      </g>
     </g>
    </g>
    <g id="ytick_10">
     <g id="line2d_49">
      <path d="M 522.800313 206.0901 
L 917.070312 206.0901 
" clip-path="url(#pc7ba8445ad)" style="fill: none; stroke-dasharray: 2.96,1.28; stroke-dashoffset: 0; stroke: #b0b0b0; stroke-opacity: 0.25; stroke-width: 0.8"/>
     </g>
     <g id="line2d_50">
      <g>
       <use xlink:href="#m1a6d78559a" x="522.800313" y="206.0901" style="stroke: #000000; stroke-width: 0.8"/>
      </g>
     </g>
     <g id="text_30">
      <!-- 0.750 -->
      <g transform="translate(481.446563 210.649163) scale(0.12 -0.12)">
       <use xlink:href="#DejaVuSans-30"/>
       <use xlink:href="#DejaVuSans-2e" transform="translate(63.623047 0)"/>
       <use xlink:href="#DejaVuSans-37" transform="translate(95.410156 0)"/>
       <use xlink:href="#DejaVuSans-35" transform="translate(159.033203 0)"/>
       <use xlink:href="#DejaVuSans-30" transform="translate(222.65625 0)"/>
      </g>
     </g>
    </g>
    <g id="ytick_11">
     <g id="line2d_51">
      <path d="M 522.800313 174.001312 
L 917.070312 174.001312 
" clip-path="url(#pc7ba8445ad)" style="fill: none; stroke-dasharray: 2.96,1.28; stroke-dashoffset: 0; stroke: #b0b0b0; stroke-opacity: 0.25; stroke-width: 0.8"/>
     </g>
     <g id="line2d_52">
      <g>
       <use xlink:href="#m1a6d78559a" x="522.800313" y="174.001312" style="stroke: #000000; stroke-width: 0.8"/>
      </g>
     </g>
     <g id="text_31">
      <!-- 0.775 -->
      <g transform="translate(481.446563 178.560375) scale(0.12 -0.12)">
       <use xlink:href="#DejaVuSans-30"/>
       <use xlink:href="#DejaVuSans-2e" transform="translate(63.623047 0)"/>
       <use xlink:href="#DejaVuSans-37" transform="translate(95.410156 0)"/>
       <use xlink:href="#DejaVuSans-37" transform="translate(159.033203 0)"/>
       <use xlink:href="#DejaVuSans-35" transform="translate(222.65625 0)"/>
      </g>
     </g>
    </g>
    <g id="ytick_12">
     <g id="line2d_53">
      <path d="M 522.800313 141.912524 
L 917.070312 141.912524 
" clip-path="url(#pc7ba8445ad)" style="fill: none; stroke-dasharray: 2.96,1.28; stroke-dashoffset: 0; stroke: #b0b0b0; stroke-opacity: 0.25; stroke-width: 0.8"/>
     </g>
     <g id="line2d_54">
      <g>
       <use xlink:href="#m1a6d78559a" x="522.800313" y="141.912524" style="stroke: #000000; stroke-width: 0.8"/>
      </g>
     </g>
     <g id="text_32">
      <!-- 0.800 -->
      <g transform="translate(481.446563 146.471586) scale(0.12 -0.12)">
       <use xlink:href="#DejaVuSans-30"/>
       <use xlink:href="#DejaVuSans-2e" transform="translate(63.623047 0)"/>
       <use xlink:href="#DejaVuSans-38" transform="translate(95.410156 0)"/>
       <use xlink:href="#DejaVuSans-30" transform="translate(159.033203 0)"/>
       <use xlink:href="#DejaVuSans-30" transform="translate(222.65625 0)"/>
      </g>
     </g>
    </g>
    <g id="ytick_13">
     <g id="line2d_55">
      <path d="M 522.800313 109.823736 
L 917.070312 109.823736 
" clip-path="url(#pc7ba8445ad)" style="fill: none; stroke-dasharray: 2.96,1.28; stroke-dashoffset: 0; stroke: #b0b0b0; stroke-opacity: 0.25; stroke-width: 0.8"/>
     </g>
     <g id="line2d_56">
      <g>
       <use xlink:href="#m1a6d78559a" x="522.800313" y="109.823736" style="stroke: #000000; stroke-width: 0.8"/>
      </g>
     </g>
     <g id="text_33">
      <!-- 0.825 -->
      <g transform="translate(481.446563 114.382798) scale(0.12 -0.12)">
       <use xlink:href="#DejaVuSans-30"/>
       <use xlink:href="#DejaVuSans-2e" transform="translate(63.623047 0)"/>
       <use xlink:href="#DejaVuSans-38" transform="translate(95.410156 0)"/>
       <use xlink:href="#DejaVuSans-32" transform="translate(159.033203 0)"/>
       <use xlink:href="#DejaVuSans-35" transform="translate(222.65625 0)"/>
      </g>
     </g>
    </g>
    <g id="ytick_14">
     <g id="line2d_57">
      <path d="M 522.800313 77.734948 
L 917.070312 77.734948 
" clip-path="url(#pc7ba8445ad)" style="fill: none; stroke-dasharray: 2.96,1.28; stroke-dashoffset: 0; stroke: #b0b0b0; stroke-opacity: 0.25; stroke-width: 0.8"/>
     </g>
     <g id="line2d_58">
      <g>
       <use xlink:href="#m1a6d78559a" x="522.800313" y="77.734948" style="stroke: #000000; stroke-width: 0.8"/>
      </g>
     </g>
     <g id="text_34">
      <!-- 0.850 -->
      <g transform="translate(481.446563 82.29401) scale(0.12 -0.12)">
       <use xlink:href="#DejaVuSans-30"/>
       <use xlink:href="#DejaVuSans-2e" transform="translate(63.623047 0)"/>
       <use xlink:href="#DejaVuSans-38" transform="translate(95.410156 0)"/>
       <use xlink:href="#DejaVuSans-35" transform="translate(159.033203 0)"/>
       <use xlink:href="#DejaVuSans-30" transform="translate(222.65625 0)"/>
      </g>
     </g>
    </g>
    <g id="text_35">
     <!-- System F1 Score -->
     <g transform="translate(474.742969 252.827656) rotate(-90) scale(0.13 -0.13)">
      <defs>
       <path id="DejaVuSans-46" d="M 628 4666 
L 3309 4666 
L 3309 4134 
L 1259 4134 
L 1259 2759 
L 3109 2759 
L 3109 2228 
L 1259 2228 
L 1259 0 
L 628 0 
L 628 4666 
z
" transform="scale(0.015625)"/>
      </defs>
      <use xlink:href="#DejaVuSans-53"/>
      <use xlink:href="#DejaVuSans-79" transform="translate(63.476562 0)"/>
      <use xlink:href="#DejaVuSans-73" transform="translate(122.65625 0)"/>
      <use xlink:href="#DejaVuSans-74" transform="translate(174.755859 0)"/>
      <use xlink:href="#DejaVuSans-65" transform="translate(213.964844 0)"/>
      <use xlink:href="#DejaVuSans-6d" transform="translate(275.488281 0)"/>
      <use xlink:href="#DejaVuSans-20" transform="translate(372.900391 0)"/>
      <use xlink:href="#DejaVuSans-46" transform="translate(404.6875 0)"/>
      <use xlink:href="#DejaVuSans-31" transform="translate(462.207031 0)"/>
      <use xlink:href="#DejaVuSans-20" transform="translate(525.830078 0)"/>
      <use xlink:href="#DejaVuSans-53" transform="translate(557.617188 0)"/>
      <use xlink:href="#DejaVuSans-63" transform="translate(621.09375 0)"/>
      <use xlink:href="#DejaVuSans-6f" transform="translate(676.074219 0)"/>
      <use xlink:href="#DejaVuSans-72" transform="translate(737.255859 0)"/>
      <use xlink:href="#DejaVuSans-65" transform="translate(776.119141 0)"/>
     </g>
    </g>
   </g>
   <g id="line2d_59">
    <path d="M 543.066527 147.949908 
L 550.43606 156.642743 
L 555.96321 144.387291 
L 565.175126 125.96069 
L 568.859892 113.131227 
L 574.387041 109.169308 
L 576.229425 95.307189 
L 576.229425 95.538085 
L 576.229425 99.703002 
L 578.071808 96.712783 
L 578.071808 102.379374 
L 578.071808 119.250552 
L 578.071808 127.274306 
L 578.071808 117.531176 
L 578.071808 108.216783 
L 578.071808 107.972297 
L 579.914191 97.167364 
L 589.126107 94.4594 
L 600.180406 100.166204 
L 609.392322 108.120182 
L 631.50092 119.729963 
L 651.767135 139.593129 
L 701.511481 166.286715 
L 740.201527 196.652302 
L 789.945873 228.773211 
L 824.951154 251.771782 
L 848.902135 262.645047 
L 874.695499 269.539726 
L 880.222649 282.766454 
" clip-path="url(#pc7ba8445ad)" style="fill: none; stroke: #1a5276; stroke-width: 3; stroke-linecap: square"/>
    <g clip-path="url(#pc7ba8445ad)">
     <use xlink:href="#mfcf0ee3f05" x="543.066527" y="147.949908" style="fill: #1a5276; stroke: #000000; stroke-width: 0.5"/>
     <use xlink:href="#mfcf0ee3f05" x="565.175126" y="125.96069" style="fill: #1a5276; stroke: #000000; stroke-width: 0.5"/>
     <use xlink:href="#mfcf0ee3f05" x="576.229425" y="95.307189" style="fill: #1a5276; stroke: #000000; stroke-width: 0.5"/>
     <use xlink:href="#mfcf0ee3f05" x="578.071808" y="96.712783" style="fill: #1a5276; stroke: #000000; stroke-width: 0.5"/>
     <use xlink:href="#mfcf0ee3f05" x="578.071808" y="127.274306" style="fill: #1a5276; stroke: #000000; stroke-width: 0.5"/>
     <use xlink:href="#mfcf0ee3f05" x="578.071808" y="107.972297" style="fill: #1a5276; stroke: #000000; stroke-width: 0.5"/>
     <use xlink:href="#mfcf0ee3f05" x="600.180406" y="100.166204" style="fill: #1a5276; stroke: #000000; stroke-width: 0.5"/>
     <use xlink:href="#mfcf0ee3f05" x="651.767135" y="139.593129" style="fill: #1a5276; stroke: #000000; stroke-width: 0.5"/>
     <use xlink:href="#mfcf0ee3f05" x="789.945873" y="228.773211" style="fill: #1a5276; stroke: #000000; stroke-width: 0.5"/>
     <use xlink:href="#mfcf0ee3f05" x="874.695499" y="269.539726" style="fill: #1a5276; stroke: #000000; stroke-width: 0.5"/>
    </g>
   </g>
   <g id="line2d_60">
    <path d="M 543.066527 148.314487 
L 550.43606 144.846893 
L 555.96321 141.107981 
L 565.175126 132.974586 
L 568.859892 121.395694 
L 574.387041 123.287908 
L 576.229425 113.733964 
L 576.229425 106.20052 
L 576.229425 122.585318 
L 578.071808 123.995815 
L 578.071808 132.475735 
L 578.071808 120.307509 
L 578.071808 114.239811 
L 578.071808 99.394015 
L 578.071808 93.046782 
L 578.071808 83.707273 
L 579.914191 84.27955 
L 589.126107 96.906922 
L 600.180406 97.461072 
L 609.392322 99.5298 
L 633.343303 104.115415 
L 653.609518 146.635212 
L 703.353864 177.056184 
L 742.043911 209.251816 
L 793.63064 245.186646 
L 830.478303 278.463907 
L 854.429284 288.725668 
L 880.222649 296.878078 
L 887.592182 304.950729 
" clip-path="url(#pc7ba8445ad)" style="fill: none; stroke-dasharray: 9.25,4; stroke-dashoffset: 0; stroke: #e67e22; stroke-width: 2.5"/>
    <g clip-path="url(#pc7ba8445ad)">
     <use xlink:href="#m1ed52aab35" x="543.066527" y="148.314487" style="fill: #e67e22; stroke: #000000; stroke-width: 0.5; stroke-linejoin: miter"/>
     <use xlink:href="#m1ed52aab35" x="565.175126" y="132.974586" style="fill: #e67e22; stroke: #000000; stroke-width: 0.5; stroke-linejoin: miter"/>
     <use xlink:href="#m1ed52aab35" x="576.229425" y="113.733964" style="fill: #e67e22; stroke: #000000; stroke-width: 0.5; stroke-linejoin: miter"/>
     <use xlink:href="#m1ed52aab35" x="578.071808" y="123.995815" style="fill: #e67e22; stroke: #000000; stroke-width: 0.5; stroke-linejoin: miter"/>
     <use xlink:href="#m1ed52aab35" x="578.071808" y="114.239811" style="fill: #e67e22; stroke: #000000; stroke-width: 0.5; stroke-linejoin: miter"/>
     <use xlink:href="#m1ed52aab35" x="578.071808" y="83.707273" style="fill: #e67e22; stroke: #000000; stroke-width: 0.5; stroke-linejoin: miter"/>
     <use xlink:href="#m1ed52aab35" x="600.180406" y="97.461072" style="fill: #e67e22; stroke: #000000; stroke-width: 0.5; stroke-linejoin: miter"/>
     <use xlink:href="#m1ed52aab35" x="653.609518" y="146.635212" style="fill: #e67e22; stroke: #000000; stroke-width: 0.5; stroke-linejoin: miter"/>
     <use xlink:href="#m1ed52aab35" x="793.63064" y="245.186646" style="fill: #e67e22; stroke: #000000; stroke-width: 0.5; stroke-linejoin: miter"/>
     <use xlink:href="#m1ed52aab35" x="880.222649" y="296.878078" style="fill: #e67e22; stroke: #000000; stroke-width: 0.5; stroke-linejoin: miter"/>
    </g>
   </g>
   <g id="line2d_61">
    <path d="M 581.756574 198.708532 
L 742.043911 179.791289 
L 743.886294 143.345377 
L 754.940593 129.849629 
L 756.782976 128.771946 
L 756.782976 139.035557 
L 756.782976 148.125421 
L 756.782976 143.375924 
L 762.310126 159.709191 
L 762.310126 159.709191 
L 764.152509 139.471637 
L 765.994892 133.766964 
L 765.994892 160.855106 
L 769.679658 150.290609 
L 769.679658 147.971127 
L 769.679658 145.115906 
L 771.522041 146.282771 
L 773.364425 156.847267 
L 773.364425 146.436956 
L 773.364425 160.49964 
L 778.891574 168.935519 
L 782.576341 149.910546 
L 782.576341 127.808508 
L 784.418724 117.579439 
L 793.63064 112.682691 
L 793.63064 121.697602 
L 793.63064 137.248201 
L 795.473023 146.180492 
L 797.315406 162.994266 
L 799.157789 168.272078 
L 812.054471 162.512552 
L 813.896855 183.003707 
L 813.896855 196.345282 
L 830.478303 208.713106 
L 869.16835 221.285831 
L 869.16835 246.976854 
L 885.749798 253.513459 
L 887.592182 266.175702 
L 887.592182 279.40243 
L 889.434565 289.178485 
L 891.276948 295.576249 
L 894.961714 305.084038 
L 896.804098 306.68348 
L 898.646481 309.91254 
" clip-path="url(#pc7ba8445ad)" style="fill: none; stroke-dasharray: 12.8,3.2,2,3.2; stroke-dashoffset: 0; stroke: #27ae60; stroke-width: 2"/>
    <g clip-path="url(#pc7ba8445ad)">
     <use xlink:href="#me187b09b26" x="581.756574" y="198.708532" style="fill: #27ae60; stroke: #000000; stroke-width: 0.5; stroke-linejoin: miter"/>
     <use xlink:href="#me187b09b26" x="756.782976" y="139.035557" style="fill: #27ae60; stroke: #000000; stroke-width: 0.5; stroke-linejoin: miter"/>
     <use xlink:href="#me187b09b26" x="764.152509" y="139.471637" style="fill: #27ae60; stroke: #000000; stroke-width: 0.5; stroke-linejoin: miter"/>
     <use xlink:href="#me187b09b26" x="769.679658" y="145.115906" style="fill: #27ae60; stroke: #000000; stroke-width: 0.5; stroke-linejoin: miter"/>
     <use xlink:href="#me187b09b26" x="778.891574" y="168.935519" style="fill: #27ae60; stroke: #000000; stroke-width: 0.5; stroke-linejoin: miter"/>
     <use xlink:href="#me187b09b26" x="793.63064" y="121.697602" style="fill: #27ae60; stroke: #000000; stroke-width: 0.5; stroke-linejoin: miter"/>
     <use xlink:href="#me187b09b26" x="812.054471" y="162.512552" style="fill: #27ae60; stroke: #000000; stroke-width: 0.5; stroke-linejoin: miter"/>
     <use xlink:href="#me187b09b26" x="869.16835" y="246.976854" style="fill: #27ae60; stroke: #000000; stroke-width: 0.5; stroke-linejoin: miter"/>
     <use xlink:href="#me187b09b26" x="891.276948" y="295.576249" style="fill: #27ae60; stroke: #000000; stroke-width: 0.5; stroke-linejoin: miter"/>
    </g>
   </g>
   <g id="patch_7">
    <path d="M 522.800313 324.52 
L 522.800313 72.24 
" style="fill: none; stroke: #000000; stroke-width: 0.8; stroke-linejoin: miter; stroke-linecap: square"/>
   </g>
   <g id="patch_8">
    <path d="M 522.800313 324.52 
L 917.070312 324.52 
" style="fill: none; stroke: #000000; stroke-width: 0.8; stroke-linejoin: miter; stroke-linecap: square"/>
   </g>
   <g id="text_36">
    <!-- Coverage vs. System F1 Score -->
    <g transform="translate(592.073203 66.24) scale(0.15 -0.15)">
     <defs>
      <path id="DejaVuSans-Bold-46" d="M 588 4666 
L 3834 4666 
L 3834 3756 
L 1791 3756 
L 1791 2888 
L 3713 2888 
L 3713 1978 
L 1791 1978 
L 1791 0 
L 588 0 
L 588 4666 
z
" transform="scale(0.015625)"/>
      <path id="DejaVuSans-Bold-31" d="M 750 831 
L 1813 831 
L 1813 3847 
L 722 3622 
L 722 4441 
L 1806 4666 
L 2950 4666 
L 2950 831 
L 4013 831 
L 4013 0 
L 750 0 
L 750 831 
z
" transform="scale(0.015625)"/>
     </defs>
     <use xlink:href="#DejaVuSans-Bold-43"/>
     <use xlink:href="#DejaVuSans-Bold-6f" transform="translate(73.388672 0)"/>
     <use xlink:href="#DejaVuSans-Bold-76" transform="translate(142.089844 0)"/>
     <use xlink:href="#DejaVuSans-Bold-65" transform="translate(207.275391 0)"/>
     <use xlink:href="#DejaVuSans-Bold-72" transform="translate(275.097656 0)"/>
     <use xlink:href="#DejaVuSans-Bold-61" transform="translate(324.414062 0)"/>
     <use xlink:href="#DejaVuSans-Bold-67" transform="translate(391.894531 0)"/>
     <use xlink:href="#DejaVuSans-Bold-65" transform="translate(463.476562 0)"/>
     <use xlink:href="#DejaVuSans-Bold-20" transform="translate(531.298828 0)"/>
     <use xlink:href="#DejaVuSans-Bold-76" transform="translate(566.113281 0)"/>
     <use xlink:href="#DejaVuSans-Bold-73" transform="translate(631.298828 0)"/>
     <use xlink:href="#DejaVuSans-Bold-2e" transform="translate(690.820312 0)"/>
     <use xlink:href="#DejaVuSans-Bold-20" transform="translate(728.808594 0)"/>
     <use xlink:href="#DejaVuSans-Bold-53" transform="translate(763.623047 0)"/>
     <use xlink:href="#DejaVuSans-Bold-79" transform="translate(835.644531 0)"/>
     <use xlink:href="#DejaVuSans-Bold-73" transform="translate(900.830078 0)"/>
     <use xlink:href="#DejaVuSans-Bold-74" transform="translate(960.351562 0)"/>
     <use xlink:href="#DejaVuSans-Bold-65" transform="translate(1008.154297 0)"/>
     <use xlink:href="#DejaVuSans-Bold-6d" transform="translate(1075.976562 0)"/>
     <use xlink:href="#DejaVuSans-Bold-20" transform="translate(1180.175781 0)"/>
     <use xlink:href="#DejaVuSans-Bold-46" transform="translate(1214.990234 0)"/>
     <use xlink:href="#DejaVuSans-Bold-31" transform="translate(1283.300781 0)"/>
     <use xlink:href="#DejaVuSans-Bold-20" transform="translate(1352.880859 0)"/>
     <use xlink:href="#DejaVuSans-Bold-53" transform="translate(1387.695312 0)"/>
     <use xlink:href="#DejaVuSans-Bold-63" transform="translate(1459.716797 0)"/>
     <use xlink:href="#DejaVuSans-Bold-6f" transform="translate(1518.994141 0)"/>
     <use xlink:href="#DejaVuSans-Bold-72" transform="translate(1587.695312 0)"/>
     <use xlink:href="#DejaVuSans-Bold-65" transform="translate(1637.011719 0)"/>
    </g>
   </g>
   <g id="PathCollection_3">
    <g clip-path="url(#pc7ba8445ad)">
     <use xlink:href="#m1cb7188787" x="898.646481" y="313.052727" style="fill: #c0392b; stroke: #000000"/>
    </g>
   </g>
   <g id="legend_2">
    <g id="patch_9">
     <path d="M 768.869375 319.02 
L 909.370312 319.02 
Q 911.570312 319.02 911.570312 316.82 
L 911.570312 253.33625 
Q 911.570312 251.13625 909.370312 251.13625 
L 768.869375 251.13625 
Q 766.669375 251.13625 766.669375 253.33625 
L 766.669375 316.82 
Q 766.669375 319.02 768.869375 319.02 
z
" style="fill: #ffffff; opacity: 0.9; stroke: #808080; stroke-linejoin: miter"/>
    </g>
    <g id="line2d_62">
     <path d="M 771.069375 260.044531 
L 782.069375 260.044531 
L 793.069375 260.044531 
" style="fill: none; stroke: #1a5276; stroke-width: 3; stroke-linecap: square"/>
     <g>
      <use xlink:href="#mfcf0ee3f05" x="782.069375" y="260.044531" style="fill: #1a5276; stroke: #000000; stroke-width: 0.5"/>
     </g>
    </g>
    <g id="text_37">
     <!-- Safe-L2D -->
     <g transform="translate(801.869375 263.894531) scale(0.11 -0.11)">
      <use xlink:href="#DejaVuSans-53"/>
      <use xlink:href="#DejaVuSans-61" transform="translate(63.476562 0)"/>
      <use xlink:href="#DejaVuSans-66" transform="translate(124.755859 0)"/>
      <use xlink:href="#DejaVuSans-65" transform="translate(159.960938 0)"/>
      <use xlink:href="#DejaVuSans-2d" transform="translate(221.484375 0)"/>
      <use xlink:href="#DejaVuSans-4c" transform="translate(257.568359 0)"/>
      <use xlink:href="#DejaVuSans-32" transform="translate(313.28125 0)"/>
      <use xlink:href="#DejaVuSans-44" transform="translate(376.904297 0)"/>
     </g>
    </g>
    <g id="line2d_63">
     <path d="M 771.069375 276.190469 
L 782.069375 276.190469 
L 793.069375 276.190469 
" style="fill: none; stroke-dasharray: 9.25,4; stroke-dashoffset: 0; stroke: #e67e22; stroke-width: 2.5"/>
     <g>
      <use xlink:href="#m1ed52aab35" x="782.069375" y="276.190469" style="fill: #e67e22; stroke: #000000; stroke-width: 0.5; stroke-linejoin: miter"/>
     </g>
    </g>
    <g id="text_38">
     <!-- L2D (no CVaR) -->
     <g transform="translate(801.869375 280.040469) scale(0.11 -0.11)">
      <use xlink:href="#DejaVuSans-4c"/>
      <use xlink:href="#DejaVuSans-32" transform="translate(55.712891 0)"/>
      <use xlink:href="#DejaVuSans-44" transform="translate(119.335938 0)"/>
      <use xlink:href="#DejaVuSans-20" transform="translate(196.337891 0)"/>
      <use xlink:href="#DejaVuSans-28" transform="translate(228.125 0)"/>
      <use xlink:href="#DejaVuSans-6e" transform="translate(267.138672 0)"/>
      <use xlink:href="#DejaVuSans-6f" transform="translate(330.517578 0)"/>
      <use xlink:href="#DejaVuSans-20" transform="translate(391.699219 0)"/>
      <use xlink:href="#DejaVuSans-43" transform="translate(423.486328 0)"/>
      <use xlink:href="#DejaVuSans-56" transform="translate(493.310547 0)"/>
      <use xlink:href="#DejaVuSans-61" transform="translate(553.96875 0)"/>
      <use xlink:href="#DejaVuSans-52" transform="translate(615.248047 0)"/>
      <use xlink:href="#DejaVuSans-29" transform="translate(684.730469 0)"/>
     </g>
    </g>
    <g id="line2d_64">
     <path d="M 771.069375 292.336406 
L 782.069375 292.336406 
L 793.069375 292.336406 
" style="fill: none; stroke-dasharray: 12.8,3.2,2,3.2; stroke-dashoffset: 0; stroke: #27ae60; stroke-width: 2"/>
     <g>
      <use xlink:href="#me187b09b26" x="782.069375" y="292.336406" style="fill: #27ae60; stroke: #000000; stroke-width: 0.5; stroke-linejoin: miter"/>
     </g>
    </g>
    <g id="text_39">
     <!-- Confidence -->
     <g transform="translate(801.869375 296.186406) scale(0.11 -0.11)">
      <use xlink:href="#DejaVuSans-43"/>
      <use xlink:href="#DejaVuSans-6f" transform="translate(69.824219 0)"/>
      <use xlink:href="#DejaVuSans-6e" transform="translate(131.005859 0)"/>
      <use xlink:href="#DejaVuSans-66" transform="translate(194.384766 0)"/>
      <use xlink:href="#DejaVuSans-69" transform="translate(229.589844 0)"/>
      <use xlink:href="#DejaVuSans-64" transform="translate(257.373047 0)"/>
      <use xlink:href="#DejaVuSans-65" transform="translate(320.849609 0)"/>
      <use xlink:href="#DejaVuSans-6e" transform="translate(382.373047 0)"/>
      <use xlink:href="#DejaVuSans-63" transform="translate(445.751953 0)"/>
      <use xlink:href="#DejaVuSans-65" transform="translate(500.732422 0)"/>
     </g>
    </g>
    <g id="PathCollection_4">
     <g>
      <use xlink:href="#m1cb7188787" x="782.069375" y="309.444844" style="fill: #c0392b; stroke: #000000"/>
     </g>
    </g>
    <g id="text_40">
     <!-- XGBoost (no defer) -->
     <g transform="translate(801.869375 312.332344) scale(0.11 -0.11)">
      <use xlink:href="#DejaVuSans-58"/>
      <use xlink:href="#DejaVuSans-47" transform="translate(68.505859 0)"/>
      <use xlink:href="#DejaVuSans-42" transform="translate(145.996094 0)"/>
      <use xlink:href="#DejaVuSans-6f" transform="translate(214.599609 0)"/>
      <use xlink:href="#DejaVuSans-6f" transform="translate(275.78125 0)"/>
      <use xlink:href="#DejaVuSans-73" transform="translate(336.962891 0)"/>
      <use xlink:href="#DejaVuSans-74" transform="translate(389.0625 0)"/>
      <use xlink:href="#DejaVuSans-20" transform="translate(428.271484 0)"/>
      <use xlink:href="#DejaVuSans-28" transform="translate(460.058594 0)"/>
      <use xlink:href="#DejaVuSans-6e" transform="translate(499.072266 0)"/>
      <use xlink:href="#DejaVuSans-6f" transform="translate(562.451172 0)"/>
      <use xlink:href="#DejaVuSans-20" transform="translate(623.632812 0)"/>
      <use xlink:href="#DejaVuSans-64" transform="translate(655.419922 0)"/>
      <use xlink:href="#DejaVuSans-65" transform="translate(718.896484 0)"/>
      <use xlink:href="#DejaVuSans-66" transform="translate(780.419922 0)"/>
      <use xlink:href="#DejaVuSans-65" transform="translate(815.625 0)"/>
      <use xlink:href="#DejaVuSans-72" transform="translate(877.148438 0)"/>
      <use xlink:href="#DejaVuSans-29" transform="translate(918.261719 0)"/>
     </g>
    </g>
   </g>
  </g>
  <g id="text_41">
   <!-- Learning to Defer: Coverage-Performance Tradeoff -->
   <g transform="translate(232.616562 19.3575) scale(0.16 -0.16)">
    <defs>
     <path id="DejaVuSans-Bold-4c" d="M 588 4666 
L 1791 4666 
L 1791 909 
L 3903 909 
L 3903 0 
L 588 0 
L 588 4666 
z
" transform="scale(0.015625)"/>
     <path id="DejaVuSans-Bold-6e" d="M 4056 2131 
L 4056 0 
L 2931 0 
L 2931 347 
L 2931 1631 
Q 2931 2084 2911 2256 
Q 2891 2428 2841 2509 
Q 2775 2619 2662 2680 
Q 2550 2741 2406 2741 
Q 2056 2741 1856 2470 
Q 1656 2200 1656 1722 
L 1656 0 
L 538 0 
L 538 3500 
L 1656 3500 
L 1656 2988 
Q 1909 3294 2193 3439 
Q 2478 3584 2822 3584 
Q 3428 3584 3742 3212 
Q 4056 2841 4056 2131 
z
" transform="scale(0.015625)"/>
     <path id="DejaVuSans-Bold-69" d="M 538 3500 
L 1656 3500 
L 1656 0 
L 538 0 
L 538 3500 
z
M 538 4863 
L 1656 4863 
L 1656 3950 
L 538 3950 
L 538 4863 
z
" transform="scale(0.015625)"/>
     <path id="DejaVuSans-Bold-44" d="M 1791 3756 
L 1791 909 
L 2222 909 
Q 2959 909 3348 1275 
Q 3738 1641 3738 2338 
Q 3738 3031 3350 3393 
Q 2963 3756 2222 3756 
L 1791 3756 
z
M 588 4666 
L 1856 4666 
Q 2919 4666 3439 4514 
Q 3959 4363 4331 4000 
Q 4659 3684 4818 3271 
Q 4978 2859 4978 2338 
Q 4978 1809 4818 1395 
Q 4659 981 4331 666 
Q 3956 303 3431 151 
Q 2906 0 1856 0 
L 588 0 
L 588 4666 
z
" transform="scale(0.015625)"/>
     <path id="DejaVuSans-Bold-66" d="M 2841 4863 
L 2841 4128 
L 2222 4128 
Q 1984 4128 1890 4042 
Q 1797 3956 1797 3744 
L 1797 3500 
L 2753 3500 
L 2753 2700 
L 1797 2700 
L 1797 0 
L 678 0 
L 678 2700 
L 122 2700 
L 122 3500 
L 678 3500 
L 678 3744 
Q 678 4316 997 4589 
Q 1316 4863 1984 4863 
L 2841 4863 
z
" transform="scale(0.015625)"/>
     <path id="DejaVuSans-Bold-3a" d="M 716 3500 
L 1844 3500 
L 1844 2291 
L 716 2291 
L 716 3500 
z
M 716 1209 
L 1844 1209 
L 1844 0 
L 716 0 
L 716 1209 
z
" transform="scale(0.015625)"/>
     <path id="DejaVuSans-Bold-2d" d="M 347 2297 
L 2309 2297 
L 2309 1388 
L 347 1388 
L 347 2297 
z
" transform="scale(0.015625)"/>
     <path id="DejaVuSans-Bold-50" d="M 588 4666 
L 2584 4666 
Q 3475 4666 3951 4270 
Q 4428 3875 4428 3144 
Q 4428 2409 3951 2014 
Q 3475 1619 2584 1619 
L 1791 1619 
L 1791 0 
L 588 0 
L 588 4666 
z
M 1791 3794 
L 1791 2491 
L 2456 2491 
Q 2806 2491 2997 2661 
Q 3188 2831 3188 3144 
Q 3188 3456 2997 3625 
Q 2806 3794 2456 3794 
L 1791 3794 
z
" transform="scale(0.015625)"/>
     <path id="DejaVuSans-Bold-54" d="M 31 4666 
L 4331 4666 
L 4331 3756 
L 2784 3756 
L 2784 0 
L 1581 0 
L 1581 3756 
L 31 3756 
L 31 4666 
z
" transform="scale(0.015625)"/>
     <path id="DejaVuSans-Bold-64" d="M 2919 2988 
L 2919 4863 
L 4044 4863 
L 4044 0 
L 2919 0 
L 2919 506 
Q 2688 197 2409 53 
Q 2131 -91 1766 -91 
Q 1119 -91 703 423 
Q 288 938 288 1747 
Q 288 2556 703 3070 
Q 1119 3584 1766 3584 
Q 2128 3584 2408 3439 
Q 2688 3294 2919 2988 
z
M 2181 722 
Q 2541 722 2730 984 
Q 2919 1247 2919 1747 
Q 2919 2247 2730 2509 
Q 2541 2772 2181 2772 
Q 1825 2772 1636 2509 
Q 1447 2247 1447 1747 
Q 1447 1247 1636 984 
Q 1825 722 2181 722 
z
" transform="scale(0.015625)"/>
    </defs>
    <use xlink:href="#DejaVuSans-Bold-4c"/>
    <use xlink:href="#DejaVuSans-Bold-65" transform="translate(63.720703 0)"/>
    <use xlink:href="#DejaVuSans-Bold-61" transform="translate(131.542969 0)"/>
    <use xlink:href="#DejaVuSans-Bold-72" transform="translate(199.023438 0)"/>
    <use xlink:href="#DejaVuSans-Bold-6e" transform="translate(248.339844 0)"/>
    <use xlink:href="#DejaVuSans-Bold-69" transform="translate(319.53125 0)"/>
    <use xlink:href="#DejaVuSans-Bold-6e" transform="translate(353.808594 0)"/>
    <use xlink:href="#DejaVuSans-Bold-67" transform="translate(425 0)"/>
    <use xlink:href="#DejaVuSans-Bold-20" transform="translate(496.582031 0)"/>
    <use xlink:href="#DejaVuSans-Bold-74" transform="translate(531.396484 0)"/>
    <use xlink:href="#DejaVuSans-Bold-6f" transform="translate(579.199219 0)"/>
    <use xlink:href="#DejaVuSans-Bold-20" transform="translate(647.900391 0)"/>
    <use xlink:href="#DejaVuSans-Bold-44" transform="translate(682.714844 0)"/>
    <use xlink:href="#DejaVuSans-Bold-65" transform="translate(765.722656 0)"/>
    <use xlink:href="#DejaVuSans-Bold-66" transform="translate(833.544922 0)"/>
    <use xlink:href="#DejaVuSans-Bold-65" transform="translate(877.050781 0)"/>
    <use xlink:href="#DejaVuSans-Bold-72" transform="translate(944.873047 0)"/>
    <use xlink:href="#DejaVuSans-Bold-3a" transform="translate(994.189453 0)"/>
    <use xlink:href="#DejaVuSans-Bold-20" transform="translate(1034.179688 0)"/>
    <use xlink:href="#DejaVuSans-Bold-43" transform="translate(1068.994141 0)"/>
    <use xlink:href="#DejaVuSans-Bold-6f" transform="translate(1142.382812 0)"/>
    <use xlink:href="#DejaVuSans-Bold-76" transform="translate(1211.083984 0)"/>
    <use xlink:href="#DejaVuSans-Bold-65" transform="translate(1276.269531 0)"/>
    <use xlink:href="#DejaVuSans-Bold-72" transform="translate(1344.091797 0)"/>
    <use xlink:href="#DejaVuSans-Bold-61" transform="translate(1393.408203 0)"/>
    <use xlink:href="#DejaVuSans-Bold-67" transform="translate(1460.888672 0)"/>
    <use xlink:href="#DejaVuSans-Bold-65" transform="translate(1532.470703 0)"/>
    <use xlink:href="#DejaVuSans-Bold-2d" transform="translate(1600.292969 0)"/>
    <use xlink:href="#DejaVuSans-Bold-50" transform="translate(1641.796875 0)"/>
    <use xlink:href="#DejaVuSans-Bold-65" transform="translate(1715.087891 0)"/>
    <use xlink:href="#DejaVuSans-Bold-72" transform="translate(1782.910156 0)"/>
    <use xlink:href="#DejaVuSans-Bold-66" transform="translate(1832.226562 0)"/>
    <use xlink:href="#DejaVuSans-Bold-6f" transform="translate(1875.732422 0)"/>
    <use xlink:href="#DejaVuSans-Bold-72" transform="translate(1944.433594 0)"/>
    <use xlink:href="#DejaVuSans-Bold-6d" transform="translate(1993.75 0)"/>
    <use xlink:href="#DejaVuSans-Bold-61" transform="translate(2097.949219 0)"/>
    <use xlink:href="#DejaVuSans-Bold-6e" transform="translate(2165.429688 0)"/>
    <use xlink:href="#DejaVuSans-Bold-63" transform="translate(2236.621094 0)"/>
    <use xlink:href="#DejaVuSans-Bold-65" transform="translate(2295.898438 0)"/>
    <use xlink:href="#DejaVuSans-Bold-20" transform="translate(2363.720703 0)"/>
    <use xlink:href="#DejaVuSans-Bold-54" transform="translate(2398.535156 0)"/>
    <use xlink:href="#DejaVuSans-Bold-72" transform="translate(2455.748047 0)"/>
    <use xlink:href="#DejaVuSans-Bold-61" transform="translate(2505.064453 0)"/>
    <use xlink:href="#DejaVuSans-Bold-64" transform="translate(2572.544922 0)"/>
    <use xlink:href="#DejaVuSans-Bold-65" transform="translate(2644.126953 0)"/>
    <use xlink:href="#DejaVuSans-Bold-6f" transform="translate(2711.949219 0)"/>
    <use xlink:href="#DejaVuSans-Bold-66" transform="translate(2780.650391 0)"/>
    <use xlink:href="#DejaVuSans-Bold-66" transform="translate(2824.15625 0)"/>
   </g>
  </g>
 </g>
 <defs>
  <clipPath id="pd3a87ba3d1">
   <rect x="57.500313" y="72.24" width="394.27" height="252.28"/>
  </clipPath>
  <clipPath id="pc7ba8445ad">
   <rect x="522.800313" y="72.24" width="394.27" height="252.28"/>
  </clipPath>
 </defs>
</svg>
