<?xml version="1.0" encoding="utf-8" standalone="no"?>
<!DOCTYPE svg PUBLIC "-//W3C//DTD SVG 1.1//EN"
  "http://www.w3.org/Graphics/SVG/1.1/DTD/svg11.dtd">
<svg xmlns:xlink="http://www.w3.org/1999/xlink" width="996.270312pt" height="407.595312pt" viewBox="0 0 996.270312 407.595312" xmlns="http://www.w3.org/2000/svg" version="1.1">
 <metadata>
  <rdf:RDF xmlns:dc="http://purl.org/dc/elements/1.1/" xmlns:cc="http://creativecommons.org/ns#" xmlns:rdf="http://www.w3.org/1999/02/22-rdf-syntax-ns#">
   <cc:Work>
    <dc:type rdf:resource="http://purl.org/dc/dcmitype/StillImage"/>
    <dc:date>2026-03-20T22:00:53.509433</dc:date>
    <dc:format>image/svg+xml</dc:format>
    <dc:creator>
     <cc:Agent>
      <dc:title>Matplotlib v3.10.8, https://matplotlib.org/</dc:title>
     </cc:Agent>
    </dc:creator>
   </cc:Work>
  </rdf:RDF>
 </metadata>
 <defs>
  <style type="text/css">*{stroke-linejoin: round; stroke-linecap: butt}</style>
 </defs>
 <g id="figure_1">
  <g id="patch_1">
   <path d="M 0 407.595312 
L 996.270312 407.595312 
L 996.270312 0 
L 0 0 
z
" style="fill: #ffffff"/>
  </g>
  <g id="axes_1">
   <g id="patch_2">
    <path d="M 57.500313 365.2 
L 495.330312 365.2 
L 495.330312 79.08 
L 57.500313 79.08 
z
" style="fill: #ffffff"/>
   </g>
   <g id="matplotlib.axis_1">
    <g id="xtick_1">
     <g id="line2d_1">
      <path d="M 65.684051 365.2 
L 65.684051 79.08 
" clip-path="url(#p849a29024e)" style="fill: none; stroke-dasharray: 2.96,1.28; stroke-dashoffset: 0; stroke: #b0b0b0; stroke-opacity: 0.25; stroke-width: 0.8"/>
     </g>
     <g id="line2d_2">
      <defs>
       <path id="md5660b1d27" d="M 0 0 
L 0 3.5 
" style="stroke: #000000; stroke-width: 0.8"/>
      </defs>
      <g>
       <use xlink:href="#md5660b1d27" x="65.684051" y="365.2" style="stroke: #000000; stroke-width: 0.8"/>
      </g>
     </g>
     <g id="text_1">
      <!-- 0.0 -->
      <g transform="translate(56.142176 381.318125) scale(0.12 -0.12)">
       <defs>
        <path id="DejaVuSans-30" d="M 2034 4250 
Q 1547 4250 1301 3770 
Q 1056 3291 1056 2328 
Q 1056 1369 1301 889 
Q 1547 409 2034 409 
Q 2525 409 2770 889 
Q 3016 1369 3016 2328 
Q 3016 3291 2770 3770 
Q 2525 4250 2034 4250 
z
M 2034 4750 
Q 2819 4750 3233 4129 
Q 3647 3509 3647 2328 
Q 3647 1150 3233 529 
Q 2819 -91 2034 -91 
Q 1250 -91 836 529 
Q 422 1150 422 2328 
Q 422 3509 836 4129 
Q 1250 4750 2034 4750 
z
" transform="scale(0.015625)"/>
        <path id="DejaVuSans-2e" d="M 684 794 
L 1344 794 
L 1344 0 
L 684 0 
L 684 794 
z
" transform="scale(0.015625)"/>
       </defs>
       <use xlink:href="#DejaVuSans-30"/>
       <use xlink:href="#DejaVuSans-2e" transform="translate(63.623047 0)"/>
       <use xlink:href="#DejaVuSans-30" transform="translate(95.410156 0)"/>
      </g>
     </g>
    </g>
    <g id="xtick_2">
     <g id="line2d_3">
      <path d="M 147.521434 365.2 
L 147.521434 79.08 
" clip-path="url(#p849a29024e)" style="fill: none; stroke-dasharray: 2.96,1.28; stroke-dashoffset: 0; stroke: #b0b0b0; stroke-opacity: 0.25; stroke-width: 0.8"/>
     </g>
     <g id="line2d_4">
      <g>
       <use xlink:href="#md5660b1d27" x="147.521434" y="365.2" style="stroke: #000000; stroke-width: 0.8"/>
      </g>
     </g>
     <g id="text_2">
      <!-- 0.2 -->
      <g transform="translate(137.979559 381.318125) scale(0.12 -0.12)">
       <defs>
        <path id="DejaVuSans-32" d="M 1228 531 
L 3431 531 
L 3431 0 
L 469 0 
L 469 531 
Q 828 903 1448 1529 
Q 2069 2156 2228 2338 
Q 2531 2678 2651 2914 
Q 2772 3150 2772 3378 
Q 2772 3750 2511 3984 
Q 2250 4219 1831 4219 
Q 1534 4219 1204 4116 
Q 875 4013 500 3803 
L 500 4441 
Q 881 4594 1212 4672 
Q 1544 4750 1819 4750 
Q 2544 4750 2975 4387 
Q 3406 4025 3406 3419 
Q 3406 3131 3298 2873 
Q 3191 2616 2906 2266 
Q 2828 2175 2409 1742 
Q 1991 1309 1228 531 
z
" transform="scale(0.015625)"/>
       </defs>
       <use xlink:href="#DejaVuSans-30"/>
       <use xlink:href="#DejaVuSans-2e" transform="translate(63.623047 0)"/>
       <use xlink:href="#DejaVuSans-32" transform="translate(95.410156 0)"/>
      </g>
     </g>
    </g>
    <g id="xtick_3">
     <g id="line2d_5">
      <path d="M 229.358817 365.2 
L 229.358817 79.08 
" clip-path="url(#p849a29024e)" style="fill: none; stroke-dasharray: 2.96,1.28; stroke-dashoffset: 0; stroke: #b0b0b0; stroke-opacity: 0.25; stroke-width: 0.8"/>
     </g>
     <g id="line2d_6">
      <g>
       <use xlink:href="#md5660b1d27" x="229.358817" y="365.2" style="stroke: #000000; stroke-width: 0.8"/>
      </g>
     </g>
     <g id="text_3">
      <!-- 0.4 -->
      <g transform="translate(219.816942 381.318125) scale(0.12 -0.12)">
       <defs>
        <path id="DejaVuSans-34" d="M 2419 4116 
L 825 1625 
L 2419 1625 
L 2419 4116 
z
M 2253 4666 
L 3047 4666 
L 3047 1625 
L 3713 1625 
L 3713 1100 
L 3047 1100 
L 3047 0 
L 2419 0 
L 2419 1100 
L 313 1100 
L 313 1709 
L 2253 4666 
z
" transform="scale(0.015625)"/>
       </defs>
       <use xlink:href="#DejaVuSans-30"/>
       <use xlink:href="#DejaVuSans-2e" transform="translate(63.623047 0)"/>
       <use xlink:href="#DejaVuSans-34" transform="translate(95.410156 0)"/>
      </g>
     </g>
    </g>
    <g id="xtick_4">
     <g id="line2d_7">
      <path d="M 311.1962 365.2 
L 311.1962 79.08 
" clip-path="url(#p849a29024e)" style="fill: none; stroke-dasharray: 2.96,1.28; stroke-dashoffset: 0; stroke: #b0b0b0; stroke-opacity: 0.25; stroke-width: 0.8"/>
     </g>
     <g id="line2d_8">
      <g>
       <use xlink:href="#md5660b1d27" x="311.1962" y="365.2" style="stroke: #000000; stroke-width: 0.8"/>
      </g>
     </g>
     <g id="text_4">
      <!-- 0.6 -->
      <g transform="translate(301.654325 381.318125) scale(0.12 -0.12)">
       <defs>
        <path id="DejaVuSans-36" d="M 2113 2584 
Q 1688 2584 1439 2293 
Q 1191 2003 1191 1497 
Q 1191 994 1439 701 
Q 1688 409 2113 409 
Q 2538 409 2786 701 
Q 3034 994 3034 1497 
Q 3034 2003 2786 2293 
Q 2538 2584 2113 2584 
z
M 3366 4563 
L 3366 3988 
Q 3128 4100 2886 4159 
Q 2644 4219 2406 4219 
Q 1781 4219 1451 3797 
Q 1122 3375 1075 2522 
Q 1259 2794 1537 2939 
Q 1816 3084 2150 3084 
Q 2853 3084 3261 2657 
Q 3669 2231 3669 1497 
Q 3669 778 3244 343 
Q 2819 -91 2113 -91 
Q 1303 -91 875 529 
Q 447 1150 447 2328 
Q 447 3434 972 4092 
Q 1497 4750 2381 4750 
Q 2619 4750 2861 4703 
Q 3103 4656 3366 4563 
z
" transform="scale(0.015625)"/>
       </defs>
       <use xlink:href="#DejaVuSans-30"/>
       <use xlink:href="#DejaVuSans-2e" transform="translate(63.623047 0)"/>
       <use xlink:href="#DejaVuSans-36" transform="translate(95.410156 0)"/>
      </g>
     </g>
    </g>
    <g id="xtick_5">
     <g id="line2d_9">
      <path d="M 393.033584 365.2 
L 393.033584 79.08 
" clip-path="url(#p849a29024e)" style="fill: none; stroke-dasharray: 2.96,1.28; stroke-dashoffset: 0; stroke: #b0b0b0; stroke-opacity: 0.25; stroke-width: 0.8"/>
     </g>
     <g id="line2d_10">
      <g>
       <use xlink:href="#md5660b1d27" x="393.033584" y="365.2" style="stroke: #000000; stroke-width: 0.8"/>
      </g>
     </g>
     <g id="text_5">
      <!-- 0.8 -->
      <g transform="translate(383.491709 381.318125) scale(0.12 -0.12)">
       <defs>
        <path id="DejaVuSans-38" d="M 2034 2216 
Q 1584 2216 1326 1975 
Q 1069 1734 1069 1313 
Q 1069 891 1326 650 
Q 1584 409 2034 409 
Q 2484 409 2743 651 
Q 3003 894 3003 1313 
Q 3003 1734 2745 1975 
Q 2488 2216 2034 2216 
z
M 1403 2484 
Q 997 2584 770 2862 
Q 544 3141 544 3541 
Q 544 4100 942 4425 
Q 1341 4750 2034 4750 
Q 2731 4750 3128 4425 
Q 3525 4100 3525 3541 
Q 3525 3141 3298 2862 
Q 3072 2584 2669 2484 
Q 3125 2378 3379 2068 
Q 3634 1759 3634 1313 
Q 3634 634 3220 271 
Q 2806 -91 2034 -91 
Q 1263 -91 848 271 
Q 434 634 434 1313 
Q 434 1759 690 2068 
Q 947 2378 1403 2484 
z
M 1172 3481 
Q 1172 3119 1398 2916 
Q 1625 2713 2034 2713 
Q 2441 2713 2670 2916 
Q 2900 3119 2900 3481 
Q 2900 3844 2670 4047 
Q 2441 4250 2034 4250 
Q 1625 4250 1398 4047 
Q 1172 3844 1172 3481 
z
" transform="scale(0.015625)"/>
       </defs>
       <use xlink:href="#DejaVuSans-30"/>
       <use xlink:href="#DejaVuSans-2e" transform="translate(63.623047 0)"/>
       <use xlink:href="#DejaVuSans-38" transform="translate(95.410156 0)"/>
      </g>
     </g>
    </g>
    <g id="xtick_6">
     <g id="line2d_11">
      <path d="M 474.870967 365.2 
L 474.870967 79.08 
" clip-path="url(#p849a29024e)" style="fill: none; stroke-dasharray: 2.96,1.28; stroke-dashoffset: 0; stroke: #b0b0b0; stroke-opacity: 0.25; stroke-width: 0.8"/>
     </g>
     <g id="line2d_12">
      <g>
       <use xlink:href="#md5660b1d27" x="474.870967" y="365.2" style="stroke: #000000; stroke-width: 0.8"/>
      </g>
     </g>
     <g id="text_6">
      <!-- 1.0 -->
      <g transform="translate(465.329092 381.318125) scale(0.12 -0.12)">
       <defs>
        <path id="DejaVuSans-31" d="M 794 531 
L 1825 531 
L 1825 4091 
L 703 3866 
L 703 4441 
L 1819 4666 
L 2450 4666 
L 2450 531 
L 3481 531 
L 3481 0 
L 794 0 
L 794 531 
z
" transform="scale(0.015625)"/>
       </defs>
       <use xlink:href="#DejaVuSans-31"/>
       <use xlink:href="#DejaVuSans-2e" transform="translate(63.623047 0)"/>
       <use xlink:href="#DejaVuSans-30" transform="translate(95.410156 0)"/>
      </g>
     </g>
    </g>
    <g id="text_7">
     <!-- Coverage -->
     <g transform="translate(245.271172 397.691719) scale(0.13 -0.13)">
      <defs>
       <path id="DejaVuSans-43" d="M 4122 4306 
L 4122 3641 
Q 3803 3938 3442 4084 
Q 3081 4231 2675 4231 
Q 1875 4231 1450 3742 
Q 1025 3253 1025 2328 
Q 1025 1406 1450 917 
Q 1875 428 2675 428 
Q 3081 428 3442 575 
Q 3803 722 4122 1019 
L 4122 359 
Q 3791 134 3420 21 
Q 3050 -91 2638 -91 
Q 1578 -91 968 557 
Q 359 1206 359 2328 
Q 359 3453 968 4101 
Q 1578 4750 2638 4750 
Q 3056 4750 3426 4639 
Q 3797 4528 4122 4306 
z
" transform="scale(0.015625)"/>
       <path id="DejaVuSans-6f" d="M 1959 3097 
Q 1497 3097 1228 2736 
Q 959 2375 959 1747 
Q 959 1119 1226 758 
Q 1494 397 1959 397 
Q 2419 397 2687 759 
Q 2956 1122 2956 1747 
Q 2956 2369 2687 2733 
Q 2419 3097 1959 3097 
z
M 1959 3584 
Q 2709 3584 3137 3096 
Q 3566 2609 3566 1747 
Q 3566 888 3137 398 
Q 2709 -91 1959 -91 
Q 1206 -91 779 398 
Q 353 888 353 1747 
Q 353 2609 779 3096 
Q 1206 3584 1959 3584 
z
" transform="scale(0.015625)"/>
       <path id="DejaVuSans-76" d="M 191 3500 
L 800 3500 
L 1894 563 
L 2988 3500 
L 3597 3500 
L 2284 0 
L 1503 0 
L 191 3500 
z
" transform="scale(0.015625)"/>
       <path id="DejaVuSans-65" d="M 3597 1894 
L 3597 1613 
L 953 1613 
Q 991 1019 1311 708 
Q 1631 397 2203 397 
Q 2534 397 2845 478 
Q 3156 559 3463 722 
L 3463 178 
Q 3153 47 2828 -22 
Q 2503 -91 2169 -91 
Q 1331 -91 842 396 
Q 353 884 353 1716 
Q 353 2575 817 3079 
Q 1281 3584 2069 3584 
Q 2775 3584 3186 3129 
Q 3597 2675 3597 1894 
z
M 3022 2063 
Q 3016 2534 2758 2815 
Q 2500 3097 2075 3097 
Q 1594 3097 1305 2825 
Q 1016 2553 972 2059 
L 3022 2063 
z
" transform="scale(0.015625)"/>
       <path id="DejaVuSans-72" d="M 2631 2963 
Q 2534 3019 2420 3045 
Q 2306 3072 2169 3072 
Q 1681 3072 1420 2755 
Q 1159 2438 1159 1844 
L 1159 0 
L 581 0 
L 581 3500 
L 1159 3500 
L 1159 2956 
Q 1341 3275 1631 3429 
Q 1922 3584 2338 3584 
Q 2397 3584 2469 3576 
Q 2541 3569 2628 3553 
L 2631 2963 
z
" transform="scale(0.015625)"/>
       <path id="DejaVuSans-61" d="M 2194 1759 
Q 1497 1759 1228 1600 
Q 959 1441 959 1056 
Q 959 750 1161 570 
Q 1363 391 1709 391 
Q 2188 391 2477 730 
Q 2766 1069 2766 1631 
L 2766 1759 
L 2194 1759 
z
M 3341 1997 
L 3341 0 
L 2766 0 
L 2766 531 
Q 2569 213 2275 61 
Q 1981 -91 1556 -91 
Q 1019 -91 701 211 
Q 384 513 384 1019 
Q 384 1609 779 1909 
Q 1175 2209 1959 2209 
L 2766 2209 
L 2766 2266 
Q 2766 2663 2505 2880 
Q 2244 3097 1772 3097 
Q 1472 3097 1187 3025 
Q 903 2953 641 2809 
L 641 3341 
Q 956 3463 1253 3523 
Q 1550 3584 1831 3584 
Q 2591 3584 2966 3190 
Q 3341 2797 3341 1997 
z
" transform="scale(0.015625)"/>
       <path id="DejaVuSans-67" d="M 2906 1791 
Q 2906 2416 2648 2759 
Q 2391 3103 1925 3103 
Q 1463 3103 1205 2759 
Q 947 2416 947 1791 
Q 947 1169 1205 825 
Q 1463 481 1925 481 
Q 2391 481 2648 825 
Q 2906 1169 2906 1791 
z
M 3481 434 
Q 3481 -459 3084 -895 
Q 2688 -1331 1869 -1331 
Q 1566 -1331 1297 -1286 
Q 1028 -1241 775 -1147 
L 775 -588 
Q 1028 -725 1275 -790 
Q 1522 -856 1778 -856 
Q 2344 -856 2625 -561 
Q 2906 -266 2906 331 
L 2906 616 
Q 2728 306 2450 153 
Q 2172 0 1784 0 
Q 1141 0 747 490 
Q 353 981 353 1791 
Q 353 2603 747 3093 
Q 1141 3584 1784 3584 
Q 2172 3584 2450 3431 
Q 2728 3278 2906 2969 
L 2906 3500 
L 3481 3500 
L 3481 434 
z
" transform="scale(0.015625)"/>
      </defs>
      <use xlink:href="#DejaVuSans-43"/>
      <use xlink:href="#DejaVuSans-6f" transform="translate(69.824219 0)"/>
      <use xlink:href="#DejaVuSans-76" transform="translate(131.005859 0)"/>
      <use xlink:href="#DejaVuSans-65" transform="translate(190.185547 0)"/>
      <use xlink:href="#DejaVuSans-72" transform="translate(251.708984 0)"/>
      <use xlink:href="#DejaVuSans-61" transform="translate(292.822266 0)"/>
      <use xlink:href="#DejaVuSans-67" transform="translate(354.101562 0)"/>
      <use xlink:href="#DejaVuSans-65" transform="translate(417.578125 0)"/>
     </g>
    </g>
   </g>
   <g id="matplotlib.axis_2">
    <g id="ytick_1">
     <g id="line2d_13">
      <path d="M 57.500313 360.076639 
L 495.330312 360.076639 
" clip-path="url(#p849a29024e)" style="fill: none; stroke-dasharray: 2.96,1.28; stroke-dashoffset: 0; stroke: #b0b0b0; stroke-opacity: 0.25; stroke-width: 0.8"/>
     </g>
     <g id="line2d_14">
      <defs>
       <path id="m99e39ca860" d="M 0 0 
L -3.5 0 
" style="stroke: #000000; stroke-width: 0.8"/>
      </defs>
      <g>
       <use xlink:href="#m99e39ca860" x="57.500313" y="360.076639" style="stroke: #000000; stroke-width: 0.8"/>
      </g>
     </g>
     <g id="text_8">
      <!-- 0.65 -->
      <g transform="translate(23.781563 364.635702) scale(0.12 -0.12)">
       <defs>
        <path id="DejaVuSans-35" d="M 691 4666 
L 3169 4666 
L 3169 4134 
L 1269 4134 
L 1269 2991 
Q 1406 3038 1543 3061 
Q 1681 3084 1819 3084 
Q 2600 3084 3056 2656 
Q 3513 2228 3513 1497 
Q 3513 744 3044 326 
Q 2575 -91 1722 -91 
Q 1428 -91 1123 -41 
Q 819 9 494 109 
L 494 744 
Q 775 591 1075 516 
Q 1375 441 1709 441 
Q 2250 441 2565 725 
Q 2881 1009 2881 1497 
Q 2881 1984 2565 2268 
Q 2250 2553 1709 2553 
Q 1456 2553 1204 2497 
Q 953 2441 691 2322 
L 691 4666 
z
" transform="scale(0.015625)"/>
       </defs>
       <use xlink:href="#DejaVuSans-30"/>
       <use xlink:href="#DejaVuSans-2e" transform="translate(63.623047 0)"/>
       <use xlink:href="#DejaVuSans-36" transform="translate(95.410156 0)"/>
       <use xlink:href="#DejaVuSans-35" transform="translate(159.033203 0)"/>
      </g>
     </g>
    </g>
    <g id="ytick_2">
     <g id="line2d_15">
      <path d="M 57.500313 320.666171 
L 495.330312 320.666171 
" clip-path="url(#p849a29024e)" style="fill: none; stroke-dasharray: 2.96,1.28; stroke-dashoffset: 0; stroke: #b0b0b0; stroke-opacity: 0.25; stroke-width: 0.8"/>
     </g>
     <g id="line2d_16">
      <g>
       <use xlink:href="#m99e39ca860" x="57.500313" y="320.666171" style="stroke: #000000; stroke-width: 0.8"/>
      </g>
     </g>
     <g id="text_9">
      <!-- 0.70 -->
      <g transform="translate(23.781563 325.225233) scale(0.12 -0.12)">
       <defs>
        <path id="DejaVuSans-37" d="M 525 4666 
L 3525 4666 
L 3525 4397 
L 1831 0 
L 1172 0 
L 2766 4134 
L 525 4134 
L 525 4666 
z
" transform="scale(0.015625)"/>
       </defs>
       <use xlink:href="#DejaVuSans-30"/>
       <use xlink:href="#DejaVuSans-2e" transform="translate(63.623047 0)"/>
       <use xlink:href="#DejaVuSans-37" transform="translate(95.410156 0)"/>
       <use xlink:href="#DejaVuSans-30" transform="translate(159.033203 0)"/>
      </g>
     </g>
    </g>
    <g id="ytick_3">
     <g id="line2d_17">
      <path d="M 57.500313 281.255702 
L 495.330312 281.255702 
" clip-path="url(#p849a29024e)" style="fill: none; stroke-dasharray: 2.96,1.28; stroke-dashoffset: 0; stroke: #b0b0b0; stroke-opacity: 0.25; stroke-width: 0.8"/>
     </g>
     <g id="line2d_18">
      <g>
       <use xlink:href="#m99e39ca860" x="57.500313" y="281.255702" style="stroke: #000000; stroke-width: 0.8"/>
      </g>
     </g>
     <g id="text_10">
      <!-- 0.75 -->
      <g transform="translate(23.781563 285.814765) scale(0.12 -0.12)">
       <use xlink:href="#DejaVuSans-30"/>
       <use xlink:href="#DejaVuSans-2e" transform="translate(63.623047 0)"/>
       <use xlink:href="#DejaVuSans-37" transform="translate(95.410156 0)"/>
       <use xlink:href="#DejaVuSans-35" transform="translate(159.033203 0)"/>
      </g>
     </g>
    </g>
    <g id="ytick_4">
     <g id="line2d_19">
      <path d="M 57.500313 241.845234 
L 495.330312 241.845234 
" clip-path="url(#p849a29024e)" style="fill: none; stroke-dasharray: 2.96,1.28; stroke-dashoffset: 0; stroke: #b0b0b0; stroke-opacity: 0.25; stroke-width: 0.8"/>
     </g>
     <g id="line2d_20">
      <g>
       <use xlink:href="#m99e39ca860" x="57.500313" y="241.845234" style="stroke: #000000; stroke-width: 0.8"/>
      </g>
     </g>
     <g id="text_11">
      <!-- 0.80 -->
      <g transform="translate(23.781563 246.404297) scale(0.12 -0.12)">
       <use xlink:href="#DejaVuSans-30"/>
       <use xlink:href="#DejaVuSans-2e" transform="translate(63.623047 0)"/>
       <use xlink:href="#DejaVuSans-38" transform="translate(95.410156 0)"/>
       <use xlink:href="#DejaVuSans-30" transform="translate(159.033203 0)"/>
      </g>
     </g>
    </g>
    <g id="ytick_5">
     <g id="line2d_21">
      <path d="M 57.500313 202.434766 
L 495.330312 202.434766 
" clip-path="url(#p849a29024e)" style="fill: none; stroke-dasharray: 2.96,1.28; stroke-dashoffset: 0; stroke: #b0b0b0; stroke-opacity: 0.25; stroke-width: 0.8"/>
     </g>
     <g id="line2d_22">
      <g>
       <use xlink:href="#m99e39ca860" x="57.500313" y="202.434766" style="stroke: #000000; stroke-width: 0.8"/>
      </g>
     </g>
     <g id="text_12">
      <!-- 0.85 -->
      <g transform="translate(23.781563 206.993828) scale(0.12 -0.12)">
       <use xlink:href="#DejaVuSans-30"/>
       <use xlink:href="#DejaVuSans-2e" transform="translate(63.623047 0)"/>
       <use xlink:href="#DejaVuSans-38" transform="translate(95.410156 0)"/>
       <use xlink:href="#DejaVuSans-35" transform="translate(159.033203 0)"/>
      </g>
     </g>
    </g>
    <g id="ytick_6">
     <g id="line2d_23">
      <path d="M 57.500313 163.024298 
L 495.330312 163.024298 
" clip-path="url(#p849a29024e)" style="fill: none; stroke-dasharray: 2.96,1.28; stroke-dashoffset: 0; stroke: #b0b0b0; stroke-opacity: 0.25; stroke-width: 0.8"/>
     </g>
     <g id="line2d_24">
      <g>
       <use xlink:href="#m99e39ca860" x="57.500313" y="163.024298" style="stroke: #000000; stroke-width: 0.8"/>
      </g>
     </g>
     <g id="text_13">
      <!-- 0.90 -->
      <g transform="translate(23.781563 167.58336) scale(0.12 -0.12)">
       <defs>
        <path id="DejaVuSans-39" d="M 703 97 
L 703 672 
Q 941 559 1184 500 
Q 1428 441 1663 441 
Q 2288 441 2617 861 
Q 2947 1281 2994 2138 
Q 2813 1869 2534 1725 
Q 2256 1581 1919 1581 
Q 1219 1581 811 2004 
Q 403 2428 403 3163 
Q 403 3881 828 4315 
Q 1253 4750 1959 4750 
Q 2769 4750 3195 4129 
Q 3622 3509 3622 2328 
Q 3622 1225 3098 567 
Q 2575 -91 1691 -91 
Q 1453 -91 1209 -44 
Q 966 3 703 97 
z
M 1959 2075 
Q 2384 2075 2632 2365 
Q 2881 2656 2881 3163 
Q 2881 3666 2632 3958 
Q 2384 4250 1959 4250 
Q 1534 4250 1286 3958 
Q 1038 3666 1038 3163 
Q 1038 2656 1286 2365 
Q 1534 2075 1959 2075 
z
" transform="scale(0.015625)"/>
       </defs>
       <use xlink:href="#DejaVuSans-30"/>
       <use xlink:href="#DejaVuSans-2e" transform="translate(63.623047 0)"/>
       <use xlink:href="#DejaVuSans-39" transform="translate(95.410156 0)"/>
       <use xlink:href="#DejaVuSans-30" transform="translate(159.033203 0)"/>
      </g>
     </g>
    </g>
    <g id="ytick_7">
     <g id="line2d_25">
      <path d="M 57.500313 123.613829 
L 495.330312 123.613829 
" clip-path="url(#p849a29024e)" style="fill: none; stroke-dasharray: 2.96,1.28; stroke-dashoffset: 0; stroke: #b0b0b0; stroke-opacity: 0.25; stroke-width: 0.8"/>
     </g>
     <g id="line2d_26">
      <g>
       <use xlink:href="#m99e39ca860" x="57.500313" y="123.613829" style="stroke: #000000; stroke-width: 0.8"/>
      </g>
     </g>
     <g id="text_14">
      <!-- 0.95 -->
      <g transform="translate(23.781563 128.172892) scale(0.12 -0.12)">
       <use xlink:href="#DejaVuSans-30"/>
       <use xlink:href="#DejaVuSans-2e" transform="translate(63.623047 0)"/>
       <use xlink:href="#DejaVuSans-39" transform="translate(95.410156 0)"/>
       <use xlink:href="#DejaVuSans-35" transform="translate(159.033203 0)"/>
      </g>
     </g>
    </g>
    <g id="ytick_8">
     <g id="line2d_27">
      <path d="M 57.500313 84.203361 
L 495.330312 84.203361 
" clip-path="url(#p849a29024e)" style="fill: none; stroke-dasharray: 2.96,1.28; stroke-dashoffset: 0; stroke: #b0b0b0; stroke-opacity: 0.25; stroke-width: 0.8"/>
     </g>
     <g id="line2d_28">
      <g>
       <use xlink:href="#m99e39ca860" x="57.500313" y="84.203361" style="stroke: #000000; stroke-width: 0.8"/>
      </g>
     </g>
     <g id="text_15">
      <!-- 1.00 -->
      <g transform="translate(23.781563 88.762423) scale(0.12 -0.12)">
       <use xlink:href="#DejaVuSans-31"/>
       <use xlink:href="#DejaVuSans-2e" transform="translate(63.623047 0)"/>
       <use xlink:href="#DejaVuSans-30" transform="translate(95.410156 0)"/>
       <use xlink:href="#DejaVuSans-30" transform="translate(159.033203 0)"/>
      </g>
     </g>
    </g>
    <g id="text_16">
     <!-- System Accuracy -->
     <g transform="translate(17.077969 278.12125) rotate(-90) scale(0.13 -0.13)">
      <defs>
       <path id="DejaVuSans-53" d="M 3425 4513 
L 3425 3897 
Q 3066 4069 2747 4153 
Q 2428 4238 2131 4238 
Q 1616 4238 1336 4038 
Q 1056 3838 1056 3469 
Q 1056 3159 1242 3001 
Q 1428 2844 1947 2747 
L 2328 2669 
Q 3034 2534 3370 2195 
Q 3706 1856 3706 1288 
Q 3706 609 3251 259 
Q 2797 -91 1919 -91 
Q 1588 -91 1214 -16 
Q 841 59 441 206 
L 441 856 
Q 825 641 1194 531 
Q 1563 422 1919 422 
Q 2459 422 2753 634 
Q 3047 847 3047 1241 
Q 3047 1584 2836 1778 
Q 2625 1972 2144 2069 
L 1759 2144 
Q 1053 2284 737 2584 
Q 422 2884 422 3419 
Q 422 4038 858 4394 
Q 1294 4750 2059 4750 
Q 2388 4750 2728 4690 
Q 3069 4631 3425 4513 
z
" transform="scale(0.015625)"/>
       <path id="DejaVuSans-79" d="M 2059 -325 
Q 1816 -950 1584 -1140 
Q 1353 -1331 966 -1331 
L 506 -1331 
L 506 -850 
L 844 -850 
Q 1081 -850 1212 -737 
Q 1344 -625 1503 -206 
L 1606 56 
L 191 3500 
L 800 3500 
L 1894 763 
L 2988 3500 
L 3597 3500 
L 2059 -325 
z
" transform="scale(0.015625)"/>
       <path id="DejaVuSans-73" d="M 2834 3397 
L 2834 2853 
Q 2591 2978 2328 3040 
Q 2066 3103 1784 3103 
Q 1356 3103 1142 2972 
Q 928 2841 928 2578 
Q 928 2378 1081 2264 
Q 1234 2150 1697 2047 
L 1894 2003 
Q 2506 1872 2764 1633 
Q 3022 1394 3022 966 
Q 3022 478 2636 193 
Q 2250 -91 1575 -91 
Q 1294 -91 989 -36 
Q 684 19 347 128 
L 347 722 
Q 666 556 975 473 
Q 1284 391 1588 391 
Q 1994 391 2212 530 
Q 2431 669 2431 922 
Q 2431 1156 2273 1281 
Q 2116 1406 1581 1522 
L 1381 1569 
Q 847 1681 609 1914 
Q 372 2147 372 2553 
Q 372 3047 722 3315 
Q 1072 3584 1716 3584 
Q 2034 3584 2315 3537 
Q 2597 3491 2834 3397 
z
" transform="scale(0.015625)"/>
       <path id="DejaVuSans-74" d="M 1172 4494 
L 1172 3500 
L 2356 3500 
L 2356 3053 
L 1172 3053 
L 1172 1153 
Q 1172 725 1289 603 
Q 1406 481 1766 481 
L 2356 481 
L 2356 0 
L 1766 0 
Q 1100 0 847 248 
Q 594 497 594 1153 
L 594 3053 
L 172 3053 
L 172 3500 
L 594 3500 
L 594 4494 
L 1172 4494 
z
" transform="scale(0.015625)"/>
       <path id="DejaVuSans-6d" d="M 3328 2828 
Q 3544 3216 3844 3400 
Q 4144 3584 4550 3584 
Q 5097 3584 5394 3201 
Q 5691 2819 5691 2113 
L 5691 0 
L 5113 0 
L 5113 2094 
Q 5113 2597 4934 2840 
Q 4756 3084 4391 3084 
Q 3944 3084 3684 2787 
Q 3425 2491 3425 1978 
L 3425 0 
L 2847 0 
L 2847 2094 
Q 2847 2600 2669 2842 
Q 2491 3084 2119 3084 
Q 1678 3084 1418 2786 
Q 1159 2488 1159 1978 
L 1159 0 
L 581 0 
L 581 3500 
L 1159 3500 
L 1159 2956 
Q 1356 3278 1631 3431 
Q 1906 3584 2284 3584 
Q 2666 3584 2933 3390 
Q 3200 3197 3328 2828 
z
" transform="scale(0.015625)"/>
       <path id="DejaVuSans-20" transform="scale(0.015625)"/>
       <path id="DejaVuSans-41" d="M 2188 4044 
L 1331 1722 
L 3047 1722 
L 2188 4044 
z
M 1831 4666 
L 2547 4666 
L 4325 0 
L 3669 0 
L 3244 1197 
L 1141 1197 
L 716 0 
L 50 0 
L 1831 4666 
z
" transform="scale(0.015625)"/>
       <path id="DejaVuSans-63" d="M 3122 3366 
L 3122 2828 
Q 2878 2963 2633 3030 
Q 2388 3097 2138 3097 
Q 1578 3097 1268 2742 
Q 959 2388 959 1747 
Q 959 1106 1268 751 
Q 1578 397 2138 397 
Q 2388 397 2633 464 
Q 2878 531 3122 666 
L 3122 134 
Q 2881 22 2623 -34 
Q 2366 -91 2075 -91 
Q 1284 -91 818 406 
Q 353 903 353 1747 
Q 353 2603 823 3093 
Q 1294 3584 2113 3584 
Q 2378 3584 2631 3529 
Q 2884 3475 3122 3366 
z
" transform="scale(0.015625)"/>
       <path id="DejaVuSans-75" d="M 544 1381 
L 544 3500 
L 1119 3500 
L 1119 1403 
Q 1119 906 1312 657 
Q 1506 409 1894 409 
Q 2359 409 2629 706 
Q 2900 1003 2900 1516 
L 2900 3500 
L 3475 3500 
L 3475 0 
L 2900 0 
L 2900 538 
Q 2691 219 2414 64 
Q 2138 -91 1772 -91 
Q 1169 -91 856 284 
Q 544 659 544 1381 
z
M 1991 3584 
L 1991 3584 
z
" transform="scale(0.015625)"/>
      </defs>
      <use xlink:href="#DejaVuSans-53"/>
      <use xlink:href="#DejaVuSans-79" transform="translate(63.476562 0)"/>
      <use xlink:href="#DejaVuSans-73" transform="translate(122.65625 0)"/>
      <use xlink:href="#DejaVuSans-74" transform="translate(174.755859 0)"/>
      <use xlink:href="#DejaVuSans-65" transform="translate(213.964844 0)"/>
      <use xlink:href="#DejaVuSans-6d" transform="translate(275.488281 0)"/>
      <use xlink:href="#DejaVuSans-20" transform="translate(372.900391 0)"/>
      <use xlink:href="#DejaVuSans-41" transform="translate(404.6875 0)"/>
      <use xlink:href="#DejaVuSans-63" transform="translate(471.345703 0)"/>
      <use xlink:href="#DejaVuSans-63" transform="translate(526.326172 0)"/>
      <use xlink:href="#DejaVuSans-75" transform="translate(581.306641 0)"/>
      <use xlink:href="#DejaVuSans-72" transform="translate(644.685547 0)"/>
      <use xlink:href="#DejaVuSans-61" transform="translate(685.798828 0)"/>
      <use xlink:href="#DejaVuSans-63" transform="translate(747.078125 0)"/>
      <use xlink:href="#DejaVuSans-79" transform="translate(802.058594 0)"/>
     </g>
    </g>
   </g>
   <g id="line2d_29">
    <path d="M 65.684051 293.078843 
L 65.684051 285.196749 
L 65.684051 324.607218 
L 65.684051 269.432562 
L 65.684051 257.609421 
L 65.684051 352.194545 
L 65.684051 281.255702 
L 65.684051 269.432562 
L 65.684051 293.078843 
L 65.684051 297.01989 
L 65.684051 312.784077 
L 65.684051 273.373609 
L 65.684051 316.725124 
L 65.684051 293.078843 
L 71.821855 340.371405 
L 80.005593 245.786281 
L 88.189331 261.550468 
L 98.419004 289.137796 
L 108.648677 277.314656 
L 114.786481 249.727328 
L 116.832415 261.550468 
L 116.832415 210.31686 
L 116.832415 245.786281 
L 118.87835 245.786281 
L 118.87835 285.196749 
L 118.87835 261.550468 
L 118.87835 233.96314 
L 118.87835 285.196749 
L 125.016154 245.786281 
L 137.291761 241.845234 
L 147.521434 269.432562 
L 174.118584 233.96314 
L 212.991341 273.373609 
L 278.461247 233.96314 
L 327.563677 253.668375 
L 390.987649 233.96314 
L 433.952275 222.14 
L 450.319752 214.257906 
L 460.549425 218.198953 
L 466.687228 214.257906 
" clip-path="url(#p849a29024e)" style="fill: none; stroke: #1f77b4; stroke-width: 2.5; stroke-linecap: square"/>
    <defs>
     <path id="m66db249c4b" d="M 0 2 
C 0.530406 2 1.03916 1.789267 1.414214 1.414214 
C 1.789267 1.03916 2 0.530406 2 0 
C 2 -0.530406 1.789267 -1.03916 1.414214 -1.414214 
C 1.03916 -1.789267 0.530406 -2 0 -2 
C -0.530406 -2 -1.03916 -1.789267 -1.414214 -1.414214 
C -1.789267 -1.03916 -2 -0.530406 -2 0 
C -2 0.530406 -1.789267 1.03916 -1.414214 1.414214 
C -1.03916 1.789267 -0.530406 2 0 2 
z
" style="stroke: #1f77b4"/>
    </defs>
    <g clip-path="url(#p849a29024e)">
     <use xlink:href="#m66db249c4b" x="65.684051" y="293.078843" style="fill: #1f77b4; stroke: #1f77b4"/>
     <use xlink:href="#m66db249c4b" x="65.684051" y="352.194545" style="fill: #1f77b4; stroke: #1f77b4"/>
     <use xlink:href="#m66db249c4b" x="65.684051" y="312.784077" style="fill: #1f77b4; stroke: #1f77b4"/>
     <use xlink:href="#m66db249c4b" x="80.005593" y="245.786281" style="fill: #1f77b4; stroke: #1f77b4"/>
     <use xlink:href="#m66db249c4b" x="116.832415" y="261.550468" style="fill: #1f77b4; stroke: #1f77b4"/>
     <use xlink:href="#m66db249c4b" x="118.87835" y="261.550468" style="fill: #1f77b4; stroke: #1f77b4"/>
     <use xlink:href="#m66db249c4b" x="147.521434" y="269.432562" style="fill: #1f77b4; stroke: #1f77b4"/>
     <use xlink:href="#m66db249c4b" x="390.987649" y="233.96314" style="fill: #1f77b4; stroke: #1f77b4"/>
    </g>
   </g>
   <g id="line2d_30">
    <path d="M 65.684051 214.257906 
L 65.684051 210.31686 
L 65.684051 261.550468 
L 65.684051 206.375813 
L 65.684051 198.493719 
L 65.684051 265.491515 
L 65.684051 210.31686 
L 65.684051 210.31686 
L 65.684051 206.375813 
L 65.684051 190.611625 
L 65.684051 226.081047 
L 65.684051 206.375813 
L 65.684051 241.845234 
L 65.684051 210.31686 
L 71.821855 233.96314 
L 80.005593 190.611625 
L 88.189331 178.788485 
L 98.419004 214.257906 
L 108.648677 190.611625 
L 114.786481 178.788485 
L 116.832415 186.670579 
L 116.832415 166.965344 
L 116.832415 174.847438 
L 118.87835 190.611625 
L 118.87835 202.434766 
L 118.87835 194.552672 
L 118.87835 186.670579 
L 118.87835 210.31686 
L 125.016154 198.493719 
L 137.291761 170.906391 
L 147.521434 210.31686 
L 174.118584 182.729532 
L 212.991341 202.434766 
L 278.461247 198.493719 
L 327.563677 210.31686 
L 390.987649 214.257906 
L 433.952275 210.31686 
L 450.319752 214.257906 
L 460.549425 218.198953 
L 466.687228 214.257906 
" clip-path="url(#p849a29024e)" style="fill: none; stroke: #ff7f0e; stroke-width: 2.5; stroke-linecap: square"/>
    <defs>
     <path id="m5f47564abb" d="M 0 2 
C 0.530406 2 1.03916 1.789267 1.414214 1.414214 
C 1.789267 1.03916 2 0.530406 2 0 
C 2 -0.530406 1.789267 -1.03916 1.414214 -1.414214 
C 1.03916 -1.789267 0.530406 -2 0 -2 
C -0.530406 -2 -1.03916 -1.789267 -1.414214 -1.414214 
C -1.789267 -1.03916 -2 -0.530406 -2 0 
C -2 0.530406 -1.789267 1.03916 -1.414214 1.414214 
C -1.03916 1.789267 -0.530406 2 0 2 
z
" style="stroke: #ff7f0e"/>
    </defs>
    <g clip-path="url(#p849a29024e)">
     <use xlink:href="#m5f47564abb" x="65.684051" y="214.257906" style="fill: #ff7f0e; stroke: #ff7f0e"/>
     <use xlink:href="#m5f47564abb" x="65.684051" y="265.491515" style="fill: #ff7f0e; stroke: #ff7f0e"/>
     <use xlink:href="#m5f47564abb" x="65.684051" y="226.081047" style="fill: #ff7f0e; stroke: #ff7f0e"/>
     <use xlink:href="#m5f47564abb" x="80.005593" y="190.611625" style="fill: #ff7f0e; stroke: #ff7f0e"/>
     <use xlink:href="#m5f47564abb" x="116.832415" y="186.670579" style="fill: #ff7f0e; stroke: #ff7f0e"/>
     <use xlink:href="#m5f47564abb" x="118.87835" y="194.552672" style="fill: #ff7f0e; stroke: #ff7f0e"/>
     <use xlink:href="#m5f47564abb" x="147.521434" y="210.31686" style="fill: #ff7f0e; stroke: #ff7f0e"/>
     <use xlink:href="#m5f47564abb" x="390.987649" y="214.257906" style="fill: #ff7f0e; stroke: #ff7f0e"/>
    </g>
   </g>
   <g id="line2d_31">
    <path d="M 65.684051 127.554876 
L 65.684051 139.378017 
L 65.684051 166.965344 
L 65.684051 115.731736 
L 65.684051 115.731736 
L 65.684051 143.319063 
L 65.684051 139.378017 
L 65.684051 131.495923 
L 65.684051 135.43697 
L 65.684051 123.613829 
L 65.684051 127.554876 
L 65.684051 123.613829 
L 65.684051 147.26011 
L 65.684051 163.024298 
L 71.821855 139.378017 
L 80.005593 135.43697 
L 88.189331 107.849642 
L 98.419004 135.43697 
L 108.648677 135.43697 
L 114.786481 131.495923 
L 116.832415 119.672782 
L 116.832415 111.790689 
L 116.832415 131.495923 
L 118.87835 127.554876 
L 118.87835 119.672782 
L 118.87835 135.43697 
L 118.87835 131.495923 
L 118.87835 115.731736 
L 125.016154 163.024298 
L 137.291761 119.672782 
L 147.521434 143.319063 
L 174.118584 139.378017 
L 212.991341 147.26011 
L 278.461247 166.965344 
L 327.563677 182.729532 
L 390.987649 202.434766 
L 433.952275 202.434766 
L 450.319752 210.31686 
L 460.549425 218.198953 
L 466.687228 214.257906 
" clip-path="url(#p849a29024e)" style="fill: none; stroke: #2ca02c; stroke-width: 2.5; stroke-linecap: square"/>
    <defs>
     <path id="m40b5d9bbf9" d="M 0 2 
C 0.530406 2 1.03916 1.789267 1.414214 1.414214 
C 1.789267 1.03916 2 0.530406 2 0 
C 2 -0.530406 1.789267 -1.03916 1.414214 -1.414214 
C 1.03916 -1.789267 0.530406 -2 0 -2 
C -0.530406 -2 -1.03916 -1.789267 -1.414214 -1.414214 
C -1.789267 -1.03916 -2 -0.530406 -2 0 
C -2 0.530406 -1.789267 1.03916 -1.414214 1.414214 
C -1.03916 1.789267 -0.530406 2 0 2 
z
" style="stroke: #2ca02c"/>
    </defs>
    <g clip-path="url(#p849a29024e)">
     <use xlink:href="#m40b5d9bbf9" x="65.684051" y="127.554876" style="fill: #2ca02c; stroke: #2ca02c"/>
     <use xlink:href="#m40b5d9bbf9" x="65.684051" y="143.319063" style="fill: #2ca02c; stroke: #2ca02c"/>
     <use xlink:href="#m40b5d9bbf9" x="65.684051" y="127.554876" style="fill: #2ca02c; stroke: #2ca02c"/>
     <use xlink:href="#m40b5d9bbf9" x="80.005593" y="135.43697" style="fill: #2ca02c; stroke: #2ca02c"/>
     <use xlink:href="#m40b5d9bbf9" x="116.832415" y="119.672782" style="fill: #2ca02c; stroke: #2ca02c"/>
     <use xlink:href="#m40b5d9bbf9" x="118.87835" y="135.43697" style="fill: #2ca02c; stroke: #2ca02c"/>
     <use xlink:href="#m40b5d9bbf9" x="147.521434" y="143.319063" style="fill: #2ca02c; stroke: #2ca02c"/>
     <use xlink:href="#m40b5d9bbf9" x="390.987649" y="202.434766" style="fill: #2ca02c; stroke: #2ca02c"/>
    </g>
   </g>
   <g id="line2d_32">
    <path d="M 65.684051 99.967548 
L 65.684051 103.908595 
L 65.684051 127.554876 
L 65.684051 99.967548 
L 65.684051 99.967548 
L 65.684051 119.672782 
L 65.684051 119.672782 
L 65.684051 103.908595 
L 65.684051 119.672782 
L 65.684051 107.849642 
L 65.684051 103.908595 
L 65.684051 96.026501 
L 65.684051 111.790689 
L 65.684051 115.731736 
L 71.821855 99.967548 
L 80.005593 96.026501 
L 88.189331 92.085455 
L 98.419004 123.613829 
L 108.648677 99.967548 
L 114.786481 92.085455 
L 116.832415 107.849642 
L 116.832415 96.026501 
L 116.832415 96.026501 
L 118.87835 103.908595 
L 118.87835 111.790689 
L 118.87835 92.085455 
L 118.87835 92.085455 
L 118.87835 103.908595 
L 125.016154 107.849642 
L 137.291761 99.967548 
L 147.521434 115.731736 
L 174.118584 123.613829 
L 212.991341 123.613829 
L 278.461247 163.024298 
L 327.563677 178.788485 
L 390.987649 190.611625 
L 433.952275 202.434766 
L 450.319752 210.31686 
L 460.549425 214.257906 
L 466.687228 214.257906 
" clip-path="url(#p849a29024e)" style="fill: none; stroke: #d62728; stroke-width: 2.5; stroke-linecap: square"/>
    <defs>
     <path id="m5d2bc378f9" d="M 0 2 
C 0.530406 2 1.03916 1.789267 1.414214 1.414214 
C 1.789267 1.03916 2 0.530406 2 0 
C 2 -0.530406 1.789267 -1.03916 1.414214 -1.414214 
C 1.03916 -1.789267 0.530406 -2 0 -2 
C -0.530406 -2 -1.03916 -1.789267 -1.414214 -1.414214 
C -1.789267 -1.03916 -2 -0.530406 -2 0 
C -2 0.530406 -1.789267 1.03916 -1.414214 1.414214 
C -1.03916 1.789267 -0.530406 2 0 2 
z
" style="stroke: #d62728"/>
    </defs>
    <g clip-path="url(#p849a29024e)">
     <use xlink:href="#m5d2bc378f9" x="65.684051" y="99.967548" style="fill: #d62728; stroke: #d62728"/>
     <use xlink:href="#m5d2bc378f9" x="65.684051" y="119.672782" style="fill: #d62728; stroke: #d62728"/>
     <use xlink:href="#m5d2bc378f9" x="65.684051" y="103.908595" style="fill: #d62728; stroke: #d62728"/>
     <use xlink:href="#m5d2bc378f9" x="80.005593" y="96.026501" style="fill: #d62728; stroke: #d62728"/>
     <use xlink:href="#m5d2bc378f9" x="116.832415" y="107.849642" style="fill: #d62728; stroke: #d62728"/>
     <use xlink:href="#m5d2bc378f9" x="118.87835" y="92.085455" style="fill: #d62728; stroke: #d62728"/>
     <use xlink:href="#m5d2bc378f9" x="147.521434" y="115.731736" style="fill: #d62728; stroke: #d62728"/>
     <use xlink:href="#m5d2bc378f9" x="390.987649" y="190.611625" style="fill: #d62728; stroke: #d62728"/>
    </g>
   </g>
   <g id="patch_3">
    <path d="M 57.500313 365.2 
L 57.500313 79.08 
" style="fill: none; stroke: #000000; stroke-width: 0.8; stroke-linejoin: miter; stroke-linecap: square"/>
   </g>
   <g id="patch_4">
    <path d="M 57.500313 365.2 
L 495.330312 365.2 
" style="fill: none; stroke: #000000; stroke-width: 0.8; stroke-linejoin: miter; stroke-linecap: square"/>
   </g>
   <g id="text_17">
    <!-- System Accuracy vs. Investigator Skill -->
    <g transform="translate(125.486563 73.08) scale(0.14 -0.14)">
     <defs>
      <path id="DejaVuSans-Bold-53" d="M 3834 4519 
L 3834 3531 
Q 3450 3703 3084 3790 
Q 2719 3878 2394 3878 
Q 1963 3878 1756 3759 
Q 1550 3641 1550 3391 
Q 1550 3203 1689 3098 
Q 1828 2994 2194 2919 
L 2706 2816 
Q 3484 2659 3812 2340 
Q 4141 2022 4141 1434 
Q 4141 663 3683 286 
Q 3225 -91 2284 -91 
Q 1841 -91 1394 -6 
Q 947 78 500 244 
L 500 1259 
Q 947 1022 1364 901 
Q 1781 781 2169 781 
Q 2563 781 2772 912 
Q 2981 1044 2981 1288 
Q 2981 1506 2839 1625 
Q 2697 1744 2272 1838 
L 1806 1941 
Q 1106 2091 782 2419 
Q 459 2747 459 3303 
Q 459 4000 909 4375 
Q 1359 4750 2203 4750 
Q 2588 4750 2994 4692 
Q 3400 4634 3834 4519 
z
" transform="scale(0.015625)"/>
      <path id="DejaVuSans-Bold-79" d="M 78 3500 
L 1197 3500 
L 2138 1125 
L 2938 3500 
L 4056 3500 
L 2584 -331 
Q 2363 -916 2067 -1148 
Q 1772 -1381 1288 -1381 
L 641 -1381 
L 641 -647 
L 991 -647 
Q 1275 -647 1404 -556 
Q 1534 -466 1606 -231 
L 1638 -134 
L 78 3500 
z
" transform="scale(0.015625)"/>
      <path id="DejaVuSans-Bold-73" d="M 3272 3391 
L 3272 2541 
Q 2913 2691 2578 2766 
Q 2244 2841 1947 2841 
Q 1628 2841 1473 2761 
Q 1319 2681 1319 2516 
Q 1319 2381 1436 2309 
Q 1553 2238 1856 2203 
L 2053 2175 
Q 2913 2066 3209 1816 
Q 3506 1566 3506 1031 
Q 3506 472 3093 190 
Q 2681 -91 1863 -91 
Q 1516 -91 1145 -36 
Q 775 19 384 128 
L 384 978 
Q 719 816 1070 734 
Q 1422 653 1784 653 
Q 2113 653 2278 743 
Q 2444 834 2444 1013 
Q 2444 1163 2330 1236 
Q 2216 1309 1875 1350 
L 1678 1375 
Q 931 1469 631 1722 
Q 331 1975 331 2491 
Q 331 3047 712 3315 
Q 1094 3584 1881 3584 
Q 2191 3584 2531 3537 
Q 2872 3491 3272 3391 
z
" transform="scale(0.015625)"/>
      <path id="DejaVuSans-Bold-74" d="M 1759 4494 
L 1759 3500 
L 2913 3500 
L 2913 2700 
L 1759 2700 
L 1759 1216 
Q 1759 972 1856 886 
Q 1953 800 2241 800 
L 2816 800 
L 2816 0 
L 1856 0 
Q 1194 0 917 276 
Q 641 553 641 1216 
L 641 2700 
L 84 2700 
L 84 3500 
L 641 3500 
L 641 4494 
L 1759 4494 
z
" transform="scale(0.015625)"/>
      <path id="DejaVuSans-Bold-65" d="M 4031 1759 
L 4031 1441 
L 1416 1441 
Q 1456 1047 1700 850 
Q 1944 653 2381 653 
Q 2734 653 3104 758 
Q 3475 863 3866 1075 
L 3866 213 
Q 3469 63 3072 -14 
Q 2675 -91 2278 -91 
Q 1328 -91 801 392 
Q 275 875 275 1747 
Q 275 2603 792 3093 
Q 1309 3584 2216 3584 
Q 3041 3584 3536 3087 
Q 4031 2591 4031 1759 
z
M 2881 2131 
Q 2881 2450 2695 2645 
Q 2509 2841 2209 2841 
Q 1884 2841 1681 2658 
Q 1478 2475 1428 2131 
L 2881 2131 
z
" transform="scale(0.015625)"/>
      <path id="DejaVuSans-Bold-6d" d="M 3781 2919 
Q 3994 3244 4286 3414 
Q 4578 3584 4928 3584 
Q 5531 3584 5847 3212 
Q 6163 2841 6163 2131 
L 6163 0 
L 5038 0 
L 5038 1825 
Q 5041 1866 5042 1909 
Q 5044 1953 5044 2034 
Q 5044 2406 4934 2573 
Q 4825 2741 4581 2741 
Q 4263 2741 4089 2478 
Q 3916 2216 3909 1719 
L 3909 0 
L 2784 0 
L 2784 1825 
Q 2784 2406 2684 2573 
Q 2584 2741 2328 2741 
Q 2006 2741 1831 2477 
Q 1656 2213 1656 1722 
L 1656 0 
L 531 0 
L 531 3500 
L 1656 3500 
L 1656 2988 
Q 1863 3284 2130 3434 
Q 2397 3584 2719 3584 
Q 3081 3584 3359 3409 
Q 3638 3234 3781 2919 
z
" transform="scale(0.015625)"/>
      <path id="DejaVuSans-Bold-20" transform="scale(0.015625)"/>
      <path id="DejaVuSans-Bold-41" d="M 3419 850 
L 1538 850 
L 1241 0 
L 31 0 
L 1759 4666 
L 3194 4666 
L 4922 0 
L 3713 0 
L 3419 850 
z
M 1838 1716 
L 3116 1716 
L 2478 3572 
L 1838 1716 
z
" transform="scale(0.015625)"/>
      <path id="DejaVuSans-Bold-63" d="M 3366 3391 
L 3366 2478 
Q 3138 2634 2908 2709 
Q 2678 2784 2431 2784 
Q 1963 2784 1702 2511 
Q 1441 2238 1441 1747 
Q 1441 1256 1702 982 
Q 1963 709 2431 709 
Q 2694 709 2930 787 
Q 3166 866 3366 1019 
L 3366 103 
Q 3103 6 2833 -42 
Q 2563 -91 2291 -91 
Q 1344 -91 809 395 
Q 275 881 275 1747 
Q 275 2613 809 3098 
Q 1344 3584 2291 3584 
Q 2566 3584 2833 3536 
Q 3100 3488 3366 3391 
z
" transform="scale(0.015625)"/>
      <path id="DejaVuSans-Bold-75" d="M 500 1363 
L 500 3500 
L 1625 3500 
L 1625 3150 
Q 1625 2866 1622 2436 
Q 1619 2006 1619 1863 
Q 1619 1441 1641 1255 
Q 1663 1069 1716 984 
Q 1784 875 1895 815 
Q 2006 756 2150 756 
Q 2500 756 2700 1025 
Q 2900 1294 2900 1772 
L 2900 3500 
L 4019 3500 
L 4019 0 
L 2900 0 
L 2900 506 
Q 2647 200 2364 54 
Q 2081 -91 1741 -91 
Q 1134 -91 817 281 
Q 500 653 500 1363 
z
" transform="scale(0.015625)"/>
      <path id="DejaVuSans-Bold-72" d="M 3138 2547 
Q 2991 2616 2845 2648 
Q 2700 2681 2553 2681 
Q 2122 2681 1889 2404 
Q 1656 2128 1656 1613 
L 1656 0 
L 538 0 
L 538 3500 
L 1656 3500 
L 1656 2925 
Q 1872 3269 2151 3426 
Q 2431 3584 2822 3584 
Q 2878 3584 2943 3579 
Q 3009 3575 3134 3559 
L 3138 2547 
z
" transform="scale(0.015625)"/>
      <path id="DejaVuSans-Bold-61" d="M 2106 1575 
Q 1756 1575 1579 1456 
Q 1403 1338 1403 1106 
Q 1403 894 1545 773 
Q 1688 653 1941 653 
Q 2256 653 2472 879 
Q 2688 1106 2688 1447 
L 2688 1575 
L 2106 1575 
z
M 3816 1997 
L 3816 0 
L 2688 0 
L 2688 519 
Q 2463 200 2181 54 
Q 1900 -91 1497 -91 
Q 953 -91 614 226 
Q 275 544 275 1050 
Q 275 1666 698 1953 
Q 1122 2241 2028 2241 
L 2688 2241 
L 2688 2328 
Q 2688 2594 2478 2717 
Q 2269 2841 1825 2841 
Q 1466 2841 1156 2769 
Q 847 2697 581 2553 
L 581 3406 
Q 941 3494 1303 3539 
Q 1666 3584 2028 3584 
Q 2975 3584 3395 3211 
Q 3816 2838 3816 1997 
z
" transform="scale(0.015625)"/>
      <path id="DejaVuSans-Bold-76" d="M 97 3500 
L 1216 3500 
L 2088 1081 
L 2956 3500 
L 4078 3500 
L 2700 0 
L 1472 0 
L 97 3500 
z
" transform="scale(0.015625)"/>
      <path id="DejaVuSans-Bold-2e" d="M 653 1209 
L 1778 1209 
L 1778 0 
L 653 0 
L 653 1209 
z
" transform="scale(0.015625)"/>
      <path id="DejaVuSans-Bold-49" d="M 588 4666 
L 1791 4666 
L 1791 0 
L 588 0 
L 588 4666 
z
" transform="scale(0.015625)"/>
      <path id="DejaVuSans-Bold-6e" d="M 4056 2131 
L 4056 0 
L 2931 0 
L 2931 347 
L 2931 1631 
Q 2931 2084 2911 2256 
Q 2891 2428 2841 2509 
Q 2775 2619 2662 2680 
Q 2550 2741 2406 2741 
Q 2056 2741 1856 2470 
Q 1656 2200 1656 1722 
L 1656 0 
L 538 0 
L 538 3500 
L 1656 3500 
L 1656 2988 
Q 1909 3294 2193 3439 
Q 2478 3584 2822 3584 
Q 3428 3584 3742 3212 
Q 4056 2841 4056 2131 
z
" transform="scale(0.015625)"/>
      <path id="DejaVuSans-Bold-69" d="M 538 3500 
L 1656 3500 
L 1656 0 
L 538 0 
L 538 3500 
z
M 538 4863 
L 1656 4863 
L 1656 3950 
L 538 3950 
L 538 4863 
z
" transform="scale(0.015625)"/>
      <path id="DejaVuSans-Bold-67" d="M 2919 594 
Q 2688 288 2409 144 
Q 2131 0 1766 0 
Q 1125 0 706 504 
Q 288 1009 288 1791 
Q 288 2575 706 3076 
Q 1125 3578 1766 3578 
Q 2131 3578 2409 3434 
Q 2688 3291 2919 2981 
L 2919 3500 
L 4044 3500 
L 4044 353 
Q 4044 -491 3511 -936 
Q 2978 -1381 1966 -1381 
Q 1638 -1381 1331 -1331 
Q 1025 -1281 716 -1178 
L 716 -306 
Q 1009 -475 1290 -558 
Q 1572 -641 1856 -641 
Q 2406 -641 2662 -400 
Q 2919 -159 2919 353 
L 2919 594 
z
M 2181 2772 
Q 1834 2772 1640 2515 
Q 1447 2259 1447 1791 
Q 1447 1309 1634 1061 
Q 1822 813 2181 813 
Q 2531 813 2725 1069 
Q 2919 1325 2919 1791 
Q 2919 2259 2725 2515 
Q 2531 2772 2181 2772 
z
" transform="scale(0.015625)"/>
      <path id="DejaVuSans-Bold-6f" d="M 2203 2784 
Q 1831 2784 1636 2517 
Q 1441 2250 1441 1747 
Q 1441 1244 1636 976 
Q 1831 709 2203 709 
Q 2569 709 2762 976 
Q 2956 1244 2956 1747 
Q 2956 2250 2762 2517 
Q 2569 2784 2203 2784 
z
M 2203 3584 
Q 3106 3584 3614 3096 
Q 4122 2609 4122 1747 
Q 4122 884 3614 396 
Q 3106 -91 2203 -91 
Q 1297 -91 786 396 
Q 275 884 275 1747 
Q 275 2609 786 3096 
Q 1297 3584 2203 3584 
z
" transform="scale(0.015625)"/>
      <path id="DejaVuSans-Bold-6b" d="M 538 4863 
L 1656 4863 
L 1656 2216 
L 2944 3500 
L 4244 3500 
L 2534 1894 
L 4378 0 
L 3022 0 
L 1656 1459 
L 1656 0 
L 538 0 
L 538 4863 
z
" transform="scale(0.015625)"/>
      <path id="DejaVuSans-Bold-6c" d="M 538 4863 
L 1656 4863 
L 1656 0 
L 538 0 
L 538 4863 
z
" transform="scale(0.015625)"/>
     </defs>
     <use xlink:href="#DejaVuSans-Bold-53"/>
     <use xlink:href="#DejaVuSans-Bold-79" transform="translate(72.021484 0)"/>
     <use xlink:href="#DejaVuSans-Bold-73" transform="translate(137.207031 0)"/>
     <use xlink:href="#DejaVuSans-Bold-74" transform="translate(196.728516 0)"/>
     <use xlink:href="#DejaVuSans-Bold-65" transform="translate(244.53125 0)"/>
     <use xlink:href="#DejaVuSans-Bold-6d" transform="translate(312.353516 0)"/>
     <use xlink:href="#DejaVuSans-Bold-20" transform="translate(416.552734 0)"/>
     <use xlink:href="#DejaVuSans-Bold-41" transform="translate(451.367188 0)"/>
     <use xlink:href="#DejaVuSans-Bold-63" transform="translate(528.759766 0)"/>
     <use xlink:href="#DejaVuSans-Bold-63" transform="translate(588.037109 0)"/>
     <use xlink:href="#DejaVuSans-Bold-75" transform="translate(647.314453 0)"/>
     <use xlink:href="#DejaVuSans-Bold-72" transform="translate(718.505859 0)"/>
     <use xlink:href="#DejaVuSans-Bold-61" transform="translate(767.822266 0)"/>
     <use xlink:href="#DejaVuSans-Bold-63" transform="translate(835.302734 0)"/>
     <use xlink:href="#DejaVuSans-Bold-79" transform="translate(894.580078 0)"/>
     <use xlink:href="#DejaVuSans-Bold-20" transform="translate(959.765625 0)"/>
     <use xlink:href="#DejaVuSans-Bold-76" transform="translate(994.580078 0)"/>
     <use xlink:href="#DejaVuSans-Bold-73" transform="translate(1059.765625 0)"/>
     <use xlink:href="#DejaVuSans-Bold-2e" transform="translate(1119.287109 0)"/>
     <use xlink:href="#DejaVuSans-Bold-20" transform="translate(1157.275391 0)"/>
     <use xlink:href="#DejaVuSans-Bold-49" transform="translate(1192.089844 0)"/>
     <use xlink:href="#DejaVuSans-Bold-6e" transform="translate(1229.296875 0)"/>
     <use xlink:href="#DejaVuSans-Bold-76" transform="translate(1300.488281 0)"/>
     <use xlink:href="#DejaVuSans-Bold-65" transform="translate(1365.673828 0)"/>
     <use xlink:href="#DejaVuSans-Bold-73" transform="translate(1433.496094 0)"/>
     <use xlink:href="#DejaVuSans-Bold-74" transform="translate(1493.017578 0)"/>
     <use xlink:href="#DejaVuSans-Bold-69" transform="translate(1540.820312 0)"/>
     <use xlink:href="#DejaVuSans-Bold-67" transform="translate(1575.097656 0)"/>
     <use xlink:href="#DejaVuSans-Bold-61" transform="translate(1646.679688 0)"/>
     <use xlink:href="#DejaVuSans-Bold-74" transform="translate(1714.160156 0)"/>
     <use xlink:href="#DejaVuSans-Bold-6f" transform="translate(1761.962891 0)"/>
     <use xlink:href="#DejaVuSans-Bold-72" transform="translate(1830.664062 0)"/>
     <use xlink:href="#DejaVuSans-Bold-20" transform="translate(1879.980469 0)"/>
     <use xlink:href="#DejaVuSans-Bold-53" transform="translate(1914.794922 0)"/>
     <use xlink:href="#DejaVuSans-Bold-6b" transform="translate(1986.816406 0)"/>
     <use xlink:href="#DejaVuSans-Bold-69" transform="translate(2053.320312 0)"/>
     <use xlink:href="#DejaVuSans-Bold-6c" transform="translate(2087.597656 0)"/>
     <use xlink:href="#DejaVuSans-Bold-6c" transform="translate(2121.875 0)"/>
    </g>
   </g>
   <g id="legend_1">
    <g id="patch_5">
     <path d="M 407.110312 359.7 
L 487.630313 359.7 
Q 489.830312 359.7 489.830312 357.5 
L 489.830312 294.01625 
Q 489.830312 291.81625 487.630313 291.81625 
L 407.110312 291.81625 
Q 404.910312 291.81625 404.910312 294.01625 
L 404.910312 357.5 
Q 404.910312 359.7 407.110312 359.7 
z
" style="fill: #ffffff; opacity: 0.8; stroke: #cccccc; stroke-linejoin: miter"/>
    </g>
    <g id="line2d_33">
     <path d="M 409.310312 300.724531 
L 420.310312 300.724531 
L 431.310312 300.724531 
" style="fill: none; stroke: #1f77b4; stroke-width: 2.5; stroke-linecap: square"/>
     <g>
      <use xlink:href="#m66db249c4b" x="420.310312" y="300.724531" style="fill: #1f77b4; stroke: #1f77b4"/>
     </g>
    </g>
    <g id="text_18">
     <!-- $\alpha = 0.7$ -->
     <g transform="translate(440.110312 304.574531) scale(0.11 -0.11)">
      <defs>
       <path id="DejaVuSans-Oblique-3b1" d="M 2619 1628 
L 2622 2350 
Q 2625 3088 2069 3091 
Q 1653 3094 1394 2747 
Q 1069 2319 959 1747 
Q 825 1059 994 731 
Q 1169 397 1547 397 
Q 1966 397 2319 1063 
L 2619 1628 
z
M 2166 3578 
Q 3141 3594 3128 2584 
Q 3128 2584 3616 3500 
L 4128 3500 
L 3119 1603 
L 3109 919 
Q 3109 766 3194 638 
Q 3291 488 3391 488 
L 3669 488 
L 3575 0 
L 3228 0 
Q 2934 0 2722 263 
Q 2622 394 2619 669 
Q 2416 334 2066 50 
Q 1900 -81 1453 -78 
Q 722 -72 456 397 
Q 184 884 353 1747 
Q 534 2675 1009 3097 
Q 1544 3569 2166 3578 
z
" transform="scale(0.015625)"/>
       <path id="DejaVuSans-3d" d="M 678 2906 
L 4684 2906 
L 4684 2381 
L 678 2381 
L 678 2906 
z
M 678 1631 
L 4684 1631 
L 4684 1100 
L 678 1100 
L 678 1631 
z
" transform="scale(0.015625)"/>
      </defs>
      <use xlink:href="#DejaVuSans-Oblique-3b1" transform="translate(0 0.78125)"/>
      <use xlink:href="#DejaVuSans-3d" transform="translate(85.400391 0.78125)"/>
      <use xlink:href="#DejaVuSans-30" transform="translate(188.671875 0.78125)"/>
      <use xlink:href="#DejaVuSans-2e" transform="translate(252.294922 0.78125)"/>
      <use xlink:href="#DejaVuSans-37" transform="translate(276.332031 0.78125)"/>
     </g>
    </g>
    <g id="line2d_34">
     <path d="M 409.310312 316.870469 
L 420.310312 316.870469 
L 431.310312 316.870469 
" style="fill: none; stroke: #ff7f0e; stroke-width: 2.5; stroke-linecap: square"/>
     <g>
      <use xlink:href="#m5f47564abb" x="420.310312" y="316.870469" style="fill: #ff7f0e; stroke: #ff7f0e"/>
     </g>
    </g>
    <g id="text_19">
     <!-- $\alpha = 0.8$ -->
     <g transform="translate(440.110312 320.720469) scale(0.11 -0.11)">
      <use xlink:href="#DejaVuSans-Oblique-3b1" transform="translate(0 0.78125)"/>
      <use xlink:href="#DejaVuSans-3d" transform="translate(85.400391 0.78125)"/>
      <use xlink:href="#DejaVuSans-30" transform="translate(188.671875 0.78125)"/>
      <use xlink:href="#DejaVuSans-2e" transform="translate(252.294922 0.78125)"/>
      <use xlink:href="#DejaVuSans-38" transform="translate(281.457031 0.78125)"/>
     </g>
    </g>
    <g id="line2d_35">
     <path d="M 409.310312 333.016406 
L 420.310312 333.016406 
L 431.310312 333.016406 
" style="fill: none; stroke: #2ca02c; stroke-width: 2.5; stroke-linecap: square"/>
     <g>
      <use xlink:href="#m40b5d9bbf9" x="420.310312" y="333.016406" style="fill: #2ca02c; stroke: #2ca02c"/>
     </g>
    </g>
    <g id="text_20">
     <!-- $\alpha = 0.9$ -->
     <g transform="translate(440.110312 336.866406) scale(0.11 -0.11)">
      <use xlink:href="#DejaVuSans-Oblique-3b1" transform="translate(0 0.78125)"/>
      <use xlink:href="#DejaVuSans-3d" transform="translate(85.400391 0.78125)"/>
      <use xlink:href="#DejaVuSans-30" transform="translate(188.671875 0.78125)"/>
      <use xlink:href="#DejaVuSans-2e" transform="translate(252.294922 0.78125)"/>
      <use xlink:href="#DejaVuSans-39" transform="translate(284.082031 0.78125)"/>
     </g>
    </g>
    <g id="line2d_36">
     <path d="M 409.310312 349.162344 
L 420.310312 349.162344 
L 431.310312 349.162344 
" style="fill: none; stroke: #d62728; stroke-width: 2.5; stroke-linecap: square"/>
     <g>
      <use xlink:href="#m5d2bc378f9" x="420.310312" y="349.162344" style="fill: #d62728; stroke: #d62728"/>
     </g>
    </g>
    <g id="text_21">
     <!-- $\alpha = 0.95$ -->
     <g transform="translate(440.110312 353.012344) scale(0.11 -0.11)">
      <use xlink:href="#DejaVuSans-Oblique-3b1" transform="translate(0 0.78125)"/>
      <use xlink:href="#DejaVuSans-3d" transform="translate(85.400391 0.78125)"/>
      <use xlink:href="#DejaVuSans-30" transform="translate(188.671875 0.78125)"/>
      <use xlink:href="#DejaVuSans-2e" transform="translate(252.294922 0.78125)"/>
      <use xlink:href="#DejaVuSans-39" transform="translate(284.082031 0.78125)"/>
      <use xlink:href="#DejaVuSans-35" transform="translate(347.705078 0.78125)"/>
     </g>
    </g>
   </g>
  </g>
  <g id="axes_2">
   <g id="patch_6">
    <path d="M 551.240313 365.2 
L 989.070312 365.2 
L 989.070312 79.08 
L 551.240313 79.08 
z
" style="fill: #ffffff"/>
   </g>
   <g id="matplotlib.axis_3">
    <g id="xtick_7">
     <g id="line2d_37">
      <path d="M 559.424051 365.2 
L 559.424051 79.08 
" clip-path="url(#pf99f391853)" style="fill: none; stroke-dasharray: 2.96,1.28; stroke-dashoffset: 0; stroke: #b0b0b0; stroke-opacity: 0.25; stroke-width: 0.8"/>
     </g>
     <g id="line2d_38">
      <g>
       <use xlink:href="#md5660b1d27" x="559.424051" y="365.2" style="stroke: #000000; stroke-width: 0.8"/>
      </g>
     </g>
     <g id="text_22">
      <!-- 0.0 -->
      <g transform="translate(549.882176 381.318125) scale(0.12 -0.12)">
       <use xlink:href="#DejaVuSans-30"/>
       <use xlink:href="#DejaVuSans-2e" transform="translate(63.623047 0)"/>
       <use xlink:href="#DejaVuSans-30" transform="translate(95.410156 0)"/>
      </g>
     </g>
    </g>
    <g id="xtick_8">
     <g id="line2d_39">
      <path d="M 641.261434 365.2 
L 641.261434 79.08 
" clip-path="url(#pf99f391853)" style="fill: none; stroke-dasharray: 2.96,1.28; stroke-dashoffset: 0; stroke: #b0b0b0; stroke-opacity: 0.25; stroke-width: 0.8"/>
     </g>
     <g id="line2d_40">
      <g>
       <use xlink:href="#md5660b1d27" x="641.261434" y="365.2" style="stroke: #000000; stroke-width: 0.8"/>
      </g>
     </g>
     <g id="text_23">
      <!-- 0.2 -->
      <g transform="translate(631.719559 381.318125) scale(0.12 -0.12)">
       <use xlink:href="#DejaVuSans-30"/>
       <use xlink:href="#DejaVuSans-2e" transform="translate(63.623047 0)"/>
       <use xlink:href="#DejaVuSans-32" transform="translate(95.410156 0)"/>
      </g>
     </g>
    </g>
    <g id="xtick_9">
     <g id="line2d_41">
      <path d="M 723.098817 365.2 
L 723.098817 79.08 
" clip-path="url(#pf99f391853)" style="fill: none; stroke-dasharray: 2.96,1.28; stroke-dashoffset: 0; stroke: #b0b0b0; stroke-opacity: 0.25; stroke-width: 0.8"/>
     </g>
     <g id="line2d_42">
      <g>
       <use xlink:href="#md5660b1d27" x="723.098817" y="365.2" style="stroke: #000000; stroke-width: 0.8"/>
      </g>
     </g>
     <g id="text_24">
      <!-- 0.4 -->
      <g transform="translate(713.556942 381.318125) scale(0.12 -0.12)">
       <use xlink:href="#DejaVuSans-30"/>
       <use xlink:href="#DejaVuSans-2e" transform="translate(63.623047 0)"/>
       <use xlink:href="#DejaVuSans-34" transform="translate(95.410156 0)"/>
      </g>
     </g>
    </g>
    <g id="xtick_10">
     <g id="line2d_43">
      <path d="M 804.9362 365.2 
L 804.9362 79.08 
" clip-path="url(#pf99f391853)" style="fill: none; stroke-dasharray: 2.96,1.28; stroke-dashoffset: 0; stroke: #b0b0b0; stroke-opacity: 0.25; stroke-width: 0.8"/>
     </g>
     <g id="line2d_44">
      <g>
       <use xlink:href="#md5660b1d27" x="804.9362" y="365.2" style="stroke: #000000; stroke-width: 0.8"/>
      </g>
     </g>
     <g id="text_25">
      <!-- 0.6 -->
      <g transform="translate(795.394325 381.318125) scale(0.12 -0.12)">
       <use xlink:href="#DejaVuSans-30"/>
       <use xlink:href="#DejaVuSans-2e" transform="translate(63.623047 0)"/>
       <use xlink:href="#DejaVuSans-36" transform="translate(95.410156 0)"/>
      </g>
     </g>
    </g>
    <g id="xtick_11">
     <g id="line2d_45">
      <path d="M 886.773584 365.2 
L 886.773584 79.08 
" clip-path="url(#pf99f391853)" style="fill: none; stroke-dasharray: 2.96,1.28; stroke-dashoffset: 0; stroke: #b0b0b0; stroke-opacity: 0.25; stroke-width: 0.8"/>
     </g>
     <g id="line2d_46">
      <g>
       <use xlink:href="#md5660b1d27" x="886.773584" y="365.2" style="stroke: #000000; stroke-width: 0.8"/>
      </g>
     </g>
     <g id="text_26">
      <!-- 0.8 -->
      <g transform="translate(877.231709 381.318125) scale(0.12 -0.12)">
       <use xlink:href="#DejaVuSans-30"/>
       <use xlink:href="#DejaVuSans-2e" transform="translate(63.623047 0)"/>
       <use xlink:href="#DejaVuSans-38" transform="translate(95.410156 0)"/>
      </g>
     </g>
    </g>
    <g id="xtick_12">
     <g id="line2d_47">
      <path d="M 968.610967 365.2 
L 968.610967 79.08 
" clip-path="url(#pf99f391853)" style="fill: none; stroke-dasharray: 2.96,1.28; stroke-dashoffset: 0; stroke: #b0b0b0; stroke-opacity: 0.25; stroke-width: 0.8"/>
     </g>
     <g id="line2d_48">
      <g>
       <use xlink:href="#md5660b1d27" x="968.610967" y="365.2" style="stroke: #000000; stroke-width: 0.8"/>
      </g>
     </g>
     <g id="text_27">
      <!-- 1.0 -->
      <g transform="translate(959.069092 381.318125) scale(0.12 -0.12)">
       <use xlink:href="#DejaVuSans-31"/>
       <use xlink:href="#DejaVuSans-2e" transform="translate(63.623047 0)"/>
       <use xlink:href="#DejaVuSans-30" transform="translate(95.410156 0)"/>
      </g>
     </g>
    </g>
    <g id="text_28">
     <!-- Coverage -->
     <g transform="translate(739.011172 397.691719) scale(0.13 -0.13)">
      <use xlink:href="#DejaVuSans-43"/>
      <use xlink:href="#DejaVuSans-6f" transform="translate(69.824219 0)"/>
      <use xlink:href="#DejaVuSans-76" transform="translate(131.005859 0)"/>
      <use xlink:href="#DejaVuSans-65" transform="translate(190.185547 0)"/>
      <use xlink:href="#DejaVuSans-72" transform="translate(251.708984 0)"/>
      <use xlink:href="#DejaVuSans-61" transform="translate(292.822266 0)"/>
      <use xlink:href="#DejaVuSans-67" transform="translate(354.101562 0)"/>
      <use xlink:href="#DejaVuSans-65" transform="translate(417.578125 0)"/>
     </g>
    </g>
   </g>
   <g id="matplotlib.axis_4">
    <g id="ytick_9">
     <g id="line2d_49">
      <path d="M 551.240313 354.279421 
L 989.070312 354.279421 
" clip-path="url(#pf99f391853)" style="fill: none; stroke-dasharray: 2.96,1.28; stroke-dashoffset: 0; stroke: #b0b0b0; stroke-opacity: 0.25; stroke-width: 0.8"/>
     </g>
     <g id="line2d_50">
      <g>
       <use xlink:href="#m99e39ca860" x="551.240313" y="354.279421" style="stroke: #000000; stroke-width: 0.8"/>
      </g>
     </g>
     <g id="text_29">
      <!-- 0.5 -->
      <g transform="translate(525.156563 358.838484) scale(0.12 -0.12)">
       <use xlink:href="#DejaVuSans-30"/>
       <use xlink:href="#DejaVuSans-2e" transform="translate(63.623047 0)"/>
       <use xlink:href="#DejaVuSans-35" transform="translate(95.410156 0)"/>
      </g>
     </g>
    </g>
    <g id="ytick_10">
     <g id="line2d_51">
      <path d="M 551.240313 299.655678 
L 989.070312 299.655678 
" clip-path="url(#pf99f391853)" style="fill: none; stroke-dasharray: 2.96,1.28; stroke-dashoffset: 0; stroke: #b0b0b0; stroke-opacity: 0.25; stroke-width: 0.8"/>
     </g>
     <g id="line2d_52">
      <g>
       <use xlink:href="#m99e39ca860" x="551.240313" y="299.655678" style="stroke: #000000; stroke-width: 0.8"/>
      </g>
     </g>
     <g id="text_30">
      <!-- 0.6 -->
      <g transform="translate(525.156563 304.214741) scale(0.12 -0.12)">
       <use xlink:href="#DejaVuSans-30"/>
       <use xlink:href="#DejaVuSans-2e" transform="translate(63.623047 0)"/>
       <use xlink:href="#DejaVuSans-36" transform="translate(95.410156 0)"/>
      </g>
     </g>
    </g>
    <g id="ytick_11">
     <g id="line2d_53">
      <path d="M 551.240313 245.031935 
L 989.070312 245.031935 
" clip-path="url(#pf99f391853)" style="fill: none; stroke-dasharray: 2.96,1.28; stroke-dashoffset: 0; stroke: #b0b0b0; stroke-opacity: 0.25; stroke-width: 0.8"/>
     </g>
     <g id="line2d_54">
      <g>
       <use xlink:href="#m99e39ca860" x="551.240313" y="245.031935" style="stroke: #000000; stroke-width: 0.8"/>
      </g>
     </g>
     <g id="text_31">
      <!-- 0.7 -->
      <g transform="translate(525.156563 249.590998) scale(0.12 -0.12)">
       <use xlink:href="#DejaVuSans-30"/>
       <use xlink:href="#DejaVuSans-2e" transform="translate(63.623047 0)"/>
       <use xlink:href="#DejaVuSans-37" transform="translate(95.410156 0)"/>
      </g>
     </g>
    </g>
    <g id="ytick_12">
     <g id="line2d_55">
      <path d="M 551.240313 190.408192 
L 989.070312 190.408192 
" clip-path="url(#pf99f391853)" style="fill: none; stroke-dasharray: 2.96,1.28; stroke-dashoffset: 0; stroke: #b0b0b0; stroke-opacity: 0.25; stroke-width: 0.8"/>
     </g>
     <g id="line2d_56">
      <g>
       <use xlink:href="#m99e39ca860" x="551.240313" y="190.408192" style="stroke: #000000; stroke-width: 0.8"/>
      </g>
     </g>
     <g id="text_32">
      <!-- 0.8 -->
      <g transform="translate(525.156563 194.967255) scale(0.12 -0.12)">
       <use xlink:href="#DejaVuSans-30"/>
       <use xlink:href="#DejaVuSans-2e" transform="translate(63.623047 0)"/>
       <use xlink:href="#DejaVuSans-38" transform="translate(95.410156 0)"/>
      </g>
     </g>
    </g>
    <g id="ytick_13">
     <g id="line2d_57">
      <path d="M 551.240313 135.784449 
L 989.070312 135.784449 
" clip-path="url(#pf99f391853)" style="fill: none; stroke-dasharray: 2.96,1.28; stroke-dashoffset: 0; stroke: #b0b0b0; stroke-opacity: 0.25; stroke-width: 0.8"/>
     </g>
     <g id="line2d_58">
      <g>
       <use xlink:href="#m99e39ca860" x="551.240313" y="135.784449" style="stroke: #000000; stroke-width: 0.8"/>
      </g>
     </g>
     <g id="text_33">
      <!-- 0.9 -->
      <g transform="translate(525.156563 140.343511) scale(0.12 -0.12)">
       <use xlink:href="#DejaVuSans-30"/>
       <use xlink:href="#DejaVuSans-2e" transform="translate(63.623047 0)"/>
       <use xlink:href="#DejaVuSans-39" transform="translate(95.410156 0)"/>
      </g>
     </g>
    </g>
    <g id="ytick_14">
     <g id="line2d_59">
      <path d="M 551.240313 81.160706 
L 989.070312 81.160706 
" clip-path="url(#pf99f391853)" style="fill: none; stroke-dasharray: 2.96,1.28; stroke-dashoffset: 0; stroke: #b0b0b0; stroke-opacity: 0.25; stroke-width: 0.8"/>
     </g>
     <g id="line2d_60">
      <g>
       <use xlink:href="#m99e39ca860" x="551.240313" y="81.160706" style="stroke: #000000; stroke-width: 0.8"/>
      </g>
     </g>
     <g id="text_34">
      <!-- 1.0 -->
      <g transform="translate(525.156563 85.719768) scale(0.12 -0.12)">
       <use xlink:href="#DejaVuSans-31"/>
       <use xlink:href="#DejaVuSans-2e" transform="translate(63.623047 0)"/>
       <use xlink:href="#DejaVuSans-30" transform="translate(95.410156 0)"/>
      </g>
     </g>
    </g>
    <g id="text_35">
     <!-- System F1 Score -->
     <g transform="translate(518.452969 276.587656) rotate(-90) scale(0.13 -0.13)">
      <defs>
       <path id="DejaVuSans-46" d="M 628 4666 
L 3309 4666 
L 3309 4134 
L 1259 4134 
L 1259 2759 
L 3109 2759 
L 3109 2228 
L 1259 2228 
L 1259 0 
L 628 0 
L 628 4666 
z
" transform="scale(0.015625)"/>
      </defs>
      <use xlink:href="#DejaVuSans-53"/>
      <use xlink:href="#DejaVuSans-79" transform="translate(63.476562 0)"/>
      <use xlink:href="#DejaVuSans-73" transform="translate(122.65625 0)"/>
      <use xlink:href="#DejaVuSans-74" transform="translate(174.755859 0)"/>
      <use xlink:href="#DejaVuSans-65" transform="translate(213.964844 0)"/>
      <use xlink:href="#DejaVuSans-6d" transform="translate(275.488281 0)"/>
      <use xlink:href="#DejaVuSans-20" transform="translate(372.900391 0)"/>
      <use xlink:href="#DejaVuSans-46" transform="translate(404.6875 0)"/>
      <use xlink:href="#DejaVuSans-31" transform="translate(462.207031 0)"/>
      <use xlink:href="#DejaVuSans-20" transform="translate(525.830078 0)"/>
      <use xlink:href="#DejaVuSans-53" transform="translate(557.617188 0)"/>
      <use xlink:href="#DejaVuSans-63" transform="translate(621.09375 0)"/>
      <use xlink:href="#DejaVuSans-6f" transform="translate(676.074219 0)"/>
      <use xlink:href="#DejaVuSans-72" transform="translate(737.255859 0)"/>
      <use xlink:href="#DejaVuSans-65" transform="translate(776.119141 0)"/>
     </g>
    </g>
   </g>
   <g id="line2d_61">
    <path d="M 559.424051 320.421729 
L 559.424051 293.818026 
L 559.424051 343.526716 
L 559.424051 268.556029 
L 559.424051 288.354214 
L 559.424051 339.106159 
L 559.424051 308.759635 
L 559.424051 304.405569 
L 559.424051 292.478836 
L 559.424051 298.049097 
L 559.424051 332.603333 
L 559.424051 289.251156 
L 559.424051 323.476559 
L 559.424051 337.360563 
L 565.561855 352.194545 
L 573.745593 263.239849 
L 581.929331 284.306858 
L 592.159004 310.228015 
L 602.388677 309.926809 
L 608.526481 297.594405 
L 610.572415 298.688886 
L 610.572415 243.008833 
L 610.572415 279.353048 
L 612.61835 279.353048 
L 612.61835 327.692644 
L 612.61835 287.721079 
L 612.61835 269.860909 
L 612.61835 311.393011 
L 618.756154 279.353048 
L 631.031761 287.288038 
L 641.261434 300.589417 
L 667.858584 254.135892 
L 706.731341 311.155413 
L 772.201247 263.239849 
L 821.303677 292.766197 
L 884.727649 273.355357 
L 927.692275 259.836501 
L 944.059752 249.626456 
L 954.289425 253.124341 
L 960.427228 249.626456 
" clip-path="url(#pf99f391853)" style="fill: none; stroke: #1f77b4; stroke-width: 2.5; stroke-linecap: square"/>
    <g clip-path="url(#pf99f391853)">
     <use xlink:href="#m66db249c4b" x="559.424051" y="320.421729" style="fill: #1f77b4; stroke: #1f77b4"/>
     <use xlink:href="#m66db249c4b" x="559.424051" y="339.106159" style="fill: #1f77b4; stroke: #1f77b4"/>
     <use xlink:href="#m66db249c4b" x="559.424051" y="332.603333" style="fill: #1f77b4; stroke: #1f77b4"/>
     <use xlink:href="#m66db249c4b" x="573.745593" y="263.239849" style="fill: #1f77b4; stroke: #1f77b4"/>
     <use xlink:href="#m66db249c4b" x="610.572415" y="298.688886" style="fill: #1f77b4; stroke: #1f77b4"/>
     <use xlink:href="#m66db249c4b" x="612.61835" y="287.721079" style="fill: #1f77b4; stroke: #1f77b4"/>
     <use xlink:href="#m66db249c4b" x="641.261434" y="300.589417" style="fill: #1f77b4; stroke: #1f77b4"/>
     <use xlink:href="#m66db249c4b" x="884.727649" y="273.355357" style="fill: #1f77b4; stroke: #1f77b4"/>
    </g>
   </g>
   <g id="line2d_62">
    <path d="M 559.424051 237.907099 
L 559.424051 234.490511 
L 559.424051 277.806181 
L 559.424051 221.105833 
L 559.424051 229.206365 
L 559.424051 268.675048 
L 559.424051 240.06614 
L 559.424051 243.008833 
L 559.424051 223.457852 
L 559.424051 205.09693 
L 559.424051 250.682667 
L 559.424051 228.407318 
L 559.424051 257.366329 
L 559.424051 246.062572 
L 565.561855 254.135892 
L 573.745593 207.215498 
L 581.929331 200.339782 
L 592.159004 249.626456 
L 602.388677 218.996319 
L 608.526481 207.215498 
L 610.572415 215.143472 
L 610.572415 186.39911 
L 610.572415 196.421815 
L 612.61835 218.996319 
L 612.61835 224.907398 
L 612.61835 220.202961 
L 612.61835 223.182438 
L 612.61835 237.228543 
L 618.756154 229.206365 
L 631.031761 196.710932 
L 641.261434 243.008833 
L 667.858584 204.187154 
L 706.731341 232.893325 
L 772.201247 226.489931 
L 821.303677 246.062572 
L 884.727649 252.835327 
L 927.692275 246.062572 
L 944.059752 249.626456 
L 954.289425 253.124341 
L 960.427228 249.626456 
" clip-path="url(#pf99f391853)" style="fill: none; stroke: #ff7f0e; stroke-width: 2.5; stroke-linecap: square"/>
    <g clip-path="url(#pf99f391853)">
     <use xlink:href="#m5f47564abb" x="559.424051" y="237.907099" style="fill: #ff7f0e; stroke: #ff7f0e"/>
     <use xlink:href="#m5f47564abb" x="559.424051" y="268.675048" style="fill: #ff7f0e; stroke: #ff7f0e"/>
     <use xlink:href="#m5f47564abb" x="559.424051" y="250.682667" style="fill: #ff7f0e; stroke: #ff7f0e"/>
     <use xlink:href="#m5f47564abb" x="573.745593" y="207.215498" style="fill: #ff7f0e; stroke: #ff7f0e"/>
     <use xlink:href="#m5f47564abb" x="610.572415" y="215.143472" style="fill: #ff7f0e; stroke: #ff7f0e"/>
     <use xlink:href="#m5f47564abb" x="612.61835" y="220.202961" style="fill: #ff7f0e; stroke: #ff7f0e"/>
     <use xlink:href="#m5f47564abb" x="641.261434" y="243.008833" style="fill: #ff7f0e; stroke: #ff7f0e"/>
     <use xlink:href="#m5f47564abb" x="884.727649" y="252.835327" style="fill: #ff7f0e; stroke: #ff7f0e"/>
    </g>
   </g>
   <g id="line2d_63">
    <path d="M 559.424051 138.38558 
L 559.424051 154.692668 
L 559.424051 182.673857 
L 559.424051 124.002857 
L 559.424051 123.17897 
L 559.424051 154.976575 
L 559.424051 156.134471 
L 559.424051 149.440385 
L 559.424051 146.308289 
L 559.424051 132.692539 
L 559.424051 140.651911 
L 559.424051 132.692539 
L 559.424051 160.613423 
L 559.424051 186.206366 
L 565.561855 153.305272 
L 573.745593 147.526001 
L 581.929331 113.292319 
L 592.159004 148.790102 
L 602.388677 151.468494 
L 608.526481 146.709198 
L 610.572415 130.818654 
L 610.572415 119.018746 
L 610.572415 145.423933 
L 612.61835 141.853754 
L 612.61835 129.835328 
L 612.61835 152.888853 
L 612.61835 145.423933 
L 612.61835 123.17897 
L 618.756154 186.206366 
L 631.031761 129.835328 
L 641.261434 159.194625 
L 667.858584 151.969262 
L 706.731341 163.611639 
L 772.201247 190.408192 
L 821.303677 219.099451 
L 884.727649 238.729195 
L 927.692275 235.756205 
L 944.059752 246.062572 
L 954.289425 253.124341 
L 960.427228 249.626456 
" clip-path="url(#pf99f391853)" style="fill: none; stroke: #2ca02c; stroke-width: 2.5; stroke-linecap: square"/>
    <g clip-path="url(#pf99f391853)">
     <use xlink:href="#m40b5d9bbf9" x="559.424051" y="138.38558" style="fill: #2ca02c; stroke: #2ca02c"/>
     <use xlink:href="#m40b5d9bbf9" x="559.424051" y="154.976575" style="fill: #2ca02c; stroke: #2ca02c"/>
     <use xlink:href="#m40b5d9bbf9" x="559.424051" y="140.651911" style="fill: #2ca02c; stroke: #2ca02c"/>
     <use xlink:href="#m40b5d9bbf9" x="573.745593" y="147.526001" style="fill: #2ca02c; stroke: #2ca02c"/>
     <use xlink:href="#m40b5d9bbf9" x="610.572415" y="130.818654" style="fill: #2ca02c; stroke: #2ca02c"/>
     <use xlink:href="#m40b5d9bbf9" x="612.61835" y="152.888853" style="fill: #2ca02c; stroke: #2ca02c"/>
     <use xlink:href="#m40b5d9bbf9" x="641.261434" y="159.194625" style="fill: #2ca02c; stroke: #2ca02c"/>
     <use xlink:href="#m40b5d9bbf9" x="884.727649" y="238.729195" style="fill: #2ca02c; stroke: #2ca02c"/>
    </g>
   </g>
   <g id="line2d_64">
    <path d="M 559.424051 102.581782 
L 559.424051 108.748455 
L 559.424051 137.315956 
L 559.424051 103.010203 
L 559.424051 102.581782 
L 559.424051 127.10591 
L 559.424051 131.842529 
L 559.424051 109.317275 
L 559.424051 127.10591 
L 559.424051 112.674404 
L 559.424051 108.748455 
L 559.424051 97.38558 
L 559.424051 118.283638 
L 559.424051 124.8597 
L 565.561855 103.010203 
L 573.745593 97.713355 
L 581.929331 92.085455 
L 592.159004 134.713395 
L 602.388677 103.456111 
L 608.526481 92.540652 
L 610.572415 114.603814 
L 610.572415 97.38558 
L 610.572415 97.713355 
L 612.61835 109.317275 
L 612.61835 119.018746 
L 612.61835 92.308409 
L 612.61835 92.085455 
L 612.61835 107.677086 
L 618.756154 114.603814 
L 631.031761 103.010203 
L 641.261434 123.17897 
L 667.858584 133.683536 
L 706.731341 134.713395 
L 772.201247 186.206366 
L 821.303677 212.257689 
L 884.727649 224.349159 
L 927.692275 235.756205 
L 944.059752 246.062572 
L 954.289425 249.626456 
L 960.427228 249.626456 
" clip-path="url(#pf99f391853)" style="fill: none; stroke: #d62728; stroke-width: 2.5; stroke-linecap: square"/>
    <g clip-path="url(#pf99f391853)">
     <use xlink:href="#m5d2bc378f9" x="559.424051" y="102.581782" style="fill: #d62728; stroke: #d62728"/>
     <use xlink:href="#m5d2bc378f9" x="559.424051" y="127.10591" style="fill: #d62728; stroke: #d62728"/>
     <use xlink:href="#m5d2bc378f9" x="559.424051" y="108.748455" style="fill: #d62728; stroke: #d62728"/>
     <use xlink:href="#m5d2bc378f9" x="573.745593" y="97.713355" style="fill: #d62728; stroke: #d62728"/>
     <use xlink:href="#m5d2bc378f9" x="610.572415" y="114.603814" style="fill: #d62728; stroke: #d62728"/>
     <use xlink:href="#m5d2bc378f9" x="612.61835" y="92.308409" style="fill: #d62728; stroke: #d62728"/>
     <use xlink:href="#m5d2bc378f9" x="641.261434" y="123.17897" style="fill: #d62728; stroke: #d62728"/>
     <use xlink:href="#m5d2bc378f9" x="884.727649" y="224.349159" style="fill: #d62728; stroke: #d62728"/>
    </g>
   </g>
   <g id="patch_7">
    <path d="M 551.240313 365.2 
L 551.240313 79.08 
" style="fill: none; stroke: #000000; stroke-width: 0.8; stroke-linejoin: miter; stroke-linecap: square"/>
   </g>
   <g id="patch_8">
    <path d="M 551.240313 365.2 
L 989.070312 365.2 
" style="fill: none; stroke: #000000; stroke-width: 0.8; stroke-linejoin: miter; stroke-linecap: square"/>
   </g>
   <g id="text_36">
    <!-- System F1 Score vs. Investigator Skill -->
    <g transform="translate(620.525938 73.08) scale(0.14 -0.14)">
     <defs>
      <path id="DejaVuSans-Bold-46" d="M 588 4666 
L 3834 4666 
L 3834 3756 
L 1791 3756 
L 1791 2888 
L 3713 2888 
L 3713 1978 
L 1791 1978 
L 1791 0 
L 588 0 
L 588 4666 
z
" transform="scale(0.015625)"/>
      <path id="DejaVuSans-Bold-31" d="M 750 831 
L 1813 831 
L 1813 3847 
L 722 3622 
L 722 4441 
L 1806 4666 
L 2950 4666 
L 2950 831 
L 4013 831 
L 4013 0 
L 750 0 
L 750 831 
z
" transform="scale(0.015625)"/>
     </defs>
     <use xlink:href="#DejaVuSans-Bold-53"/>
     <use xlink:href="#DejaVuSans-Bold-79" transform="translate(72.021484 0)"/>
     <use xlink:href="#DejaVuSans-Bold-73" transform="translate(137.207031 0)"/>
     <use xlink:href="#DejaVuSans-Bold-74" transform="translate(196.728516 0)"/>
     <use xlink:href="#DejaVuSans-Bold-65" transform="translate(244.53125 0)"/>
     <use xlink:href="#DejaVuSans-Bold-6d" transform="translate(312.353516 0)"/>
     <use xlink:href="#DejaVuSans-Bold-20" transform="translate(416.552734 0)"/>
     <use xlink:href="#DejaVuSans-Bold-46" transform="translate(451.367188 0)"/>
     <use xlink:href="#DejaVuSans-Bold-31" transform="translate(519.677734 0)"/>
     <use xlink:href="#DejaVuSans-Bold-20" transform="translate(589.257812 0)"/>
     <use xlink:href="#DejaVuSans-Bold-53" transform="translate(624.072266 0)"/>
     <use xlink:href="#DejaVuSans-Bold-63" transform="translate(696.09375 0)"/>
     <use xlink:href="#DejaVuSans-Bold-6f" transform="translate(755.371094 0)"/>
     <use xlink:href="#DejaVuSans-Bold-72" transform="translate(824.072266 0)"/>
     <use xlink:href="#DejaVuSans-Bold-65" transform="translate(873.388672 0)"/>
     <use xlink:href="#DejaVuSans-Bold-20" transform="translate(941.210938 0)"/>
     <use xlink:href="#DejaVuSans-Bold-76" transform="translate(976.025391 0)"/>
     <use xlink:href="#DejaVuSans-Bold-73" transform="translate(1041.210938 0)"/>
     <use xlink:href="#DejaVuSans-Bold-2e" transform="translate(1100.732422 0)"/>
     <use xlink:href="#DejaVuSans-Bold-20" transform="translate(1138.720703 0)"/>
     <use xlink:href="#DejaVuSans-Bold-49" transform="translate(1173.535156 0)"/>
     <use xlink:href="#DejaVuSans-Bold-6e" transform="translate(1210.742188 0)"/>
     <use xlink:href="#DejaVuSans-Bold-76" transform="translate(1281.933594 0)"/>
     <use xlink:href="#DejaVuSans-Bold-65" transform="translate(1347.119141 0)"/>
     <use xlink:href="#DejaVuSans-Bold-73" transform="translate(1414.941406 0)"/>
     <use xlink:href="#DejaVuSans-Bold-74" transform="translate(1474.462891 0)"/>
     <use xlink:href="#DejaVuSans-Bold-69" transform="translate(1522.265625 0)"/>
     <use xlink:href="#DejaVuSans-Bold-67" transform="translate(1556.542969 0)"/>
     <use xlink:href="#DejaVuSans-Bold-61" transform="translate(1628.125 0)"/>
     <use xlink:href="#DejaVuSans-Bold-74" transform="translate(1695.605469 0)"/>
     <use xlink:href="#DejaVuSans-Bold-6f" transform="translate(1743.408203 0)"/>
     <use xlink:href="#DejaVuSans-Bold-72" transform="translate(1812.109375 0)"/>
     <use xlink:href="#DejaVuSans-Bold-20" transform="translate(1861.425781 0)"/>
     <use xlink:href="#DejaVuSans-Bold-53" transform="translate(1896.240234 0)"/>
     <use xlink:href="#DejaVuSans-Bold-6b" transform="translate(1968.261719 0)"/>
     <use xlink:href="#DejaVuSans-Bold-69" transform="translate(2034.765625 0)"/>
     <use xlink:href="#DejaVuSans-Bold-6c" transform="translate(2069.042969 0)"/>
     <use xlink:href="#DejaVuSans-Bold-6c" transform="translate(2103.320312 0)"/>
    </g>
   </g>
   <g id="legend_2">
    <g id="patch_9">
     <path d="M 900.850312 359.7 
L 981.370312 359.7 
Q 983.570312 359.7 983.570312 357.5 
L 983.570312 294.01625 
Q 983.570312 291.81625 981.370312 291.81625 
L 900.850312 291.81625 
Q 898.650312 291.81625 898.650312 294.01625 
L 898.650312 357.5 
Q 898.650312 359.7 900.850312 359.7 
z
" style="fill: #ffffff; opacity: 0.8; stroke: #cccccc; stroke-linejoin: miter"/>
    </g>
    <g id="line2d_65">
     <path d="M 903.050312 300.724531 
L 914.050312 300.724531 
L 925.050312 300.724531 
" style="fill: none; stroke: #1f77b4; stroke-width: 2.5; stroke-linecap: square"/>
     <g>
      <use xlink:href="#m66db249c4b" x="914.050312" y="300.724531" style="fill: #1f77b4; stroke: #1f77b4"/>
     </g>
    </g>
    <g id="text_37">
     <!-- $\alpha = 0.7$ -->
     <g transform="translate(933.850312 304.574531) scale(0.11 -0.11)">
      <use xlink:href="#DejaVuSans-Oblique-3b1" transform="translate(0 0.78125)"/>
      <use xlink:href="#DejaVuSans-3d" transform="translate(85.400391 0.78125)"/>
      <use xlink:href="#DejaVuSans-30" transform="translate(188.671875 0.78125)"/>
      <use xlink:href="#DejaVuSans-2e" transform="translate(252.294922 0.78125)"/>
      <use xlink:href="#DejaVuSans-37" transform="translate(276.332031 0.78125)"/>
     </g>
    </g>
    <g id="line2d_66">
     <path d="M 903.050312 316.870469 
L 914.050312 316.870469 
L 925.050312 316.870469 
" style="fill: none; stroke: #ff7f0e; stroke-width: 2.5; stroke-linecap: square"/>
     <g>
      <use xlink:href="#m5f47564abb" x="914.050312" y="316.870469" style="fill: #ff7f0e; stroke: #ff7f0e"/>
     </g>
    </g>
    <g id="text_38">
     <!-- $\alpha = 0.8$ -->
     <g transform="translate(933.850312 320.720469) scale(0.11 -0.11)">
      <use xlink:href="#DejaVuSans-Oblique-3b1" transform="translate(0 0.78125)"/>
      <use xlink:href="#DejaVuSans-3d" transform="translate(85.400391 0.78125)"/>
      <use xlink:href="#DejaVuSans-30" transform="translate(188.671875 0.78125)"/>
      <use xlink:href="#DejaVuSans-2e" transform="translate(252.294922 0.78125)"/>
      <use xlink:href="#DejaVuSans-38" transform="translate(281.457031 0.78125)"/>
     </g>
    </g>
    <g id="line2d_67">
     <path d="M 903.050312 333.016406 
L 914.050312 333.016406 
L 925.050312 333.016406 
" style="fill: none; stroke: #2ca02c; stroke-width: 2.5; stroke-linecap: square"/>
     <g>
      <use xlink:href="#m40b5d9bbf9" x="914.050312" y="333.016406" style="fill: #2ca02c; stroke: #2ca02c"/>
     </g>
    </g>
    <g id="text_39">
     <!-- $\alpha = 0.9$ -->
     <g transform="translate(933.850312 336.866406) scale(0.11 -0.11)">
      <use xlink:href="#DejaVuSans-Oblique-3b1" transform="translate(0 0.78125)"/>
      <use xlink:href="#DejaVuSans-3d" transform="translate(85.400391 0.78125)"/>
      <use xlink:href="#DejaVuSans-30" transform="translate(188.671875 0.78125)"/>
      <use xlink:href="#DejaVuSans-2e" transform="translate(252.294922 0.78125)"/>
      <use xlink:href="#DejaVuSans-39" transform="translate(284.082031 0.78125)"/>
     </g>
    </g>
    <g id="line2d_68">
     <path d="M 903.050312 349.162344 
L 914.050312 349.162344 
L 925.050312 349.162344 
" style="fill: none; stroke: #d62728; stroke-width: 2.5; stroke-linecap: square"/>
     <g>
      <use xlink:href="#m5d2bc378f9" x="914.050312" y="349.162344" style="fill: #d62728; stroke: #d62728"/>
     </g>
    </g>
    <g id="text_40">
     <!-- $\alpha = 0.95$ -->
     <g transform="translate(933.850312 353.012344) scale(0.11 -0.11)">
      <use xlink:href="#DejaVuSans-Oblique-3b1" transform="translate(0 0.78125)"/>
      <use xlink:href="#DejaVuSans-3d" transform="translate(85.400391 0.78125)"/>
      <use xlink:href="#DejaVuSans-30" transform="translate(188.671875 0.78125)"/>
      <use xlink:href="#DejaVuSans-2e" transform="translate(252.294922 0.78125)"/>
      <use xlink:href="#DejaVuSans-39" transform="translate(284.082031 0.78125)"/>
      <use xlink:href="#DejaVuSans-35" transform="translate(347.705078 0.78125)"/>
     </g>
    </g>
   </g>
  </g>
  <g id="text_41">
   <!-- Sensitivity to Human Investigator Accuracy ($\alpha$) -->
   <g transform="translate(299.880312 18.6) scale(0.15 -0.15)">
    <defs>
     <path id="DejaVuSans-Bold-48" d="M 588 4666 
L 1791 4666 
L 1791 2888 
L 3566 2888 
L 3566 4666 
L 4769 4666 
L 4769 0 
L 3566 0 
L 3566 1978 
L 1791 1978 
L 1791 0 
L 588 0 
L 588 4666 
z
" transform="scale(0.015625)"/>
     <path id="DejaVuSans-Bold-28" d="M 2413 -844 
L 1484 -844 
Q 1006 -72 778 623 
Q 550 1319 550 2003 
Q 550 2688 779 3389 
Q 1009 4091 1484 4856 
L 2413 4856 
Q 2013 4116 1813 3408 
Q 1613 2700 1613 2009 
Q 1613 1319 1811 609 
Q 2009 -100 2413 -844 
z
" transform="scale(0.015625)"/>
     <path id="DejaVuSans-Bold-29" d="M 513 -844 
Q 913 -100 1113 609 
Q 1313 1319 1313 2009 
Q 1313 2700 1113 3408 
Q 913 4116 513 4856 
L 1441 4856 
Q 1916 4091 2145 3389 
Q 2375 2688 2375 2003 
Q 2375 1319 2147 623 
Q 1919 -72 1441 -844 
L 513 -844 
z
" transform="scale(0.015625)"/>
    </defs>
    <use xlink:href="#DejaVuSans-Bold-53" transform="translate(0 0.015625)"/>
    <use xlink:href="#DejaVuSans-Bold-65" transform="translate(72.021484 0.015625)"/>
    <use xlink:href="#DejaVuSans-Bold-6e" transform="translate(139.84375 0.015625)"/>
    <use xlink:href="#DejaVuSans-Bold-73" transform="translate(211.035156 0.015625)"/>
    <use xlink:href="#DejaVuSans-Bold-69" transform="translate(270.556641 0.015625)"/>
    <use xlink:href="#DejaVuSans-Bold-74" transform="translate(304.833984 0.015625)"/>
    <use xlink:href="#DejaVuSans-Bold-69" transform="translate(352.636719 0.015625)"/>
    <use xlink:href="#DejaVuSans-Bold-76" transform="translate(386.914062 0.015625)"/>
    <use xlink:href="#DejaVuSans-Bold-69" transform="translate(452.099609 0.015625)"/>
    <use xlink:href="#DejaVuSans-Bold-74" transform="translate(486.376953 0.015625)"/>
    <use xlink:href="#DejaVuSans-Bold-79" transform="translate(534.179688 0.015625)"/>
    <use xlink:href="#DejaVuSans-Bold-20" transform="translate(599.365234 0.015625)"/>
    <use xlink:href="#DejaVuSans-Bold-74" transform="translate(634.179688 0.015625)"/>
    <use xlink:href="#DejaVuSans-Bold-6f" transform="translate(681.982422 0.015625)"/>
    <use xlink:href="#DejaVuSans-Bold-20" transform="translate(750.683594 0.015625)"/>
    <use xlink:href="#DejaVuSans-Bold-48" transform="translate(785.498047 0.015625)"/>
    <use xlink:href="#DejaVuSans-Bold-75" transform="translate(869.189453 0.015625)"/>
    <use xlink:href="#DejaVuSans-Bold-6d" transform="translate(940.380859 0.015625)"/>
    <use xlink:href="#DejaVuSans-Bold-61" transform="translate(1044.580078 0.015625)"/>
    <use xlink:href="#DejaVuSans-Bold-6e" transform="translate(1112.060547 0.015625)"/>
    <use xlink:href="#DejaVuSans-Bold-20" transform="translate(1183.251953 0.015625)"/>
    <use xlink:href="#DejaVuSans-Bold-49" transform="translate(1218.066406 0.015625)"/>
    <use xlink:href="#DejaVuSans-Bold-6e" transform="translate(1255.273438 0.015625)"/>
    <use xlink:href="#DejaVuSans-Bold-76" transform="translate(1326.464844 0.015625)"/>
    <use xlink:href="#DejaVuSans-Bold-65" transform="translate(1391.650391 0.015625)"/>
    <use xlink:href="#DejaVuSans-Bold-73" transform="translate(1459.472656 0.015625)"/>
    <use xlink:href="#DejaVuSans-Bold-74" transform="translate(1518.994141 0.015625)"/>
    <use xlink:href="#DejaVuSans-Bold-69" transform="translate(1566.796875 0.015625)"/>
    <use xlink:href="#DejaVuSans-Bold-67" transform="translate(1601.074219 0.015625)"/>
    <use xlink:href="#DejaVuSans-Bold-61" transform="translate(1672.65625 0.015625)"/>
    <use xlink:href="#DejaVuSans-Bold-74" transform="translate(1740.136719 0.015625)"/>
    <use xlink:href="#DejaVuSans-Bold-6f" transform="translate(1787.939453 0.015625)"/>
    <use xlink:href="#DejaVuSans-Bold-72" transform="translate(1856.640625 0.015625)"/>
    <use xlink:href="#DejaVuSans-Bold-20" transform="translate(1905.957031 0.015625)"/>
    <use xlink:href="#DejaVuSans-Bold-41" transform="translate(1940.771484 0.015625)"/>
    <use xlink:href="#DejaVuSans-Bold-63" transform="translate(2018.164062 0.015625)"/>
    <use xlink:href="#DejaVuSans-Bold-63" transform="translate(2077.441406 0.015625)"/>
    <use xlink:href="#DejaVuSans-Bold-75" transform="translate(2136.71875 0.015625)"/>
    <use xlink:href="#DejaVuSans-Bold-72" transform="translate(2207.910156 0.015625)"/>
    <use xlink:href="#DejaVuSans-Bold-61" transform="translate(2257.226562 0.015625)"/>
    <use xlink:href="#DejaVuSans-Bold-63" transform="translate(2324.707031 0.015625)"/>
    <use xlink:href="#DejaVuSans-Bold-79" transform="translate(2383.984375 0.015625)"/>
    <use xlink:href="#DejaVuSans-Bold-20" transform="translate(2449.169922 0.015625)"/>
    <use xlink:href="#DejaVuSans-Bold-28" transform="translate(2483.984375 0.015625)"/>
    <use xlink:href="#DejaVuSans-Oblique-3b1" transform="translate(2529.6875 0.015625)"/>
    <use xlink:href="#DejaVuSans-Bold-29" transform="translate(2595.605469 0.015625)"/>
   </g>
  </g>
 </g>
 <defs>
  <clipPath id="p849a29024e">
   <rect x="57.500313" y="79.08" width="437.83" height="286.12"/>
  </clipPath>
  <clipPath id="pf99f391853">
   <rect x="551.240313" y="79.08" width="437.83" height="286.12"/>
  </clipPath>
 </defs>
</svg>
